<svg xmlns="http://www.w3.org/2000/svg" xmlns:xlink="http://www.w3.org/1999/xlink" width="500" zoomAndPan="magnify" viewBox="0 0 375 374.999991" height="500" preserveAspectRatio="xMidYMid meet" version="1.0"><defs><clipPath id="1d7eaaa17f"><path d="M 326 173 L 352.792969 173 L 352.792969 184 L 326 184 Z M 326 173 " clip-rule="nonzero"/></clipPath><clipPath id="aa827adeea"><path d="M 22.042969 261 L 324 261 L 324 302.550781 L 22.042969 302.550781 Z M 22.042969 261 " clip-rule="nonzero"/></clipPath></defs><path fill="#40bfc2" d="M 116.234375 162.972656 C 116.664062 151.632812 115.5625 142.183594 109.15625 132.558594 C 95.488281 112.015625 72.9375 102.867188 53.609375 88.707031 C 51.132812 86.894531 48.78125 84.859375 46.472656 82.75 C 47.472656 102.921875 46.382812 121.644531 51.945312 141.410156 C 57.460938 161.007812 70.695312 175.855469 88.457031 186.003906 C 94.28125 189.328125 103.035156 193.84375 109.652344 200.289062 C 114.433594 204.941406 115.996094 169.421875 116.234375 162.972656 " fill-opacity="1" fill-rule="nonzero"/><path fill="#1d1e32" d="M 69.441406 121.25 C 84.621094 133.039062 95.28125 151.835938 102.128906 172.117188 C 108.980469 192.398438 112.027344 214.15625 112.023438 231.828125 L 112.023438 231.953125 C 112.027344 232.199219 112.230469 232.398438 112.476562 232.398438 C 112.726562 232.394531 112.925781 232.195312 112.921875 231.945312 L 112.921875 231.828125 C 112.921875 214.054688 109.867188 192.21875 102.980469 171.828125 C 96.089844 151.441406 85.371094 132.496094 69.988281 120.542969 C 69.792969 120.390625 69.511719 120.425781 69.359375 120.617188 C 69.207031 120.816406 69.246094 121.097656 69.441406 121.25 " fill-opacity="1" fill-rule="nonzero"/><path fill="#1d1e32" d="M 339.742188 157.09375 C 315.039062 193.023438 302.59375 236.09375 302.59375 279.296875 C 302.59375 279.546875 302.792969 279.746094 303.039062 279.746094 C 303.289062 279.746094 303.488281 279.546875 303.488281 279.296875 C 303.488281 236.265625 315.890625 193.371094 340.480469 157.601562 C 340.621094 157.398438 340.570312 157.117188 340.363281 156.980469 C 340.160156 156.835938 339.882812 156.890625 339.742188 157.09375 " fill-opacity="1" fill-rule="nonzero"/><path fill="#3bbbad" d="M 336.921875 161.132812 C 347.613281 158.316406 350.015625 148.984375 351.617188 139.285156 C 348.664062 139.421875 341.382812 145.425781 339.789062 147.984375 C 337.230469 152.082031 338.28125 157.929688 336.921875 162.332031 L 336.921875 161.132812 " fill-opacity="1" fill-rule="nonzero"/><path fill="#3bbbad" d="M 330.730469 172.609375 C 336.019531 159.195312 331.035156 153.917969 325.523438 145.78125 C 323.472656 147.914062 322.328125 157.28125 322.929688 160.230469 C 323.894531 164.964844 328.6875 168.488281 330.730469 172.609375 " fill-opacity="1" fill-rule="nonzero"/><path fill="#3bbbad" d="M 322.160156 189.160156 C 327.453125 175.746094 322.46875 170.472656 316.953125 162.332031 C 314.90625 164.464844 313.757812 173.832031 314.359375 176.78125 C 315.328125 181.511719 320.117188 185.035156 322.160156 189.160156 " fill-opacity="1" fill-rule="nonzero"/><path fill="#3bbbad" d="M 316.273438 204.03125 C 319.597656 190 313.914062 185.488281 307.296875 178.214844 C 305.570312 180.621094 305.773438 190.054688 306.789062 192.886719 C 308.421875 197.433594 313.664062 200.238281 316.273438 204.03125 " fill-opacity="1" fill-rule="nonzero"/><path fill="#3bbbad" d="M 310.183594 222.832031 C 311.253906 208.449219 304.925781 204.890625 297.242188 198.753906 C 295.921875 201.398438 297.609375 210.683594 299.058594 213.320312 C 301.386719 217.554688 307.007812 219.496094 310.183594 222.832031 " fill-opacity="1" fill-rule="nonzero"/><path fill="#3bbbad" d="M 305.394531 246.125 C 306.464844 231.742188 300.140625 228.183594 292.457031 222.042969 C 291.132812 224.691406 292.816406 233.976562 294.269531 236.617188 C 296.601562 240.847656 302.21875 242.789062 305.394531 246.125 " fill-opacity="1" fill-rule="nonzero"/><path fill="#3bbbad" d="M 303.039062 270.949219 C 301.660156 256.59375 294.820312 254.160156 286.210938 249.414062 C 285.355469 252.242188 288.589844 261.109375 290.46875 263.460938 C 293.480469 267.242188 299.34375 268.199219 303.039062 270.949219 " fill-opacity="1" fill-rule="nonzero"/><g clip-path="url(#1d7eaaa17f)"><path fill="#3bbbad" d="M 326.28125 181.128906 C 332.195312 171.789062 342.953125 172.679688 352.691406 174.078125 C 351.667969 176.855469 343.742188 181.980469 340.828125 182.726562 C 336.148438 183.929688 330.882812 181.167969 326.28125 181.128906 " fill-opacity="1" fill-rule="nonzero"/></g><path fill="#3bbbad" d="M 318.808594 197.84375 C 324.726562 188.503906 335.484375 189.394531 345.21875 190.792969 C 344.195312 193.570312 336.273438 198.695312 333.355469 199.445312 C 328.675781 200.644531 323.414062 197.878906 318.808594 197.84375 " fill-opacity="1" fill-rule="nonzero"/><path fill="#3bbbad" d="M 312.03125 215.828125 C 317.949219 206.488281 328.707031 207.375 338.441406 208.773438 C 337.417969 211.546875 329.496094 216.675781 326.578125 217.425781 C 321.898438 218.628906 316.636719 215.859375 312.03125 215.828125 " fill-opacity="1" fill-rule="nonzero"/><path fill="#3bbbad" d="M 307.652344 234.617188 C 313.566406 225.273438 324.320312 226.164062 334.058594 227.566406 C 333.035156 230.339844 325.109375 235.464844 322.195312 236.214844 C 317.515625 237.410156 312.25 234.648438 307.652344 234.617188 " fill-opacity="1" fill-rule="nonzero"/><path fill="#3bbbad" d="M 304.046875 257.332031 C 309.964844 247.992188 320.726562 248.878906 330.457031 250.277344 C 329.433594 253.054688 321.511719 258.183594 318.597656 258.933594 C 313.917969 260.132812 308.652344 257.367188 304.046875 257.332031 " fill-opacity="1" fill-rule="nonzero"/><path fill="#1d1e32" d="M 237.289062 107.867188 C 254.597656 143.773438 263.035156 183.179688 263.035156 222.644531 C 263.035156 236.878906 261.933594 251.125 259.757812 265.21875 C 259.722656 265.460938 259.890625 265.691406 260.132812 265.726562 C 260.378906 265.765625 260.609375 265.597656 260.644531 265.355469 C 262.828125 251.21875 263.929688 236.925781 263.929688 222.644531 C 263.929688 183.050781 255.464844 143.511719 238.097656 107.476562 C 237.992188 107.253906 237.722656 107.160156 237.5 107.265625 C 237.273438 107.375 237.183594 107.640625 237.289062 107.867188 " fill-opacity="1" fill-rule="nonzero"/><path fill="#73ca70" d="M 240.910156 112.949219 C 228.246094 107.433594 227.0625 95.460938 226.929688 83.175781 C 230.554688 83.910156 238.394531 92.710938 239.878906 96.167969 C 242.25 101.714844 239.839844 108.738281 240.683594 114.425781 L 240.910156 112.949219 " fill-opacity="1" fill-rule="nonzero"/><path fill="#73ca70" d="M 246.359375 128.296875 C 242.382812 110.730469 249.542969 105.167969 257.902344 96.167969 C 260.027344 99.195312 259.65625 110.976562 258.347656 114.503906 C 256.253906 120.160156 249.667969 123.59375 246.359375 128.296875 " fill-opacity="1" fill-rule="nonzero"/><path fill="#73ca70" d="M 253.785156 150.367188 C 249.808594 132.792969 256.96875 127.230469 265.328125 118.234375 C 267.449219 121.257812 267.078125 133.039062 265.773438 136.570312 C 263.675781 142.226562 257.09375 145.660156 253.785156 150.367188 " fill-opacity="1" fill-rule="nonzero"/><path fill="#73ca70" d="M 258.214844 169.84375 C 256.785156 151.886719 264.664062 147.402344 274.222656 139.683594 C 275.886719 142.980469 273.84375 154.59375 272.046875 157.894531 C 269.164062 163.195312 262.164062 165.660156 258.214844 169.84375 " fill-opacity="1" fill-rule="nonzero"/><path fill="#73ca70" d="M 262.152344 194.210938 C 263.570312 176.25 272.058594 173.0625 282.714844 166.957031 C 283.84375 170.472656 279.992188 181.613281 277.695312 184.589844 C 274.015625 189.375 266.707031 190.699219 262.152344 194.210938 " fill-opacity="1" fill-rule="nonzero"/><path fill="#73ca70" d="M 263.621094 223.875 C 265.039062 205.921875 273.527344 202.734375 284.183594 196.625 C 285.308594 200.140625 281.460938 211.28125 279.164062 214.257812 C 275.480469 219.042969 268.175781 220.367188 263.621094 223.875 " fill-opacity="1" fill-rule="nonzero"/><path fill="#73ca70" d="M 261.796875 254.972656 C 266.230469 237.515625 275.140625 235.8125 286.675781 231.589844 C 287.191406 235.253906 281.507812 245.578125 278.742188 248.128906 C 274.304688 252.214844 266.878906 252.285156 261.796875 254.972656 " fill-opacity="1" fill-rule="nonzero"/><path fill="#73ca70" d="M 250.226562 139.667969 C 244.707031 127.007812 231.253906 126.054688 218.972656 125.925781 C 219.707031 129.546875 228.507812 137.386719 231.964844 138.867188 C 237.511719 141.242188 244.539062 138.828125 250.226562 139.667969 " fill-opacity="1" fill-rule="nonzero"/><path fill="#73ca70" d="M 256.265625 161.730469 C 250.742188 149.066406 237.289062 148.113281 225.011719 147.980469 C 225.746094 151.605469 234.546875 159.445312 238.003906 160.925781 C 243.550781 163.300781 250.578125 160.890625 256.265625 161.730469 " fill-opacity="1" fill-rule="nonzero"/><path fill="#73ca70" d="M 261.203125 185.214844 C 255.679688 172.550781 242.226562 171.597656 229.945312 171.472656 C 230.683594 175.089844 239.484375 182.933594 242.941406 184.410156 C 248.488281 186.785156 255.511719 184.375 261.203125 185.214844 " fill-opacity="1" fill-rule="nonzero"/><path fill="#73ca70" d="M 263.03125 209.242188 C 257.511719 196.582031 244.058594 195.628906 231.777344 195.503906 C 232.511719 199.121094 241.3125 206.964844 244.769531 208.445312 C 250.320312 210.816406 257.34375 208.40625 263.03125 209.242188 " fill-opacity="1" fill-rule="nonzero"/><path fill="#73ca70" d="M 263.144531 237.972656 C 257.621094 225.3125 244.171875 224.359375 231.890625 224.230469 C 232.625 227.851562 241.425781 235.695312 244.882812 237.171875 C 250.429688 239.546875 257.457031 237.132812 263.144531 237.972656 " fill-opacity="1" fill-rule="nonzero"/><g clip-path="url(#aa827adeea)"><path fill="#7dcf9c" d="M 323.125 281.832031 C 323.125 293.269531 255.746094 302.542969 172.632812 302.542969 C 89.523438 302.542969 22.144531 293.269531 22.144531 281.832031 C 22.144531 270.390625 89.523438 261.121094 172.632812 261.121094 C 255.746094 261.121094 323.125 270.390625 323.125 281.832031 " fill-opacity="1" fill-rule="nonzero"/></g><path fill="#24a29e" d="M 190.335938 165.351562 C 187.441406 143.492188 225.011719 141.574219 221.441406 162.214844 C 229.699219 148.441406 252.863281 161.96875 246.460938 177.574219 C 253.222656 176.351562 258.617188 181.863281 261.136719 187.675781 C 264.253906 194.847656 261.960938 199.992188 257.15625 205.816406 C 263.632812 205.738281 270.464844 211.414062 270.886719 218.097656 C 271.5 227.757812 269.964844 230.648438 264.777344 235.796875 C 271.921875 236.496094 274.113281 245.210938 273.910156 251.667969 C 273.597656 261.570312 268.6875 263.757812 260.042969 265.375 C 249.871094 267.277344 241.421875 267.367188 231.121094 266.121094 C 222.503906 265.070312 213.222656 261.964844 204.292969 262.042969 C 189.679688 262.167969 175.136719 260.378906 160.699219 258.332031 C 150.953125 256.949219 137.257812 257.785156 130.917969 249.03125 C 125.78125 241.933594 123.957031 232.90625 127.359375 224.765625 C 129.214844 220.328125 138.765625 208.15625 144.320312 215.96875 C 136.398438 209.539062 136.359375 203.269531 138.789062 195.90625 C 141.222656 188.503906 149.800781 182.011719 157.195312 185.828125 C 152.253906 176.253906 156.605469 166.023438 165.394531 159.902344 C 165.394531 159.902344 181.140625 149.410156 190.335938 165.351562 " fill-opacity="1" fill-rule="nonzero"/><path fill="#5ec682" d="M 75.339844 228.691406 C 62.050781 213.929688 83.089844 193.648438 97.449219 205.40625 C 85.476562 181.730469 127.304688 168.347656 128.851562 193.375 C 139.359375 179.949219 163.367188 187.105469 158.050781 205.617188 C 178.332031 199.527344 188.089844 226.238281 175.839844 236.070312 C 186.421875 238.601562 188.273438 254.539062 180.621094 260.648438 C 173.714844 266.164062 156.570312 264.863281 147.542969 264.867188 C 135.628906 264.867188 123.542969 264.144531 111.933594 263.175781 C 98.761719 262.070312 78.082031 266.121094 67.15625 256.445312 C 62.308594 252.15625 56.898438 248.277344 59.34375 236.113281 C 60.296875 231.382812 70.816406 221.078125 75.339844 228.691406 " fill-opacity="1" fill-rule="nonzero"/><path fill="#4dc2b0" d="M 216.121094 243.191406 C 207.585938 233.703125 221.105469 220.671875 230.335938 228.222656 C 222.644531 213.011719 249.519531 204.410156 250.515625 220.492188 C 257.273438 211.863281 272.699219 216.464844 269.28125 228.355469 C 282.320312 224.445312 288.589844 241.617188 280.714844 247.933594 C 287.515625 249.5625 288.703125 259.804688 283.792969 263.730469 C 279.351562 267.277344 268.332031 266.4375 262.53125 266.441406 C 254.875 266.441406 247.105469 265.972656 239.648438 265.355469 C 231.175781 264.644531 217.890625 267.246094 210.867188 261.03125 C 207.75 258.269531 204.273438 255.78125 205.847656 247.957031 C 206.457031 244.921875 213.21875 238.300781 216.121094 243.191406 " fill-opacity="1" fill-rule="nonzero"/><path fill="#97592c" d="M 153.332031 97.960938 C 152.042969 104.074219 155.089844 108.648438 157.132812 114.074219 C 159.164062 119.457031 157.195312 122.902344 153.738281 126.964844 C 150.226562 131.09375 148.066406 137.960938 151.019531 143.039062 C 153.089844 146.609375 157.886719 147.433594 157.136719 152.316406 C 156.511719 156.402344 152.8125 160.363281 154.871094 164.585938 C 157.125 169.214844 164.089844 168.972656 168.363281 168.472656 C 174.953125 167.703125 181.414062 167.722656 187.957031 167.164062 C 192.6875 166.753906 199.007812 166.527344 199.183594 160.691406 C 199.386719 153.980469 193.773438 151.019531 191.390625 145.476562 C 188.863281 139.601562 193.609375 135.371094 195.925781 130.453125 C 198.695312 124.570312 196.289062 119.007812 190.671875 116.097656 C 187.304688 114.351562 181.828125 113.773438 180.214844 109.726562 C 178.839844 106.292969 180.359375 101.929688 180.355469 98.367188 C 180.347656 91.953125 176.445312 84.179688 169.132812 84.199219 C 162.019531 84.214844 154.742188 91.285156 153.332031 97.960938 " fill-opacity="1" fill-rule="nonzero"/><path fill="#ae6733" d="M 185.816406 100.597656 C 186.085938 102.769531 185.003906 105.210938 185.664062 107.328125 C 186.300781 109.355469 188.671875 110.464844 189.152344 112.472656 C 190.359375 117.546875 185.433594 119.898438 182.351562 122.332031 C 178.679688 125.230469 175.429688 131.242188 178.75 138.492188 C 182.472656 146.601562 172.636719 148.753906 176.570312 157.359375 C 178.777344 162.164062 182.40625 161.222656 186.960938 160.835938 C 189.03125 160.664062 191.085938 160.121094 193.207031 160.824219 C 194.90625 161.382812 196.351562 163.035156 198.160156 163.480469 C 199.890625 163.90625 203.074219 163.828125 204.632812 163.070312 C 207.667969 161.585938 206.46875 160.238281 206.230469 157.839844 C 205.921875 154.652344 205.703125 154.894531 204.335938 152.140625 C 203.84375 151.140625 203.933594 149.914062 203.273438 148.808594 C 202.617188 147.714844 201.660156 147.386719 201.078125 146.160156 C 198.894531 141.554688 202.640625 138.84375 204.351562 135.039062 C 206.628906 129.976562 203.851562 127.351562 201.289062 123.359375 C 196.046875 115.210938 200.40625 103.511719 196.742188 94.835938 C 194.96875 90.648438 191.808594 85.425781 186.832031 83.363281 C 184.222656 82.28125 180.550781 83.488281 180.144531 86.769531 C 179.609375 91.0625 185.25 96.113281 185.816406 100.597656 " fill-opacity="1" fill-rule="nonzero"/><path fill="#f8a18f" d="M 210.621094 164.070312 C 214.769531 177.277344 219.546875 196.851562 222.082031 210.429688 C 222.082031 210.429688 216.925781 222.015625 213.863281 218.367188 C 205.523438 204.652344 206.265625 204.308594 193.578125 173.082031 C 193.578125 173.082031 188.519531 158.460938 198.558594 150.34375 C 198.558594 150.34375 206.628906 151.628906 210.621094 164.070312 " fill-opacity="1" fill-rule="nonzero"/><path fill="#f8a18f" d="M 164.480469 143.25 L 181.359375 143.25 C 177.480469 136.964844 180.523438 128.476562 180.96875 127.320312 L 164.867188 127.320312 C 165.3125 128.476562 168.359375 136.964844 164.480469 143.25 " fill-opacity="1" fill-rule="nonzero"/><path fill="#f68373" d="M 179.421875 135.476562 C 179.464844 131.472656 180.695312 128.027344 180.96875 127.320312 L 164.867188 127.320312 C 165.136719 128.027344 166.375 131.472656 166.417969 135.476562 C 166.417969 135.476562 172.421875 141.996094 179.421875 135.476562 " fill-opacity="1" fill-rule="nonzero"/><path fill="#f8a18f" d="M 184.363281 125.121094 C 187.707031 122.484375 187.925781 118.914062 187.925781 118.914062 C 188.480469 113.050781 188.738281 111.117188 189.179688 108.121094 C 191.054688 95.277344 181.804688 84.609375 172.621094 84.46875 C 163.429688 84.609375 154.183594 95.277344 156.0625 108.121094 C 156.496094 111.117188 156.761719 113.050781 157.3125 118.914062 C 157.3125 118.914062 157.710938 122.171875 160.875 125.121094 C 160.875 125.121094 165.632812 129.84375 170.585938 131.667969 C 170.585938 131.667969 171.390625 131.949219 172.621094 131.972656 C 173.84375 131.949219 174.652344 131.667969 174.652344 131.667969 C 174.652344 131.667969 181.820312 127.90625 184.363281 125.121094 " fill-opacity="1" fill-rule="nonzero"/><path fill="#ae6733" d="M 183.585938 102.351562 C 183.386719 102.351562 183.1875 102.265625 183.050781 102.105469 C 182.265625 101.191406 180.6875 100.792969 179.203125 101.8125 C 178.878906 102.03125 178.441406 101.949219 178.222656 101.625 C 178.003906 101.304688 178.085938 100.867188 178.40625 100.644531 C 180.546875 99.175781 182.949219 99.824219 184.117188 101.179688 C 184.371094 101.476562 184.339844 101.921875 184.042969 102.175781 C 183.914062 102.289062 183.746094 102.351562 183.585938 102.351562 " fill-opacity="1" fill-rule="nonzero"/><path fill="#ae6733" d="M 162.398438 102.351562 C 162.238281 102.351562 162.074219 102.289062 161.941406 102.175781 C 161.644531 101.921875 161.613281 101.476562 161.867188 101.179688 C 163.035156 99.828125 165.433594 99.179688 167.578125 100.644531 C 167.898438 100.867188 167.980469 101.304688 167.761719 101.625 C 167.542969 101.949219 167.101562 102.03125 166.78125 101.8125 C 165.296875 100.792969 163.722656 101.191406 162.9375 102.105469 C 162.796875 102.265625 162.597656 102.351562 162.398438 102.351562 " fill-opacity="1" fill-rule="nonzero"/><path fill="#f57c6e" d="M 173.285156 120.023438 C 171.65625 120.023438 169.785156 119.316406 169.214844 117.679688 C 169.113281 117.390625 169.265625 117.082031 169.546875 116.984375 C 169.828125 116.882812 170.140625 117.03125 170.242188 117.316406 C 170.652344 118.488281 172.222656 119.011719 173.582031 118.921875 C 174.664062 118.851562 175.898438 118.371094 176.132812 117.242188 C 176.191406 116.953125 176.476562 116.761719 176.773438 116.820312 C 177.066406 116.882812 177.257812 117.171875 177.199219 117.464844 C 176.902344 118.90625 175.542969 119.882812 173.65625 120.007812 C 173.53125 120.019531 173.410156 120.023438 173.285156 120.023438 " fill-opacity="1" fill-rule="nonzero"/><path fill="#172345" d="M 180.171875 107.808594 C 178.707031 107.808594 177.515625 106.617188 177.515625 105.152344 C 177.515625 104.851562 177.757812 104.609375 178.058594 104.609375 C 178.359375 104.609375 178.601562 104.851562 178.601562 105.152344 C 178.601562 106.019531 179.304688 106.71875 180.171875 106.71875 C 181.039062 106.71875 181.742188 106.019531 181.742188 105.152344 C 181.742188 104.851562 181.988281 104.609375 182.285156 104.609375 C 182.585938 104.609375 182.828125 104.851562 182.828125 105.152344 C 182.828125 106.617188 181.636719 107.808594 180.171875 107.808594 " fill-opacity="1" fill-rule="nonzero"/><path fill="#172345" d="M 165.066406 107.808594 C 163.601562 107.808594 162.410156 106.617188 162.410156 105.152344 C 162.410156 104.851562 162.652344 104.609375 162.953125 104.609375 C 163.25 104.609375 163.496094 104.851562 163.496094 105.152344 C 163.496094 106.019531 164.199219 106.71875 165.066406 106.71875 C 165.933594 106.71875 166.636719 106.019531 166.636719 105.152344 C 166.636719 104.851562 166.878906 104.609375 167.179688 104.609375 C 167.480469 104.609375 167.722656 104.851562 167.722656 105.152344 C 167.722656 106.617188 166.53125 107.808594 165.066406 107.808594 " fill-opacity="1" fill-rule="nonzero"/><path fill="#f57984" d="M 185.199219 111.117188 C 185.199219 112.164062 183.515625 113.015625 181.445312 113.015625 C 179.371094 113.015625 177.691406 112.164062 177.691406 111.117188 C 177.691406 110.066406 179.371094 109.214844 181.445312 109.214844 C 183.515625 109.214844 185.199219 110.066406 185.199219 111.117188 " fill-opacity="1" fill-rule="nonzero"/><path fill="#f57984" d="M 167.910156 111.117188 C 167.910156 112.164062 166.226562 113.015625 164.15625 113.015625 C 162.078125 113.015625 160.398438 112.164062 160.398438 111.117188 C 160.398438 110.066406 162.078125 109.214844 164.15625 109.214844 C 166.226562 109.214844 167.910156 110.066406 167.910156 111.117188 " fill-opacity="1" fill-rule="nonzero"/><path fill="#f8a18f" d="M 205.277344 174.175781 C 209.152344 165.519531 208.238281 159.671875 208.238281 159.671875 C 206.246094 151.441406 193.761719 148.589844 193.761719 148.589844 C 181.292969 144.789062 179.933594 141.03125 179.933594 141.03125 L 165.90625 141.03125 C 165.90625 141.03125 164.546875 144.789062 152.078125 148.589844 C 152.078125 148.589844 139.59375 151.441406 137.601562 159.671875 C 137.601562 159.671875 136.683594 165.519531 140.5625 174.175781 C 140.5625 174.175781 149.648438 197.382812 153.535156 208.246094 C 153.535156 208.246094 156.546875 215.125 152.078125 225.988281 L 145.824219 240.828125 L 200.015625 240.828125 L 193.761719 225.988281 C 189.292969 215.125 192.300781 208.246094 192.300781 208.246094 C 196.1875 197.382812 205.277344 174.175781 205.277344 174.175781 " fill-opacity="1" fill-rule="nonzero"/><path fill="#f8a18f" d="M 135.503906 164.070312 C 131.359375 177.277344 126.578125 196.851562 124.042969 210.429688 C 124.042969 210.429688 129.089844 223.585938 132.261719 218.367188 C 140.601562 204.652344 139.859375 204.308594 152.546875 173.082031 C 152.546875 173.082031 157.605469 158.460938 147.566406 150.34375 C 147.566406 150.34375 139.492188 151.628906 135.503906 164.070312 " fill-opacity="1" fill-rule="nonzero"/><path fill="#474faa" d="M 203.886719 240.828125 L 196.734375 215.195312 C 195.289062 211.933594 195.5625 207.714844 195.5625 207.714844 C 197.238281 203.027344 199.089844 195.585938 199.917969 187.996094 C 191.128906 170.796875 193.761719 148.589844 193.761719 148.589844 C 192.011719 148.054688 190.476562 147.527344 189.140625 147.003906 C 187.359375 160.121094 173.316406 158.507812 173.316406 158.507812 C 155.167969 158.867188 155.964844 147.28125 155.964844 147.28125 C 154.808594 147.714844 153.519531 148.152344 152.078125 148.589844 C 152.078125 148.589844 155.964844 170.796875 146.210938 188.75 C 147.519531 197.390625 149.03125 199.796875 150.476562 208.257812 C 150.476562 208.257812 151.382812 210.613281 150.117188 215.679688 L 143.867188 240.828125 C 143.867188 240.828125 169.65625 249.144531 203.886719 240.828125 " fill-opacity="1" fill-rule="nonzero"/><path fill="#f8a18f" d="M 164.867188 193.738281 C 164.867188 193.738281 150.164062 198.730469 125.40625 203.578125 C 125.40625 203.578125 122.050781 215.5 125.003906 218.382812 C 125.003906 218.382812 126.757812 222.742188 137.066406 216.945312 C 137.066406 216.945312 164.867188 202.453125 169.042969 198.109375 L 164.867188 193.738281 " fill-opacity="1" fill-rule="nonzero"/><path fill="#f8a18f" d="M 167.179688 199.308594 C 172.683594 200.132812 173.222656 193.535156 173.222656 193.535156 L 173.222656 173.105469 C 172.109375 171.636719 170.695312 173.980469 170.695312 173.980469 C 170.695312 173.980469 170.175781 175.882812 169.042969 183.304688 C 169.042969 183.304688 168.144531 190.75 164.867188 193.738281 L 167.179688 199.308594 " fill-opacity="1" fill-rule="nonzero"/><path fill="#172345" d="M 131.898438 206.5625 C 131.804688 206.5625 131.714844 206.546875 131.632812 206.496094 C 131.367188 206.347656 131.277344 206.019531 131.421875 205.753906 C 134.074219 201.046875 138.050781 199.925781 141.242188 199.027344 L 142.089844 198.789062 C 142.378906 198.703125 142.679688 198.871094 142.761719 199.15625 C 142.847656 199.445312 142.683594 199.75 142.394531 199.832031 L 141.539062 200.074219 C 138.382812 200.964844 134.800781 201.964844 132.371094 206.289062 C 132.269531 206.464844 132.085938 206.5625 131.898438 206.5625 " fill-opacity="1" fill-rule="nonzero"/><path fill="#f8a18f" d="M 181.621094 193.738281 C 181.621094 193.738281 195.960938 198.550781 220.71875 203.398438 C 220.71875 203.398438 224.074219 215.316406 221.125 218.203125 C 221.125 218.203125 219.367188 222.558594 209.058594 216.761719 C 209.058594 216.761719 181.621094 202.453125 177.441406 198.109375 L 181.621094 193.738281 " fill-opacity="1" fill-rule="nonzero"/><path fill="#f8a18f" d="M 179.503906 199.796875 C 173.222656 198.390625 173.265625 193.535156 173.265625 193.535156 L 173.265625 173.105469 C 174.378906 171.636719 175.792969 173.980469 175.792969 173.980469 C 175.792969 173.980469 176.3125 175.882812 177.441406 183.304688 C 177.441406 183.304688 178.34375 190.75 181.621094 193.738281 L 179.503906 199.796875 " fill-opacity="1" fill-rule="nonzero"/><path fill="#172345" d="M 214.230469 206.382812 C 214.039062 206.382812 213.855469 206.28125 213.757812 206.105469 C 211.324219 201.785156 207.746094 200.78125 204.585938 199.890625 L 203.730469 199.644531 C 203.445312 199.566406 203.277344 199.261719 203.367188 198.976562 C 203.445312 198.6875 203.746094 198.523438 204.039062 198.605469 L 204.878906 198.84375 C 208.074219 199.746094 212.046875 200.863281 214.703125 205.574219 C 214.847656 205.832031 214.757812 206.167969 214.492188 206.3125 C 214.410156 206.359375 214.320312 206.382812 214.230469 206.382812 " fill-opacity="1" fill-rule="nonzero"/><path fill="#f57c6e" d="M 171.753906 113.980469 C 171.671875 113.980469 171.59375 113.964844 171.519531 113.925781 C 170.742188 113.558594 170.058594 113.097656 169.363281 112.488281 C 169.160156 112.304688 169.121094 112.007812 169.269531 111.777344 C 169.535156 111.382812 169.828125 110.996094 170.132812 110.609375 C 170.96875 109.535156 171.757812 108.519531 171.753906 107.195312 C 171.75 106.894531 171.992188 106.648438 172.292969 106.644531 L 172.296875 106.644531 C 172.59375 106.644531 172.839844 106.886719 172.839844 107.191406 C 172.851562 108.890625 171.863281 110.15625 170.992188 111.28125 C 170.808594 111.515625 170.628906 111.75 170.457031 111.984375 C 170.949219 112.371094 171.441406 112.683594 171.988281 112.945312 C 172.257812 113.074219 172.375 113.402344 172.242188 113.671875 C 172.152344 113.867188 171.957031 113.980469 171.753906 113.980469 " fill-opacity="1" fill-rule="nonzero"/><path fill="#ae6733" d="M 168.492188 94.835938 C 171.988281 95.613281 180.082031 95.949219 183.226562 97.753906 C 187.433594 100.171875 185.324219 103.535156 186.828125 107.191406 C 188.0625 110.183594 192.238281 108.972656 192.660156 112.929688 C 196.132812 106.8125 193.972656 94.179688 191.035156 88.316406 C 187.675781 81.613281 174.886719 77.488281 167.910156 80.847656 C 160.398438 84.46875 162.402344 93.476562 168.492188 94.835938 " fill-opacity="1" fill-rule="nonzero"/><path fill="#f8a18f" d="M 193.140625 113.753906 C 192.867188 116.230469 191.128906 118.070312 189.257812 117.863281 C 187.390625 117.664062 186.097656 115.492188 186.367188 113.015625 C 186.640625 110.539062 188.375 108.703125 190.242188 108.90625 C 192.113281 109.109375 193.410156 111.28125 193.140625 113.753906 " fill-opacity="1" fill-rule="nonzero"/><path fill="#f57c6e" d="M 190.015625 116.105469 C 189.855469 116.105469 189.699219 116.035156 189.589844 115.894531 C 189.402344 115.660156 189.441406 115.316406 189.679688 115.132812 C 190.210938 114.707031 190.558594 113.574219 190.445312 112.605469 C 190.382812 112.042969 190.171875 111.640625 189.871094 111.5 C 189.597656 111.371094 189.484375 111.042969 189.613281 110.773438 C 189.738281 110.503906 190.066406 110.382812 190.335938 110.511719 C 190.996094 110.828125 191.421875 111.523438 191.527344 112.480469 C 191.660156 113.625 191.292969 115.242188 190.351562 115.988281 C 190.253906 116.0625 190.132812 116.105469 190.015625 116.105469 " fill-opacity="1" fill-rule="nonzero"/><path fill="#f57c6e" d="M 190.929688 113.71875 C 190.792969 113.71875 190.652344 113.667969 190.542969 113.5625 C 190.34375 113.359375 189.777344 113.289062 189.195312 113.394531 C 188.902344 113.449219 188.617188 113.25 188.5625 112.953125 C 188.507812 112.660156 188.707031 112.375 189 112.324219 C 189.371094 112.257812 190.617188 112.09375 191.316406 112.789062 C 191.527344 113 191.527344 113.34375 191.316406 113.5625 C 191.210938 113.667969 191.070312 113.71875 190.929688 113.71875 " fill-opacity="1" fill-rule="nonzero"/><path fill="#f8a18f" d="M 152.460938 113.753906 C 152.734375 116.230469 154.46875 118.070312 156.339844 117.863281 C 158.207031 117.664062 159.503906 115.492188 159.230469 113.015625 C 158.960938 110.539062 157.222656 108.703125 155.359375 108.90625 C 153.484375 109.109375 152.191406 111.28125 152.460938 113.753906 " fill-opacity="1" fill-rule="nonzero"/><path fill="#f57c6e" d="M 155.582031 116.105469 C 155.460938 116.105469 155.34375 116.0625 155.246094 115.988281 C 154.304688 115.242188 153.941406 113.625 154.070312 112.480469 C 154.175781 111.523438 154.601562 110.828125 155.261719 110.511719 C 155.535156 110.382812 155.859375 110.503906 155.984375 110.773438 C 156.117188 111.042969 156 111.371094 155.726562 111.5 C 155.425781 111.640625 155.214844 112.042969 155.148438 112.605469 C 155.039062 113.574219 155.386719 114.707031 155.921875 115.132812 C 156.15625 115.316406 156.195312 115.660156 156.007812 115.894531 C 155.902344 116.035156 155.742188 116.105469 155.582031 116.105469 " fill-opacity="1" fill-rule="nonzero"/><path fill="#f57c6e" d="M 154.667969 113.71875 C 154.527344 113.71875 154.390625 113.667969 154.28125 113.5625 C 154.070312 113.34375 154.070312 113 154.28125 112.789062 C 154.980469 112.09375 156.226562 112.257812 156.59375 112.324219 C 156.890625 112.375 157.085938 112.660156 157.035156 112.953125 C 156.980469 113.25 156.699219 113.449219 156.402344 113.394531 C 155.824219 113.289062 155.253906 113.359375 155.054688 113.5625 C 154.945312 113.667969 154.804688 113.71875 154.667969 113.71875 " fill-opacity="1" fill-rule="nonzero"/><path fill="#ae6733" d="M 157.0625 109.488281 C 158.125 105.628906 157.472656 101.707031 159.671875 98.09375 C 160.691406 96.414062 162.3125 95.835938 163.703125 94.53125 C 165.609375 92.742188 165.300781 88.859375 165.207031 86.414062 C 165.121094 84.082031 164.632812 83.398438 161.976562 83.703125 C 157.652344 84.191406 152.609375 89.5625 151.832031 93.726562 C 151.445312 95.800781 152.125 97.742188 152.269531 99.722656 C 152.375 101.199219 151.640625 102.578125 151.566406 104.0625 C 151.476562 105.769531 151.902344 107.214844 152.585938 108.773438 C 153.101562 109.953125 153.109375 109.886719 154.167969 109.628906 C 155.199219 109.375 155.996094 108.960938 157.0625 109.488281 " fill-opacity="1" fill-rule="nonzero"/><path fill="#ae6733" d="M 181.195312 95.832031 C 191.144531 81.710938 176.804688 76.671875 176.804688 76.671875 C 161.78125 72.292969 155.964844 81.59375 155.964844 81.59375 C 147.046875 86.488281 142.875 98.695312 146.351562 108.234375 C 147.1875 110.523438 148.882812 112.566406 148.535156 115.140625 C 148.015625 119.03125 142.382812 121.929688 140.496094 125.433594 C 138.289062 129.535156 138.144531 133.882812 140.398438 137.933594 C 142.3125 141.390625 145.5 144.449219 145.382812 148.6875 C 145.277344 152.691406 137.738281 153.484375 136.34375 157.183594 C 134.875 161.054688 137.769531 165.421875 140.855469 167.625 C 145.894531 171.226562 156.878906 172.824219 160.328125 170.179688 C 163.859375 167.464844 160.523438 157.296875 160.398438 152.859375 C 160.257812 148 168.390625 144.800781 164.320312 136.847656 C 161.945312 132.207031 163.945312 131.816406 164.417969 127.046875 C 165.066406 120.453125 163.589844 120.261719 162.164062 116.730469 C 158.867188 108.5625 159.34375 95.699219 167.910156 90.402344 C 167.910156 90.402344 177.691406 83.34375 181.195312 95.832031 " fill-opacity="1" fill-rule="nonzero"/><path fill="#172345" d="M 173.253906 159.191406 C 170.179688 159.191406 167.140625 158.742188 164.707031 158.003906 C 164.425781 157.917969 164.261719 157.617188 164.34375 157.328125 C 164.433594 157.042969 164.738281 156.878906 165.023438 156.964844 C 169.992188 158.476562 177.582031 158.730469 182.476562 156.289062 C 185.058594 155.003906 186.976562 152.488281 188.164062 148.8125 C 188.257812 148.527344 188.5625 148.371094 188.851562 148.464844 C 189.132812 148.554688 189.292969 148.859375 189.199219 149.148438 C 187.914062 153.109375 185.816406 155.84375 182.960938 157.261719 C 180.230469 158.621094 176.71875 159.191406 173.253906 159.191406 " fill-opacity="1" fill-rule="nonzero"/><path fill="#5c51ab" d="M 111.757812 271.785156 L 242.046875 271.785156 C 259.4375 273.816406 275.714844 257.238281 261.800781 249.527344 C 241.882812 238.488281 204.550781 240.6875 204.550781 240.6875 L 200.835938 229.894531 C 200.835938 229.894531 174.644531 236.820312 146.417969 230.5625 C 143.925781 238.050781 143.925781 238.050781 142.53125 240.828125 C 142.53125 240.828125 111.476562 238.4375 92.414062 254.949219 C 92.414062 254.949219 84.238281 271.785156 111.757812 271.785156 " fill-opacity="1" fill-rule="nonzero"/><path fill="#f8a18f" d="M 179.015625 272.605469 C 176.039062 272.84375 146.636719 279.796875 145.988281 279.859375 C 130.054688 281.335938 108.085938 283.664062 94.710938 272.6875 C 88.058594 267.234375 86.484375 259.261719 93.777344 253.5 C 107.863281 242.378906 145.777344 258.5625 145.777344 258.5625 C 145.777344 258.5625 172.457031 269.160156 181.214844 262.097656 C 185.445312 258.632812 188.367188 257.691406 190.984375 258.382812 C 193.015625 258.921875 194.210938 260.363281 195.960938 261.339844 C 197.480469 262.179688 199.238281 262.480469 200.953125 262.472656 C 202.242188 262.472656 203.535156 262.265625 204.789062 261.964844 C 205.96875 261.683594 212.078125 259.78125 213.164062 259.925781 C 213.164062 259.925781 215.878906 260.195312 215.878906 261.917969 C 215.878906 261.917969 212.140625 265.078125 210.085938 266.300781 C 210.085938 266.300781 201.84375 272.640625 179.015625 272.605469 " fill-opacity="1" fill-rule="nonzero"/><path fill="#f8a18f" d="M 148.726562 275.96875 C 148.726562 275.96875 149.046875 281.476562 150.902344 282.664062 C 150.902344 282.664062 163.214844 285.109375 185.847656 282.121094 C 196.089844 280.769531 207.160156 282.347656 217.4375 282.695312 C 228.316406 283.066406 239.417969 283.277344 250.171875 281.316406 C 258.628906 279.777344 265.535156 277.203125 269.367188 268.980469 C 272.308594 262.671875 273.144531 254.824219 265.730469 251.152344 C 250.324219 241.941406 214.828125 262.878906 214.816406 262.886719 C 205.113281 268.621094 190.78125 275.183594 179.8125 273.28125 C 172.089844 271.941406 149.046875 264.316406 148.726562 275.96875 " fill-opacity="1" fill-rule="nonzero"/><path fill="#172345" d="M 170.695312 265.34375 C 166.015625 265.34375 161.421875 264.03125 156.671875 262.671875 L 155.015625 262.203125 C 146.59375 259.828125 141.226562 257.785156 133.386719 254.703125 C 129.210938 253.058594 123.964844 251.605469 120.03125 250.996094 C 118.042969 250.6875 114 250.214844 111.929688 250.140625 C 111.609375 250.128906 111.289062 250.101562 110.9375 250.074219 C 109.542969 249.960938 107.628906 249.800781 103.171875 250.46875 C 102.875 250.515625 102.601562 250.308594 102.554688 250.011719 C 102.511719 249.714844 102.714844 249.4375 103.015625 249.394531 C 107.589844 248.710938 109.570312 248.875 111.023438 248.992188 C 111.359375 249.019531 111.664062 249.046875 111.972656 249.054688 C 114.078125 249.132812 118.183594 249.609375 120.195312 249.921875 C 124.265625 250.550781 129.476562 251.996094 133.785156 253.691406 C 141.597656 256.761719 146.9375 258.796875 155.308594 261.15625 L 156.96875 261.628906 C 165.421875 264.042969 172.71875 266.125 180.953125 261.621094 C 181.652344 261.238281 182.3125 260.832031 182.953125 260.4375 C 185.660156 258.777344 188.21875 257.203125 192.269531 258.300781 C 194.144531 258.804688 195.578125 259.640625 196.847656 260.375 C 198.980469 261.613281 200.824219 262.683594 204.179688 261.984375 C 204.878906 261.84375 205.855469 261.492188 206.890625 261.125 C 209.910156 260.046875 213.667969 258.707031 215.875 260.253906 C 216.121094 260.421875 216.179688 260.761719 216.007812 261.003906 C 215.835938 261.253906 215.496094 261.308594 215.253906 261.136719 C 213.507812 259.921875 209.894531 261.207031 207.253906 262.148438 C 206.136719 262.546875 205.171875 262.890625 204.398438 263.054688 C 200.632812 263.832031 198.53125 262.609375 196.300781 261.308594 C 195.03125 260.574219 193.71875 259.8125 191.988281 259.347656 C 188.386719 258.375 186.132812 259.757812 183.527344 261.363281 C 182.867188 261.765625 182.191406 262.179688 181.472656 262.574219 C 177.769531 264.597656 174.210938 265.34375 170.695312 265.34375 " fill-opacity="1" fill-rule="nonzero"/><path fill="#172345" d="M 173.515625 233.832031 C 163.683594 233.832031 154.457031 232.777344 148.621094 231.578125 C 148.324219 231.519531 148.136719 231.230469 148.199219 230.9375 C 148.257812 230.648438 148.546875 230.453125 148.839844 230.515625 C 159.261719 232.652344 180.597656 234.347656 196.664062 230.257812 C 196.949219 230.183594 197.25 230.359375 197.320312 230.648438 C 197.398438 230.941406 197.222656 231.238281 196.933594 231.3125 C 189.699219 233.148438 181.410156 233.832031 173.515625 233.832031 " fill-opacity="1" fill-rule="nonzero"/><path fill="#172345" d="M 149.925781 281.9375 C 149.660156 281.9375 149.429688 281.746094 149.386719 281.480469 C 148.96875 278.796875 148.972656 278.746094 149.15625 275.988281 L 149.242188 274.703125 C 149.335938 273.21875 149.972656 271.980469 151.132812 271.023438 C 153.269531 269.257812 157.035156 268.609375 161.742188 269.207031 C 163.601562 269.433594 166.042969 270.023438 168.632812 270.644531 C 172.257812 271.507812 176 272.40625 178.671875 272.484375 C 184.144531 272.644531 191.285156 272.566406 198.03125 270.523438 C 201.441406 269.496094 204.5625 267.753906 207.585938 266.070312 C 209.496094 265.003906 211.476562 263.90625 213.53125 262.972656 C 216.089844 261.8125 218.679688 260.433594 221.417969 258.96875 C 226.535156 256.242188 231.824219 253.417969 237.15625 252 C 237.445312 251.921875 237.742188 252.09375 237.816406 252.386719 C 237.898438 252.675781 237.722656 252.972656 237.433594 253.050781 C 232.222656 254.433594 226.992188 257.226562 221.929688 259.929688 C 219.175781 261.398438 216.574219 262.785156 213.980469 263.960938 C 211.960938 264.871094 210.007812 265.964844 208.113281 267.019531 C 205.042969 268.730469 201.871094 270.5 198.351562 271.566406 C 191.449219 273.65625 184.191406 273.734375 178.644531 273.570312 C 175.859375 273.488281 172.054688 272.578125 168.378906 271.699219 C 165.824219 271.082031 163.40625 270.507812 161.605469 270.28125 C 157.261719 269.734375 153.699219 270.304688 151.824219 271.859375 C 150.90625 272.617188 150.398438 273.601562 150.324219 274.773438 L 150.242188 276.066406 C 150.0625 278.75 150.0625 278.75 150.460938 281.3125 C 150.503906 281.613281 150.304688 281.886719 150.011719 281.933594 L 149.925781 281.9375 " fill-opacity="1" fill-rule="nonzero"/><path fill="#172345" d="M 152.738281 275.265625 C 151.109375 275.265625 149.753906 274.984375 149.671875 274.964844 C 149.378906 274.902344 149.191406 274.613281 149.253906 274.320312 C 149.316406 274.027344 149.605469 273.835938 149.898438 273.902344 C 149.925781 273.90625 152.675781 274.484375 154.878906 273.960938 C 155.171875 273.886719 155.464844 274.070312 155.535156 274.363281 C 155.601562 274.65625 155.425781 274.949219 155.132812 275.015625 C 154.34375 275.203125 153.507812 275.265625 152.738281 275.265625 " fill-opacity="1" fill-rule="nonzero"/><path fill="#172345" d="M 152.640625 278.152344 C 150.859375 278.152344 149.730469 277.914062 149.671875 277.898438 C 149.378906 277.839844 149.191406 277.550781 149.253906 277.257812 C 149.316406 276.964844 149.609375 276.777344 149.898438 276.839844 C 149.917969 276.84375 151.726562 277.214844 154.339844 276.988281 C 154.636719 276.964844 154.902344 277.179688 154.925781 277.480469 C 154.953125 277.785156 154.734375 278.046875 154.433594 278.070312 C 153.78125 278.128906 153.183594 278.152344 152.640625 278.152344 " fill-opacity="1" fill-rule="nonzero"/><path fill="#172345" d="M 153.058594 281.226562 C 151.5 281.226562 150.183594 280.871094 150.117188 280.851562 C 149.828125 280.773438 149.660156 280.472656 149.738281 280.1875 C 149.820312 279.894531 150.117188 279.722656 150.40625 279.804688 C 150.425781 279.8125 152.136719 280.277344 153.855469 280.101562 C 154.160156 280.078125 154.417969 280.292969 154.449219 280.59375 C 154.476562 280.890625 154.257812 281.15625 153.960938 281.183594 C 153.65625 281.214844 153.355469 281.226562 153.058594 281.226562 " fill-opacity="1" fill-rule="nonzero"/></svg>