<svg xmlns="http://www.w3.org/2000/svg" xmlns:xlink="http://www.w3.org/1999/xlink" width="500" zoomAndPan="magnify" viewBox="0 0 375 374.999991" height="500" preserveAspectRatio="xMidYMid meet" version="1.0"><defs><clipPath id="40cd1b0c95"><path d="M 58 329 L 309 329 L 309 359.523438 L 58 359.523438 Z M 58 329 " clip-rule="nonzero"/></clipPath></defs><g clip-path="url(#40cd1b0c95)"><path fill="#d7ea86" d="M 308.371094 344.492188 C 308.371094 352.796875 252.34375 359.53125 183.230469 359.53125 C 114.117188 359.53125 58.089844 352.796875 58.089844 344.492188 C 58.089844 336.183594 114.117188 329.449219 183.230469 329.449219 C 252.34375 329.449219 308.371094 336.183594 308.371094 344.492188 " fill-opacity="1" fill-rule="nonzero"/></g><path fill="#d7ea86" d="M 173.457031 332.234375 C 186.257812 328.207031 184.605469 323.757812 216.578125 312.082031 C 244.972656 301.714844 305.039062 329.699219 340.847656 246.863281 C 391.339844 130.070312 268.855469 15.273438 126.703125 57.773438 C 80.804688 71.492188 7.609375 113.863281 14.269531 212.695312 C 17.707031 263.738281 50.851562 309.496094 98.230469 326.660156 C 119.765625 334.460938 146.621094 340.6875 173.457031 332.234375 " fill-opacity="1" fill-rule="nonzero"/><path fill="#7ca417" d="M 308.339844 185.25 C 308.320312 185.359375 308.226562 185.464844 307.761719 185.636719 C 307.378906 185.785156 304.957031 186.640625 303.152344 185.25 C 302.839844 185.011719 302.511719 184.757812 302.550781 184.480469 C 302.632812 183.917969 304.1875 183.558594 305.492188 183.714844 C 306.960938 183.890625 308.429688 184.75 308.339844 185.25 Z M 319.871094 192.464844 C 318.589844 193.015625 315.925781 190.84375 315.332031 190.234375 C 313.351562 188.210938 311.777344 185.132812 310.21875 181.605469 C 307.171875 181.3125 305.4375 182.335938 302.875 182.589844 C 297.808594 183.082031 298.269531 181.050781 298.324219 180.894531 C 299.195312 178.417969 305.53125 177.53125 308.742188 178.15625 C 307.917969 176.203125 307.070312 174.175781 306.132812 172.160156 C 305.917969 171.6875 305.65625 171.226562 305.363281 170.769531 C 305.132812 170.730469 304.894531 170.695312 304.636719 170.675781 C 297.460938 170.105469 295.367188 172.773438 291.085938 174.148438 C 284.484375 176.269531 284.511719 173.429688 284.539062 173.203125 C 284.992188 169.558594 293.609375 166.480469 297.972656 166.546875 C 298.71875 166.558594 300.191406 166.585938 301.859375 166.960938 C 292.191406 159.089844 272.222656 157.042969 271.875 171.957031 C 271.796875 175.382812 268.40625 173.1875 264.902344 176.75 C 261.925781 179.773438 262.902344 184.769531 263.144531 186.367188 C 264.378906 194.425781 271.417969 202.175781 280.117188 204.957031 C 288.421875 207.613281 297.777344 205.597656 303.625 201.511719 C 305.660156 200.089844 311.285156 194.042969 313.960938 194.21875 C 317.203125 194.433594 319.058594 193.902344 320.101562 193.414062 C 320.96875 193.011719 320.777344 192.078125 319.871094 192.464844 " fill-opacity="1" fill-rule="nonzero"/><path fill="#7ca417" d="M 84.738281 235.078125 C 85.132812 233.167969 84.832031 232.769531 84.160156 231.183594 C 82.734375 227.816406 75.472656 227.296875 70.898438 220.972656 C 67.984375 216.949219 60.488281 219.503906 55.304688 215.976562 C 51.617188 213.46875 55.367188 211.402344 46.550781 207.753906 C 33.140625 202.214844 33.808594 194.132812 34.289062 193.855469 C 35.054688 193.417969 35.265625 195.785156 36.382812 196.839844 C 41.605469 201.769531 69.222656 187.398438 96.257812 200.203125 C 108.023438 205.777344 116.917969 214.5625 120.71875 226.648438 C 123.503906 235.503906 121.191406 240.527344 117.839844 240.15625 C 113.878906 239.71875 117.0625 241.851562 115.175781 245.601562 C 107.335938 261.191406 83.265625 242.21875 84.738281 235.078125 " fill-opacity="1" fill-rule="nonzero"/><path fill="#346e00" d="M 139.128906 100.539062 C 130.171875 109.910156 118.886719 110.195312 118.757812 109.824219 C 118.597656 109.367188 129.160156 107.542969 136.613281 97.878906 C 132.542969 93.988281 127.460938 90.9375 121.1875 89.199219 C 109.214844 85.882812 114.210938 83.921875 104.832031 78.628906 C 92.53125 71.691406 87.222656 70.332031 84.167969 70.699219 C 79.230469 71.289062 79.832031 67.296875 78.941406 67.886719 C 78.363281 68.265625 72.59375 76.9375 77.679688 84.652344 C 80.363281 88.722656 84.671875 88.054688 88.253906 93.964844 C 90.160156 97.117188 89.609375 98.871094 90.699219 102.667969 C 93.054688 110.863281 102.296875 111.421875 102.296875 118.191406 C 102.300781 158.34375 115.65625 163.398438 128.085938 165.96875 C 134.933594 167.386719 134.980469 161.257812 139.117188 162.902344 C 149.953125 167.214844 158.527344 123.191406 139.128906 100.539062 " fill-opacity="1" fill-rule="nonzero"/><path fill="#7ca417" d="M 133.398438 73.828125 C 144.234375 62.378906 148.289062 52.160156 155.988281 50.046875 C 160.222656 48.882812 160.039062 50.785156 163.722656 47.015625 C 165.414062 45.28125 166.605469 42.785156 167.222656 43.039062 C 167.800781 43.273438 166.683594 45.445312 167.292969 47.742188 C 168.242188 51.332031 172.484375 51.804688 175.5625 54.6875 C 177.855469 56.839844 178.648438 59.535156 179.074219 62.390625 C 172.007812 66.828125 158.699219 67.558594 160.621094 68.082031 C 162.597656 68.617188 173.082031 69.183594 179.734375 67.9375 C 181.371094 79.5 186.789062 82.007812 191.941406 95.019531 C 195.875 104.953125 195.371094 110.195312 197.253906 124.410156 C 202.984375 167.691406 215.15625 175.652344 208.292969 194.453125 C 207.527344 196.546875 197.125 213.601562 185.730469 215.40625 C 178.886719 216.488281 176.054688 211.363281 167 212.207031 C 158.160156 213.035156 156.246094 218.347656 147.453125 220.449219 C 147.453125 220.449219 141.5625 222.238281 128.761719 216.304688 C 96.445312 201.328125 105.382812 103.449219 133.398438 73.828125 " fill-opacity="1" fill-rule="nonzero"/><path fill="#234401" d="M 61.628906 157.097656 C 61.722656 152.203125 63.851562 149.9375 62.371094 145.695312 C 61.84375 144.179688 60.953125 142.703125 61.421875 142.292969 C 62.050781 141.746094 64.511719 143.648438 65.246094 144.160156 C 71.457031 148.53125 83.542969 144.832031 86.082031 144.171875 C 101.421875 140.183594 124.421875 154.542969 135.609375 164.28125 C 140.792969 168.792969 161.421875 186.75 159.636719 209.644531 C 159.570312 210.492188 160.605469 226.667969 149.578125 229.949219 C 142.585938 232.03125 138.292969 224.273438 130.761719 227.484375 C 125.820312 229.585938 124.199219 233.484375 119.46875 234.636719 C 113.171875 236.167969 106.4375 229.203125 104.890625 227.5 C 99.304688 221.351562 101.285156 217.695312 95.285156 206.121094 C 92.476562 200.703125 90.113281 196.152344 85.347656 191.433594 C 80.964844 187.105469 77.601562 185.648438 75.332031 183.394531 C 79.207031 184.027344 83.808594 183.105469 88.675781 180.660156 C 92.003906 178.988281 94.664062 176.101562 94.242188 175.746094 C 93.890625 175.445312 90.328125 178.546875 85.164062 178.941406 C 78.171875 179.46875 74.503906 177.800781 72.265625 176.382812 C 71.808594 172.066406 73.011719 168.261719 71.386719 167.601562 C 70.066406 167.066406 68.925781 169.445312 66.964844 169.144531 C 64.019531 168.695312 61.523438 162.574219 61.628906 157.097656 " fill-opacity="1" fill-rule="nonzero"/><path fill="#346e00" d="M 89.765625 263.988281 C 89.824219 264.082031 89.953125 264.148438 90.441406 264.140625 C 90.855469 264.132812 93.421875 264.039062 94.589844 262.085938 C 94.792969 261.75 95.007812 261.390625 94.867188 261.152344 C 94.585938 260.65625 93.007812 260.894531 91.851562 261.515625 C 90.546875 262.21875 89.496094 263.558594 89.765625 263.988281 Z M 81.691406 274.929688 C 83.085938 274.972656 84.761719 271.976562 85.09375 271.1875 C 86.191406 268.582031 86.523438 265.140625 86.675781 261.285156 C 89.402344 259.898438 91.390625 260.21875 93.871094 259.507812 C 98.761719 258.113281 97.589844 256.390625 97.480469 256.261719 C 95.761719 254.277344 89.539062 255.777344 86.78125 257.535156 C 86.828125 255.417969 86.875 253.222656 87.003906 251.003906 C 87.035156 250.484375 87.105469 249.960938 87.210938 249.429688 C 87.410156 249.308594 87.617188 249.1875 87.851562 249.070312 C 94.316406 245.910156 97.25 247.625 101.734375 247.335938 C 108.652344 246.886719 107.585938 244.253906 107.476562 244.054688 C 105.714844 240.828125 96.566406 241.128906 92.53125 242.792969 C 91.84375 243.074219 90.484375 243.640625 89.066406 244.601562 C 95.171875 233.730469 112.988281 224.503906 118.796875 238.253906 C 120.128906 241.40625 122.476562 238.121094 127.046875 240.152344 C 130.925781 241.871094 131.851562 246.878906 132.210938 248.453125 C 134.027344 256.402344 130.328125 266.191406 123.257812 271.96875 C 116.511719 277.484375 107.066406 279.042969 100.125 277.386719 C 97.710938 276.8125 90.257812 273.25 87.835938 274.394531 C 84.898438 275.78125 82.972656 275.96875 81.824219 275.898438 C 80.871094 275.839844 80.707031 274.898438 81.691406 274.929688 " fill-opacity="1" fill-rule="nonzero"/><path fill="#7ca417" d="M 207.863281 61.816406 C 209.085938 63.171875 207.503906 67.386719 207 68.382812 C 205.316406 71.691406 202.15625 74.941406 198.421875 78.355469 C 199.347656 82.261719 201.351562 83.976562 202.742188 87.050781 C 205.488281 93.128906 202.769531 93.410156 202.550781 93.40625 C 199.105469 93.375 195.332031 85.886719 194.761719 81.640625 C 192.675781 83.484375 190.519531 85.394531 188.402344 87.398438 C 187.910156 87.871094 187.445312 88.386719 187.003906 88.941406 C 187.046875 89.242188 187.105469 89.554688 187.1875 89.886719 C 189.5 99.027344 193.703125 100.5 197.210938 105.226562 C 202.628906 112.523438 199.089844 113.6875 198.796875 113.746094 C 194.074219 114.71875 186.617188 105.320312 184.863281 99.886719 C 184.566406 98.953125 183.980469 97.117188 183.738281 94.890625 C 178.03125 110.199219 183.890625 135.820312 202.578125 129.972656 C 206.867188 128.628906 205.566406 133.757812 211.472656 136.609375 C 216.484375 139.027344 222.285156 135.707031 224.164062 134.734375 C 233.664062 129.808594 240.332031 117.820312 240.128906 105.859375 C 239.933594 94.441406 233.488281 83.683594 225.949219 78.152344 C 223.324219 76.226562 213.441406 71.796875 212.535156 68.40625 C 211.433594 64.292969 209.988281 62.214844 208.945312 61.125 C 208.082031 60.222656 206.996094 60.855469 207.863281 61.816406 " fill-opacity="1" fill-rule="nonzero"/><path fill="#346e00" d="M 220.808594 157.136719 C 218.0625 154.992188 214.132812 159.503906 208.511719 157.164062 C 203.078125 154.90625 197.949219 147.515625 199.742188 142.265625 C 202.792969 133.3125 201.410156 125.003906 203.839844 119.628906 C 207.746094 110.964844 217.652344 104.6875 242.238281 97.03125 C 244.945312 96.1875 247.363281 95.4375 249.546875 94.792969 C 248.335938 96.523438 247.175781 98.480469 246.199219 100.644531 C 245.65625 101.859375 243.476562 106.894531 243.96875 113.269531 C 244.136719 115.476562 244.46875 119.8125 247.15625 121.027344 C 247.367188 121.121094 248.335938 121.347656 249.402344 120.855469 C 251.421875 119.925781 251.484375 116.378906 251.492188 110.179688 C 251.507812 100.082031 251.992188 96.09375 252.636719 93.902344 C 258.800781 92.199219 262.867188 91.582031 266.367188 92.414062 C 271.53125 93.640625 278.621094 96.757812 282.386719 93.847656 C 284.5625 92.167969 283.5625 89.714844 284.527344 89.730469 C 286.503906 89.75 286.558594 100.972656 289.679688 113.4375 C 294.484375 132.621094 294.003906 131.136719 293.785156 136.277344 C 293.746094 137.171875 293.675781 138.046875 293.574219 138.90625 C 273.511719 148.773438 260.054688 143.875 255.273438 144.96875 C 254.410156 145.164062 251.230469 145.894531 251.132812 147.160156 C 250.992188 148.980469 257.273438 150.839844 258.617188 151.242188 C 266.757812 153.652344 281.59375 155.078125 290.84375 149.035156 C 287.550781 156.8125 282.03125 163.257812 276.957031 169.183594 C 268.433594 179.132812 260.636719 188.238281 248.054688 189.625 C 240.421875 190.46875 230.148438 187.609375 225.09375 181.890625 C 217.71875 173.546875 227.445312 162.308594 220.808594 157.136719 " fill-opacity="1" fill-rule="nonzero"/><path fill="#7ca417" d="M 281.621094 97.40625 C 280.386719 99.734375 278.816406 101.851562 277.1875 103.910156 C 275.550781 105.964844 273.8125 107.9375 272.039062 109.871094 C 268.46875 113.730469 264.734375 117.429688 260.929688 121.050781 C 253.308594 128.289062 245.410156 135.230469 237.425781 142.066406 C 233.429688 145.484375 229.410156 148.867188 225.375 152.246094 L 219.324219 157.3125 C 218.316406 158.164062 217.308594 159.011719 216.308594 159.886719 C 215.804688 160.320312 215.304688 160.800781 214.8125 161.261719 C 214.332031 161.75 213.84375 162.226562 213.394531 162.746094 C 212.476562 163.761719 211.625 164.847656 210.871094 165.988281 C 210.105469 167.128906 209.417969 168.316406 208.820312 169.539062 C 207.589844 171.972656 206.679688 174.515625 205.855469 177.058594 C 205.457031 178.335938 205.078125 179.59375 204.726562 180.898438 C 204.371094 182.234375 204.113281 183.5625 203.886719 184.882812 C 203.4375 187.527344 203.113281 190.152344 202.808594 192.777344 C 202.203125 198.019531 201.679688 203.238281 201.050781 208.441406 C 200.421875 213.640625 199.710938 218.824219 198.839844 223.96875 C 197.082031 234.253906 194.710938 244.421875 191.242188 254.183594 C 187.78125 263.933594 183.222656 273.289062 177.226562 281.597656 C 171.253906 289.910156 163.800781 297.085938 155.21875 302.542969 L 158.265625 307.203125 C 160.519531 305.679688 162.71875 304.074219 164.824219 302.355469 C 166.921875 300.621094 168.949219 298.8125 170.875 296.898438 C 172.792969 294.976562 174.628906 292.980469 176.363281 290.902344 C 178.089844 288.8125 179.722656 286.660156 181.265625 284.445312 C 187.414062 275.546875 191.957031 265.703125 195.324219 255.585938 C 198.699219 245.449219 200.90625 235.011719 202.476562 224.546875 C 203.257812 219.3125 203.875 214.058594 204.402344 208.808594 C 204.929688 203.5625 205.355469 198.308594 205.851562 193.097656 C 206.101562 190.492188 206.371094 187.894531 206.75 185.34375 C 206.941406 184.070312 207.164062 182.808594 207.460938 181.597656 C 207.765625 180.359375 208.109375 179.089844 208.46875 177.851562 C 209.203125 175.378906 210.019531 172.933594 211.105469 170.648438 C 211.640625 169.492188 212.25 168.386719 212.921875 167.328125 C 213.589844 166.261719 214.34375 165.253906 215.167969 164.296875 C 215.570312 163.808594 216.011719 163.359375 216.441406 162.898438 C 216.898438 162.453125 217.339844 162.007812 217.820312 161.570312 C 218.777344 160.691406 219.757812 159.816406 220.742188 158.949219 L 226.660156 153.734375 C 230.609375 150.261719 234.550781 146.769531 238.464844 143.25 C 246.289062 136.203125 254.023438 129.054688 261.476562 121.613281 C 265.199219 117.890625 268.851562 114.089844 272.328125 110.132812 C 274.058594 108.148438 275.753906 106.132812 277.34375 104.03125 C 278.925781 101.929688 280.441406 99.761719 281.621094 97.40625 " fill-opacity="1" fill-rule="nonzero"/><path fill="#234401" d="M 223.59375 252.195312 C 225.710938 237.027344 232.589844 226.222656 232.980469 223.703125 C 233.011719 223.515625 233.269531 221.730469 232.390625 221.175781 C 231.511719 220.625 229.921875 221.484375 229.394531 222.003906 C 217.148438 234.042969 223.339844 253.578125 220.234375 264.363281 C 220.03125 264.085938 219.824219 263.800781 219.597656 263.503906 C 215.164062 257.664062 199.742188 240.582031 201.769531 218.410156 C 202.050781 215.382812 203.667969 206.652344 209.976562 203.386719 C 218.320312 199.066406 223.046875 199.660156 232.984375 203.792969 C 237.085938 205.5 233.140625 196.40625 236.496094 188.800781 C 236.816406 188.074219 240.816406 179.347656 249.785156 176.023438 C 264.035156 170.742188 277.910156 183.878906 278.488281 184.441406 C 282.078125 187.941406 284 191.617188 286.625 196.640625 C 288.835938 200.867188 291.453125 205.976562 292.421875 212.921875 C 293.367188 219.730469 291.449219 219.125 292.621094 225.402344 C 293.835938 231.902344 296.410156 235.292969 294.804688 240.273438 C 294.613281 240.871094 294.410156 241.335938 294.238281 241.769531 C 291.484375 239.3125 287.824219 236.730469 283.785156 235.007812 C 282.039062 234.261719 277.246094 232.21875 275.667969 233.953125 C 275.152344 234.519531 275.0625 235.402344 275.21875 236.078125 C 275.796875 238.574219 280.035156 239.492188 282.410156 240.140625 C 287.792969 241.609375 291.765625 243.902344 294.511719 245.738281 C 295.847656 247.761719 298.859375 248.425781 300.296875 251.210938 C 303.574219 257.527344 295.382812 268.230469 294.449219 269.425781 C 292.234375 272.261719 291.558594 272.046875 290.230469 274.453125 C 287.902344 278.671875 288.332031 282.292969 285.140625 284.402344 C 284.417969 284.882812 282.871094 285.882812 283.167969 285.214844 C 283.546875 284.363281 283.589844 279.132812 279.945312 276.222656 C 276.660156 273.601562 256.347656 280.996094 237.675781 275.480469 C 236.792969 270.09375 235.382812 260.964844 237.589844 249.441406 C 238.359375 245.410156 240.09375 238.394531 236.777344 235.695312 C 235.878906 234.96875 234.492188 234.449219 233.257812 234.808594 C 229.503906 235.894531 229.050781 244.574219 228.882812 247.734375 C 228.367188 257.542969 230.683594 267.476562 233.175781 273.875 C 229.355469 272.253906 225.671875 269.992188 222.296875 266.871094 C 221.957031 266.558594 221.652344 266.214844 221.351562 265.847656 C 221.964844 262.972656 222.6875 258.652344 223.59375 252.195312 " fill-opacity="1" fill-rule="nonzero"/><path fill="#7ca417" d="M 123.421875 116.289062 C 124.839844 117.117188 126.261719 117.878906 127.605469 118.757812 C 128.292969 119.175781 128.933594 119.65625 129.589844 120.117188 C 130.230469 120.601562 130.859375 121.101562 131.480469 121.609375 C 132.078125 122.148438 132.695312 122.664062 133.273438 123.21875 L 134.992188 124.910156 L 136.632812 126.683594 C 137.183594 127.269531 137.683594 127.902344 138.210938 128.511719 C 142.304688 133.484375 145.636719 139.054688 148.582031 144.789062 C 150.039062 147.671875 151.390625 150.609375 152.667969 153.574219 C 153.941406 156.542969 155.117188 159.554688 156.246094 162.585938 C 158.472656 168.65625 160.457031 174.816406 162.226562 181.039062 C 164.007812 187.257812 165.59375 193.535156 167.027344 199.847656 C 168.464844 206.160156 169.761719 212.503906 170.925781 218.871094 C 175.566406 244.355469 178.398438 270.152344 179.914062 295.992188 C 180.367188 303.949219 180.699219 311.914062 180.894531 319.878906 L 185.976562 319.878906 C 185.621094 311.804688 185.128906 303.738281 184.507812 295.683594 C 182.472656 269.707031 179.113281 243.828125 173.941406 218.289062 C 172.644531 211.90625 171.210938 205.550781 169.644531 199.226562 C 168.074219 192.902344 166.351562 186.617188 164.4375 180.386719 C 162.53125 174.152344 160.40625 167.984375 158.042969 161.902344 C 156.839844 158.871094 155.597656 155.855469 154.25 152.878906 C 152.898438 149.910156 151.472656 146.96875 149.945312 144.082031 C 146.847656 138.335938 143.363281 132.753906 139.089844 127.769531 C 138.542969 127.160156 138.019531 126.527344 137.449219 125.941406 L 135.746094 124.167969 L 133.957031 122.480469 C 133.355469 121.921875 132.710938 121.40625 132.089844 120.871094 C 131.445312 120.359375 130.789062 119.867188 130.125 119.378906 C 129.445312 118.921875 128.777344 118.441406 128.066406 118.023438 C 126.671875 117.152344 125.210938 116.410156 123.808594 115.625 C 122.402344 114.839844 121.085938 113.941406 119.984375 112.796875 C 118.878906 111.660156 117.925781 110.359375 117.132812 108.957031 C 116.722656 108.273438 116.320312 107.5625 115.917969 106.851562 C 115.496094 106.148438 115.066406 105.453125 114.597656 104.78125 C 113.671875 103.433594 112.636719 102.15625 111.476562 100.996094 C 110.3125 99.84375 109.015625 98.824219 107.625 97.96875 C 106.234375 97.105469 104.753906 96.414062 103.273438 95.742188 C 101.800781 95.0625 100.320312 94.375 99.023438 93.40625 C 98.371094 92.925781 97.769531 92.382812 97.230469 91.773438 C 96.699219 91.160156 96.234375 90.492188 95.820312 89.792969 C 96.222656 90.5 96.671875 91.179688 97.191406 91.804688 C 97.722656 92.425781 98.316406 92.988281 98.964844 93.484375 C 100.253906 94.488281 101.734375 95.207031 103.195312 95.914062 C 104.65625 96.617188 106.113281 97.332031 107.472656 98.210938 C 108.828125 99.082031 110.082031 100.113281 111.203125 101.265625 C 112.324219 102.425781 113.3125 103.703125 114.199219 105.046875 C 114.648438 105.71875 115.058594 106.414062 115.460938 107.113281 C 115.839844 107.824219 116.226562 108.53125 116.632812 109.246094 C 117.414062 110.6875 118.367188 112.050781 119.5 113.265625 C 120.632812 114.484375 122.007812 115.464844 123.421875 116.289062 " fill-opacity="1" fill-rule="nonzero"/><path fill="#234401" d="M 129.238281 204 L 129.972656 205.882812 L 130.664062 207.785156 C 132.445312 212.875 133.769531 218.121094 134.652344 223.4375 C 135.523438 228.75 135.964844 234.136719 135.992188 239.519531 C 136.011719 242.210938 135.925781 244.90625 135.757812 247.59375 C 135.671875 248.941406 135.566406 250.285156 135.453125 251.644531 C 135.335938 253 135.246094 254.386719 135.160156 255.757812 C 134.847656 261.265625 134.882812 266.785156 135.199219 272.289062 C 135.527344 277.789062 136.148438 283.269531 137.003906 288.710938 C 138.71875 299.597656 141.421875 310.300781 144.769531 320.777344 C 145.726562 323.761719 146.742188 326.722656 147.796875 329.667969 L 152.96875 329.667969 C 151.625 326.246094 150.339844 322.804688 149.132812 319.328125 C 145.601562 309.121094 142.707031 298.683594 140.777344 288.074219 C 139.8125 282.765625 139.078125 277.417969 138.632812 272.046875 C 138.199219 266.675781 138.035156 261.28125 138.214844 255.898438 C 138.265625 254.546875 138.320312 253.210938 138.40625 251.851562 C 138.488281 250.492188 138.5625 249.117188 138.617188 247.742188 C 138.722656 244.988281 138.746094 242.226562 138.664062 239.472656 C 138.503906 233.957031 137.921875 228.457031 136.898438 223.039062 C 135.871094 217.621094 134.390625 212.289062 132.445312 207.136719 L 131.695312 205.210938 L 130.898438 203.304688 C 130.363281 202.050781 129.8125 200.792969 129.242188 199.546875 C 128.101562 197.050781 126.871094 194.589844 125.539062 192.191406 C 122.871094 187.386719 119.792969 182.804688 116.246094 178.601562 C 112.710938 174.402344 108.703125 170.585938 104.269531 167.351562 C 102.050781 165.738281 99.730469 164.265625 97.320312 162.960938 L 95.492188 162.023438 C 94.882812 161.710938 94.253906 161.433594 93.640625 161.136719 C 92.386719 160.578125 91.132812 160.035156 89.851562 159.554688 C 84.742188 157.597656 79.390625 156.300781 73.972656 155.644531 C 79.375 156.429688 84.679688 157.84375 89.710938 159.910156 C 90.972656 160.414062 92.210938 160.984375 93.4375 161.5625 C 94.042969 161.871094 94.65625 162.164062 95.253906 162.484375 L 97.042969 163.460938 C 99.398438 164.804688 101.660156 166.316406 103.8125 167.960938 C 108.121094 171.253906 111.980469 175.105469 115.367188 179.324219 C 118.761719 183.542969 121.6875 188.121094 124.203125 192.910156 C 125.460938 195.304688 126.613281 197.75 127.683594 200.238281 C 128.214844 201.480469 128.730469 202.734375 129.238281 204 " fill-opacity="1" fill-rule="nonzero"/><path fill="#346e00" d="M 150.125 296.355469 C 154.296875 305.644531 157.957031 315.160156 161.242188 324.800781 C 161.792969 326.417969 162.332031 328.042969 162.863281 329.667969 L 165.988281 329.667969 C 165.328125 327.722656 164.652344 325.785156 163.960938 323.855469 C 160.5 314.191406 156.65625 304.660156 152.304688 295.359375 C 147.957031 286.058594 143.074219 276.992188 137.535156 268.335938 C 131.996094 259.683594 125.78125 251.441406 118.765625 243.925781 C 111.742188 236.425781 103.894531 229.667969 95.269531 224.078125 C 86.65625 218.480469 77.265625 214.074219 67.4375 211.136719 C 66.203125 210.785156 64.972656 210.421875 63.738281 210.085938 L 60.03125 209.097656 C 57.5625 208.425781 55.109375 207.71875 52.691406 206.890625 C 50.273438 206.066406 47.894531 205.117188 45.625 203.949219 C 43.355469 202.78125 41.195312 201.367188 39.339844 199.601562 C 41.167969 201.398438 43.3125 202.847656 45.566406 204.050781 C 47.828125 205.261719 50.199219 206.25 52.609375 207.117188 C 55.023438 207.984375 57.472656 208.730469 59.933594 209.441406 L 63.628906 210.488281 C 64.855469 210.847656 66.074219 211.222656 67.296875 211.59375 C 77.035156 214.671875 86.289062 219.195312 94.742188 224.875 C 103.207031 230.554688 110.871094 237.367188 117.707031 244.898438 C 124.539062 252.449219 130.558594 260.699219 135.914062 269.355469 C 141.261719 278.015625 145.957031 287.066406 150.125 296.355469 " fill-opacity="1" fill-rule="nonzero"/><path fill="#346e00" d="M 154.753906 113.8125 C 154.988281 120.773438 155.308594 127.730469 155.65625 134.683594 C 157.085938 162.5 159.058594 190.285156 161.355469 218.042969 C 163.671875 245.800781 166.347656 273.535156 169.632812 301.21875 C 170.761719 310.710938 171.96875 320.191406 173.28125 329.667969 L 178.476562 329.667969 C 176.953125 320.011719 175.539062 310.328125 174.203125 300.632812 C 170.421875 273.085938 167.238281 245.441406 164.414062 217.761719 C 161.609375 190.078125 159.128906 162.351562 157.191406 134.59375 C 156.714844 127.652344 156.265625 120.710938 155.902344 113.765625 L 155.648438 108.554688 L 155.449219 103.347656 C 155.402344 101.621094 155.414062 99.894531 155.574219 98.191406 C 155.734375 96.480469 156.125 94.835938 156.644531 93.167969 C 156.898438 92.335938 157.128906 91.480469 157.320312 90.621094 C 157.503906 89.757812 157.648438 88.886719 157.75 88.015625 C 157.972656 86.269531 158.007812 84.515625 158.042969 82.769531 C 158.078125 79.285156 158.023438 75.8125 158.21875 72.34375 C 158.410156 68.878906 158.882812 65.421875 159.867188 62.089844 C 160.847656 58.757812 162.359375 55.585938 164.300781 52.699219 C 162.304688 55.550781 160.730469 58.703125 159.683594 62.035156 C 158.632812 65.363281 158.09375 68.839844 157.835938 72.316406 C 157.574219 75.800781 157.5625 79.285156 157.46875 82.761719 C 157.402344 84.492188 157.332031 86.226562 157.085938 87.929688 C 156.964844 88.78125 156.8125 89.625 156.621094 90.460938 C 156.414062 91.296875 156.175781 92.117188 155.910156 92.945312 C 155.359375 94.59375 154.910156 96.339844 154.714844 98.09375 C 154.515625 99.855469 154.472656 101.613281 154.488281 103.363281 L 154.59375 108.589844 L 154.753906 113.8125 " fill-opacity="1" fill-rule="nonzero"/><path fill="#346e00" d="M 125.09375 214.941406 C 125.347656 215.183594 129.574219 212.183594 138.015625 206.164062 C 139.34375 205.21875 140.734375 204.214844 140.519531 203.671875 C 140.21875 202.902344 136.710938 203.269531 134.070312 204.316406 C 127.800781 206.796875 124.136719 214.007812 125.09375 214.941406 Z M 117.449219 214.949219 C 121.449219 205.085938 129.523438 198.207031 137.886719 195.574219 C 140.085938 194.882812 143.863281 193.75 146.6875 195.597656 C 151.109375 198.492188 149.835938 206.523438 151.59375 206.757812 C 153.792969 207.050781 154.445312 195.050781 161.292969 192.074219 C 166.355469 189.867188 173.453125 192.132812 177.378906 196.023438 C 187.355469 205.894531 185.128906 225 179.636719 236.976562 C 176.421875 243.984375 166.757812 260.167969 154.457031 263.066406 C 151.996094 263.648438 143.347656 265.128906 141.128906 270.753906 C 140.652344 271.960938 140.710938 272.753906 140.050781 273.109375 C 137.210938 274.625 127.527344 264.644531 122.066406 254.625 C 119.597656 250.085938 110.195312 232.828125 117.449219 214.949219 " fill-opacity="1" fill-rule="nonzero"/><path fill="#346e00" d="M 158.179688 310.90625 C 158.992188 310.210938 159.996094 309.460938 160.988281 308.703125 C 161.992188 307.949219 163.011719 307.175781 164.027344 306.378906 C 166.058594 304.792969 168.058594 303.117188 169.976562 301.339844 C 173.8125 297.785156 177.3125 293.796875 180.242188 289.410156 C 183.175781 285.027344 185.523438 280.246094 187.207031 275.265625 C 188.902344 270.285156 189.914062 265.109375 190.371094 259.917969 C 190.480469 258.621094 190.566406 257.324219 190.605469 256.027344 L 190.703125 252.257812 C 190.78125 249.785156 190.914062 247.316406 191.121094 244.859375 C 191.53125 239.941406 192.222656 235.058594 193.34375 230.296875 C 194.472656 225.542969 196.039062 220.898438 198.308594 216.65625 C 200.570312 212.425781 203.550781 208.101562 207.390625 205.335938 C 209.300781 203.949219 211.433594 203.332031 213.660156 202.511719 C 214.773438 202.097656 215.914062 201.753906 217.078125 201.488281 C 217.671875 201.351562 218.226562 201.242188 218.796875 201.160156 C 219.367188 201.078125 219.945312 201.027344 220.53125 201.003906 C 222.859375 200.902344 225.242188 201.234375 227.5625 201.851562 C 229.890625 202.460938 232.160156 203.363281 234.359375 204.433594 C 238.746094 206.601562 242.832031 209.449219 246.601562 212.667969 C 250.378906 215.882812 253.851562 219.476562 257.058594 223.292969 C 263.472656 230.9375 268.84375 239.46875 273.3125 248.441406 C 277.785156 257.414062 281.367188 266.839844 284.15625 276.496094 C 281.640625 266.765625 278.324219 257.21875 274.085938 248.070312 C 269.847656 238.925781 264.683594 230.164062 258.390625 222.210938 C 255.238281 218.238281 251.804688 214.476562 248.015625 211.058594 C 244.234375 207.640625 240.097656 204.5625 235.523438 202.144531 C 233.234375 200.945312 230.835938 199.910156 228.3125 199.171875 C 225.796875 198.425781 223.152344 197.96875 220.449219 198.007812 C 219.773438 198.015625 219.09375 198.058594 218.417969 198.132812 C 217.742188 198.207031 217.058594 198.324219 216.421875 198.453125 C 215.125 198.710938 213.84375 199.058594 212.585938 199.484375 C 210.070312 200.332031 207.652344 201.53125 205.449219 203.035156 C 201.011719 206.042969 197.53125 210.242188 194.933594 214.785156 C 192.324219 219.347656 190.519531 224.265625 189.1875 229.25 C 187.863281 234.242188 186.996094 239.3125 186.429688 244.398438 C 186.140625 246.941406 185.925781 249.488281 185.777344 252.035156 C 185.695312 253.296875 185.648438 254.617188 185.582031 255.800781 C 185.519531 257.015625 185.414062 258.222656 185.289062 259.425781 C 184.761719 264.238281 183.726562 268.972656 182.085938 273.480469 C 180.457031 277.988281 178.242188 282.265625 175.5 286.183594 C 172.761719 290.105469 169.511719 293.664062 165.902344 296.871094 C 164.097656 298.472656 162.207031 299.988281 160.246094 301.457031 C 159.265625 302.195312 158.265625 302.917969 157.246094 303.65625 C 156.222656 304.402344 155.191406 305.128906 154.070312 306.046875 C 152.710938 307.160156 152.511719 309.160156 153.621094 310.523438 C 154.738281 311.878906 156.742188 312.082031 158.105469 310.96875 C 158.121094 310.957031 158.132812 310.945312 158.148438 310.933594 L 158.179688 310.90625 " fill-opacity="1" fill-rule="nonzero"/><path fill="#290708" d="M 181.59375 70.949219 C 193.464844 68.773438 205.511719 71.492188 211.539062 100.71875 C 213.789062 111.640625 225.617188 128.074219 228.5625 134.140625 C 234.035156 145.417969 232.28125 156.308594 226.859375 166.34375 C 219.179688 180.554688 204.792969 188.660156 189.351562 186.304688 C 162.859375 182.257812 149.402344 141.335938 147.898438 132.445312 C 145.039062 115.488281 148.414062 91.234375 166.25 76.394531 C 171.550781 71.984375 179.445312 71.34375 181.59375 70.949219 " fill-opacity="1" fill-rule="nonzero"/><path fill="#290708" d="M 181.949219 71.59375 C 184.351562 70.929688 186.839844 70.457031 189.382812 70.460938 C 191.921875 70.441406 194.519531 70.925781 196.894531 71.992188 C 197.5 72.242188 198.058594 72.570312 198.632812 72.882812 C 199.179688 73.234375 199.742188 73.570312 200.253906 73.972656 C 200.792969 74.34375 201.273438 74.777344 201.773438 75.195312 C 202.015625 75.414062 202.246094 75.640625 202.480469 75.863281 C 202.71875 76.085938 202.953125 76.3125 203.167969 76.554688 C 204.957031 78.4375 206.417969 80.582031 207.679688 82.804688 C 208.945312 85.035156 209.996094 87.363281 210.886719 89.734375 C 211.78125 92.105469 212.578125 94.511719 213.25 96.941406 C 213.429688 97.550781 213.585938 98.160156 213.742188 98.769531 L 213.972656 99.683594 C 214.050781 99.992188 214.125 100.300781 214.207031 100.574219 L 214.699219 102.265625 L 215.3125 103.945312 C 216.195312 106.175781 217.210938 108.386719 218.371094 110.542969 C 219.507812 112.707031 220.71875 114.847656 221.996094 116.957031 C 223.246094 119.082031 224.5625 121.175781 225.875 123.285156 C 227.1875 125.390625 228.53125 127.480469 229.820312 129.644531 C 230.464844 130.71875 231.101562 131.824219 231.695312 132.988281 L 232.488281 134.75 C 232.625 135.042969 232.742188 135.34375 232.851562 135.644531 L 233.1875 136.550781 C 234.058594 138.976562 234.683594 141.492188 234.953125 144.050781 C 235.230469 146.609375 235.164062 149.1875 234.808594 151.707031 C 234.0625 156.753906 232.195312 161.519531 229.648438 165.800781 C 231.578125 161.210938 232.996094 156.414062 233.289062 151.550781 C 233.652344 146.695312 232.769531 141.847656 230.925781 137.425781 L 230.570312 136.601562 C 230.457031 136.324219 230.335938 136.050781 230.191406 135.785156 L 229.378906 134.183594 C 228.796875 133.15625 228.160156 132.117188 227.488281 131.085938 L 223.394531 124.871094 C 220.660156 120.699219 217.976562 116.457031 215.617188 111.980469 L 214.75 110.292969 C 214.472656 109.722656 214.207031 109.144531 213.9375 108.570312 C 213.804688 108.277344 213.664062 107.992188 213.535156 107.703125 L 212.792969 105.929688 C 212.667969 105.636719 212.546875 105.335938 212.445312 105.027344 L 211.808594 103.195312 L 211.285156 101.296875 C 211.195312 100.972656 211.128906 100.679688 211.054688 100.378906 L 210.84375 99.484375 C 210.699219 98.890625 210.570312 98.285156 210.414062 97.695312 C 209.222656 92.945312 207.6875 88.28125 205.550781 83.941406 C 204.464844 81.78125 203.171875 79.746094 201.65625 77.902344 C 201.46875 77.667969 201.273438 77.445312 201.070312 77.230469 C 200.867188 77.011719 200.667969 76.785156 200.464844 76.574219 C 200.03125 76.167969 199.617188 75.734375 199.15625 75.367188 C 198.710938 74.96875 198.222656 74.632812 197.746094 74.277344 C 197.246094 73.957031 196.75 73.628906 196.222656 73.355469 C 195.179688 72.785156 194.074219 72.308594 192.917969 71.980469 C 191.757812 71.648438 190.5625 71.441406 189.34375 71.316406 C 188.128906 71.1875 186.898438 71.175781 185.660156 71.242188 C 184.425781 71.292969 183.1875 71.429688 181.949219 71.59375 " fill-opacity="1" fill-rule="nonzero"/><path fill="#ec7d40" d="M 215.835938 207.941406 C 216.933594 203.9375 218.089844 199.730469 220.5 194.355469 C 223.683594 187.25 225.027344 187.105469 225.941406 183.097656 C 227.183594 177.640625 226.472656 167.789062 222.054688 162.523438 C 218.375 158.136719 207.09375 158.058594 198.347656 152.816406 C 196.695312 151.828125 194.929688 150.464844 193.296875 148.160156 C 189.539062 142.859375 190.414062 136.515625 190.574219 134.964844 C 190.949219 131.367188 191.980469 130.753906 191.355469 129.140625 C 190.097656 125.902344 184.238281 123.855469 179.667969 124.695312 C 175.097656 123.855469 169.238281 125.902344 167.984375 129.140625 C 167.355469 130.753906 168.382812 131.367188 168.761719 134.964844 C 168.921875 136.515625 169.792969 142.859375 166.039062 148.160156 C 164.40625 150.464844 162.636719 151.828125 160.988281 152.816406 C 152.242188 158.058594 140.960938 158.136719 137.28125 162.523438 C 132.863281 167.789062 132.148438 177.640625 133.394531 183.097656 C 134.308594 187.105469 135.652344 187.25 138.835938 194.355469 C 141.246094 199.730469 142.398438 203.9375 143.5 207.941406 C 145.152344 213.96875 147.429688 221.746094 148.164062 232.007812 C 148.550781 237.445312 148.941406 242.105469 145.441406 253.359375 C 140.125 270.46875 136.945312 282.054688 138.253906 288.492188 C 139.320312 293.757812 143.355469 297.042969 145.246094 298.585938 C 154.304688 305.960938 169.136719 307.941406 179.667969 302.511719 C 190.199219 307.941406 205.027344 305.960938 214.089844 298.585938 C 215.980469 297.042969 220.015625 293.757812 221.082031 288.492188 C 222.386719 282.054688 219.207031 270.46875 213.894531 253.359375 C 210.394531 242.105469 210.785156 237.445312 211.171875 232.007812 C 211.90625 221.746094 214.179688 213.96875 215.835938 207.941406 " fill-opacity="1" fill-rule="nonzero"/><path fill="#290708" d="M 157.175781 161.613281 C 154.714844 157.742188 152.617188 153.625 150.824219 149.382812 C 149.054688 145.128906 147.550781 140.746094 146.503906 136.21875 C 146.386719 135.648438 146.253906 135.082031 146.144531 134.511719 C 146.039062 133.9375 145.921875 133.363281 145.832031 132.792969 C 145.636719 131.648438 145.480469 130.5 145.34375 129.347656 C 145.066406 127.039062 144.910156 124.722656 144.851562 122.398438 C 144.789062 120.074219 144.851562 117.75 145.015625 115.429688 C 145.1875 113.105469 145.476562 110.789062 145.878906 108.492188 C 146.289062 106.199219 146.832031 103.925781 147.496094 101.6875 C 148.167969 99.449219 148.976562 97.25 149.921875 95.109375 C 151.820312 90.835938 154.296875 86.804688 157.316406 83.234375 C 158.066406 82.339844 158.859375 81.484375 159.675781 80.648438 C 160.492188 79.816406 161.335938 79.011719 162.21875 78.25 C 162.4375 78.058594 162.660156 77.867188 162.882812 77.679688 C 163.105469 77.496094 163.328125 77.304688 163.554688 77.125 L 164.238281 76.582031 C 164.476562 76.402344 164.707031 76.21875 164.953125 76.050781 C 165.914062 75.359375 166.929688 74.753906 167.984375 74.230469 C 170.097656 73.199219 172.34375 72.460938 174.648438 72.105469 C 175.800781 71.933594 176.964844 71.84375 178.125 71.890625 C 179.28125 71.945312 180.445312 72.109375 181.519531 72.523438 C 180.40625 72.246094 179.257812 72.191406 178.128906 72.257812 C 176.996094 72.316406 175.875 72.503906 174.777344 72.769531 C 172.585938 73.304688 170.480469 74.15625 168.550781 75.285156 C 167.585938 75.84375 166.660156 76.46875 165.800781 77.164062 C 165.582031 77.335938 165.371094 77.519531 165.164062 77.699219 L 164.535156 78.261719 C 164.324219 78.449219 164.121094 78.644531 163.914062 78.839844 C 163.707031 79.03125 163.503906 79.222656 163.304688 79.425781 C 161.6875 80.996094 160.1875 82.675781 158.804688 84.445312 C 156.046875 87.988281 153.78125 91.894531 152.046875 96.027344 C 151.175781 98.09375 150.421875 100.207031 149.804688 102.363281 C 149.175781 104.519531 148.667969 106.710938 148.277344 108.921875 C 147.875 111.132812 147.59375 113.367188 147.410156 115.609375 C 147.214844 117.855469 147.144531 120.109375 147.152344 122.367188 C 147.164062 124.621094 147.277344 126.875 147.472656 129.125 C 147.570312 130.25 147.699219 131.371094 147.84375 132.492188 C 147.910156 133.054688 148.003906 133.609375 148.082031 134.164062 C 148.167969 134.722656 148.277344 135.273438 148.371094 135.828125 C 149.21875 140.265625 150.4375 144.660156 151.933594 148.957031 C 153.398438 153.273438 155.183594 157.480469 157.175781 161.613281 " fill-opacity="1" fill-rule="nonzero"/><path fill="#f79556" d="M 200.34375 89.617188 C 200.34375 89.617188 202.492188 98.824219 202.132812 109.722656 C 202.09375 110.949219 201.148438 118.09375 200.507812 120.457031 C 199.027344 125.929688 194.886719 136.71875 186.996094 140.789062 C 186.527344 141.03125 181.15625 144.210938 174.273438 141.011719 C 171.703125 139.8125 166.875 135.746094 163.109375 129.28125 C 159.054688 122.316406 158.082031 113.769531 158.195312 109.03125 C 158.339844 103.0625 158.050781 99.265625 159.210938 95.15625 C 161.054688 88.617188 161.980469 85.34375 164.730469 81.894531 C 166.242188 80 172.828125 74.863281 180.898438 74.34375 C 181.449219 74.304688 189.484375 73.914062 194.980469 79.757812 C 197.171875 82.089844 198.746094 84.597656 200.34375 89.617188 " fill-opacity="1" fill-rule="nonzero"/><path fill="#d65b5b" d="M 187.09375 131.269531 C 187.257812 131.042969 187.121094 130.730469 186.847656 130.6875 C 185.671875 130.503906 184.085938 130.125 180.785156 130.101562 C 177.726562 130.078125 175.085938 130.558594 174.191406 130.738281 C 173.953125 130.789062 173.832031 131.042969 173.929688 131.261719 C 174.449219 132.390625 176.914062 135.375 180.230469 135.292969 C 183.855469 135.203125 186.257812 132.421875 187.09375 131.269531 " fill-opacity="1" fill-rule="nonzero"/><path fill="#290708" d="M 176 112.042969 C 176.125 112.117188 176.078125 112.308594 175.933594 112.320312 C 175.585938 112.339844 175.25 112.335938 174.929688 112.363281 C 174.476562 112.394531 174.039062 112.453125 173.589844 112.523438 C 172.699219 112.652344 171.816406 112.84375 170.84375 112.949219 C 170.351562 112.992188 169.855469 113.039062 169.261719 112.953125 C 168.996094 112.90625 168.765625 112.855469 168.515625 112.789062 C 168.273438 112.722656 168.03125 112.644531 167.792969 112.550781 C 167.316406 112.367188 166.851562 112.125 166.441406 111.808594 C 166.15625 111.582031 165.890625 111.3125 165.699219 111.007812 C 165.621094 110.886719 165.75 110.738281 165.882812 110.792969 C 166.191406 110.929688 166.492188 111.023438 166.800781 111.097656 C 167.234375 111.203125 167.667969 111.269531 168.109375 111.316406 C 168.542969 111.363281 169 111.40625 169.425781 111.421875 C 169.597656 111.429688 169.800781 111.421875 170.011719 111.398438 C 170.226562 111.386719 170.445312 111.363281 170.671875 111.335938 C 171.578125 111.238281 172.566406 111.144531 173.570312 111.25 C 174.0625 111.304688 174.574219 111.398438 175.054688 111.578125 C 175.394531 111.707031 175.703125 111.863281 176 112.042969 " fill-opacity="1" fill-rule="nonzero"/><path fill="#290708" d="M 177.0625 106.613281 C 177.195312 106.710938 177.101562 106.914062 176.945312 106.878906 C 175.796875 106.632812 174.691406 106.332031 173.589844 106.046875 C 172.292969 105.699219 171.003906 105.367188 169.734375 105.117188 C 169.574219 105.085938 169.417969 105.0625 169.261719 105.035156 C 169.101562 105.007812 168.945312 104.980469 168.789062 104.96875 L 168.328125 104.910156 C 168.324219 104.910156 168.324219 104.910156 168.316406 104.910156 C 168.167969 104.902344 168.019531 104.898438 167.867188 104.886719 C 167.566406 104.863281 167.261719 104.886719 166.949219 104.90625 C 166.792969 104.917969 166.636719 104.9375 166.484375 104.957031 L 166.269531 104.988281 C 166.269531 104.988281 166.265625 104.988281 166.261719 104.988281 L 166.039062 105.035156 C 165.007812 105.246094 164.015625 105.710938 163.035156 106.332031 C 162.898438 106.417969 162.742188 106.261719 162.828125 106.125 C 163.488281 105.125 164.472656 104.300781 165.652344 103.816406 L 165.914062 103.71875 C 166.019531 103.683594 166.101562 103.65625 166.191406 103.628906 C 166.371094 103.578125 166.550781 103.53125 166.730469 103.492188 C 167.089844 103.414062 167.464844 103.363281 167.847656 103.347656 C 168.609375 103.300781 169.328125 103.40625 170.035156 103.527344 C 171.4375 103.804688 172.765625 104.269531 174.023438 104.851562 C 175.085938 105.351562 176.113281 105.917969 177.0625 106.613281 " fill-opacity="1" fill-rule="nonzero"/><path fill="#290708" d="M 186.59375 112.023438 C 186.457031 111.996094 186.429688 111.808594 186.554688 111.746094 C 186.839844 111.605469 187.132812 111.484375 187.453125 111.394531 C 187.902344 111.273438 188.371094 111.230469 188.824219 111.226562 C 189.738281 111.21875 190.621094 111.402344 191.414062 111.578125 C 191.613281 111.625 191.808594 111.664062 191.992188 111.699219 C 192.175781 111.742188 192.355469 111.765625 192.503906 111.78125 C 192.683594 111.800781 192.898438 111.804688 193.089844 111.816406 C 193.289062 111.820312 193.484375 111.832031 193.683594 111.832031 C 194.078125 111.839844 194.46875 111.828125 194.871094 111.792969 C 195.152344 111.761719 195.433594 111.714844 195.726562 111.636719 C 195.863281 111.597656 195.976562 111.75 195.890625 111.863281 C 195.691406 112.128906 195.425781 112.355469 195.144531 112.535156 C 194.75 112.792969 194.308594 112.96875 193.859375 113.09375 C 193.410156 113.21875 192.96875 113.289062 192.5 113.316406 C 191.945312 113.339844 191.503906 113.25 191.066406 113.160156 C 190.203125 112.96875 189.4375 112.707031 188.664062 112.488281 C 188.269531 112.378906 187.886719 112.273438 187.488281 112.191406 C 187.207031 112.128906 186.902344 112.085938 186.59375 112.023438 " fill-opacity="1" fill-rule="nonzero"/><path fill="#290708" d="M 186.039062 106.984375 C 185.886719 106.996094 185.816406 106.792969 185.945312 106.710938 C 186.804688 106.152344 187.730469 105.722656 188.683594 105.363281 C 189.808594 104.941406 190.984375 104.636719 192.21875 104.503906 C 192.84375 104.457031 193.472656 104.425781 194.140625 104.527344 C 194.46875 104.570312 194.789062 104.648438 195.097656 104.746094 C 195.25 104.796875 195.402344 104.847656 195.554688 104.910156 C 195.632812 104.945312 195.699219 104.972656 195.789062 105.015625 L 196.007812 105.125 C 196.992188 105.648438 197.773438 106.460938 198.238281 107.398438 C 198.308594 107.535156 198.148438 107.675781 198.023438 107.585938 C 197.203125 106.996094 196.378906 106.542969 195.515625 106.300781 L 195.324219 106.25 L 195.144531 106.210938 C 195.015625 106.183594 194.882812 106.15625 194.753906 106.136719 C 194.492188 106.097656 194.234375 106.058594 193.976562 106.054688 C 193.847656 106.054688 193.726562 106.050781 193.597656 106.046875 C 193.59375 106.046875 193.589844 106.046875 193.585938 106.046875 L 193.195312 106.0625 C 193.0625 106.0625 192.925781 106.070312 192.789062 106.082031 C 192.652344 106.09375 192.515625 106.101562 192.378906 106.117188 C 191.277344 106.234375 190.148438 106.410156 189.007812 106.589844 C 188.035156 106.738281 187.058594 106.890625 186.039062 106.984375 " fill-opacity="1" fill-rule="nonzero"/><path fill="#290708" d="M 176.6875 83.417969 C 175.410156 84.722656 174.164062 86.042969 172.957031 87.390625 C 171.75 88.734375 170.574219 90.101562 169.449219 91.5 C 167.191406 94.292969 165.117188 97.21875 163.425781 100.328125 C 161.746094 103.433594 160.429688 106.75 160.019531 110.222656 C 159.988281 110.65625 159.929688 111.089844 159.910156 111.527344 L 159.890625 112.835938 L 159.972656 114.148438 C 160.019531 114.597656 160.070312 115.042969 160.132812 115.484375 C 160.246094 116.375 160.390625 117.261719 160.59375 118.132812 C 160.691406 118.574219 160.8125 119.003906 160.953125 119.433594 C 161.085938 119.867188 161.261719 120.289062 161.375 120.734375 C 161.160156 120.332031 160.914062 119.949219 160.691406 119.546875 C 160.472656 119.140625 160.273438 118.722656 160.09375 118.296875 C 159.730469 117.445312 159.460938 116.558594 159.21875 115.667969 C 159.097656 115.222656 158.996094 114.777344 158.890625 114.328125 L 158.652344 112.933594 C 158.601562 112.46875 158.574219 111.996094 158.535156 111.523438 C 158.515625 111.054688 158.53125 110.582031 158.535156 110.109375 C 158.609375 108.222656 158.980469 106.355469 159.542969 104.566406 C 159.671875 104.113281 159.84375 103.679688 160.007812 103.238281 C 160.089844 103.019531 160.167969 102.796875 160.257812 102.582031 L 160.535156 101.941406 L 160.816406 101.296875 L 161.121094 100.667969 C 161.328125 100.25 161.53125 99.832031 161.761719 99.425781 C 163.546875 96.15625 165.8125 93.203125 168.332031 90.527344 C 169.59375 89.191406 170.921875 87.921875 172.3125 86.730469 C 173.007812 86.132812 173.714844 85.554688 174.445312 85 C 175.175781 84.449219 175.914062 83.90625 176.6875 83.417969 " fill-opacity="1" fill-rule="nonzero"/><path fill="#290708" d="M 210.089844 116.875 C 205.628906 113.351562 200.9375 110.199219 196.777344 108.019531 C 179.3125 98.859375 175.335938 85.632812 175.335938 85.632812 C 175.335938 85.632812 152.269531 99.441406 158.394531 123.617188 C 157.820312 123.484375 146.832031 113.980469 146.832031 113.980469 C 146.015625 107.222656 148.433594 88.988281 162.648438 75.863281 C 169.199219 69.816406 177.699219 69.566406 180.304688 71.472656 C 180.460938 71.460938 180.621094 71.472656 180.777344 71.449219 C 192.765625 69.578125 203.015625 77.238281 205.957031 91.773438 C 208.128906 102.507812 216.117188 110.273438 218.132812 117.722656 C 220.59375 126.808594 219.265625 132.21875 218.859375 133.023438 C 218.648438 133.445312 219.621094 124.410156 210.089844 116.875 " fill-opacity="1" fill-rule="nonzero"/><path fill="#f79556" d="M 148.964844 159.417969 C 146.449219 156.992188 139.5 160.117188 138.472656 160.582031 C 137.441406 161.046875 134.9375 162.273438 131.476562 165.628906 C 129.371094 167.671875 124.882812 172.460938 121.371094 180.769531 C 118.867188 186.691406 120.0625 186.832031 117.488281 192.804688 C 115.449219 197.53125 114.4375 198.050781 110.101562 205.613281 C 105.847656 213.039062 103.296875 218.683594 102.71875 219.976562 C 102.144531 221.257812 99.554688 227.109375 97.277344 235.117188 C 95.707031 240.632812 95.089844 244.363281 96.5 248.3125 C 97.214844 250.308594 97.683594 251.625 98.832031 252.195312 C 103.882812 254.699219 117.023438 240.84375 124.09375 230.84375 C 133.910156 216.964844 138.457031 203.96875 140.417969 198.238281 C 144.257812 187.007812 141.773438 187.398438 146.246094 174.167969 C 148.855469 166.445312 151.109375 161.484375 148.964844 159.417969 " fill-opacity="1" fill-rule="nonzero"/><path fill="#f79556" d="M 210.421875 159.417969 C 212.9375 156.992188 219.886719 160.117188 220.914062 160.582031 C 221.945312 161.046875 224.449219 162.273438 227.910156 165.628906 C 230.019531 167.671875 234.503906 172.460938 238.015625 180.769531 C 240.519531 186.691406 239.328125 186.832031 241.898438 192.804688 C 243.941406 197.53125 244.949219 198.050781 249.285156 205.613281 C 253.539062 213.039062 256.089844 218.683594 256.667969 219.976562 C 257.242188 221.257812 259.832031 227.109375 262.109375 235.117188 C 263.679688 240.632812 264.296875 244.363281 262.886719 248.3125 C 262.171875 250.308594 261.703125 251.625 260.554688 252.195312 C 255.503906 254.699219 242.363281 240.84375 235.292969 230.84375 C 225.480469 216.964844 220.933594 203.96875 218.972656 198.238281 C 215.132812 187.007812 217.613281 187.398438 213.140625 174.167969 C 210.53125 166.445312 208.277344 161.484375 210.421875 159.417969 " fill-opacity="1" fill-rule="nonzero"/><path fill="#ffffff" d="M 184.25 318.734375 C 182.738281 318.734375 181.304688 318.449219 179.976562 317.882812 C 179.777344 317.792969 179.554688 317.792969 179.355469 317.882812 C 178.03125 318.449219 176.597656 318.734375 175.082031 318.734375 C 166.882812 318.734375 157.515625 310.410156 149.992188 303.722656 C 148.113281 302.054688 146.335938 300.472656 144.757812 299.1875 C 142.761719 297.5625 138.613281 294.179688 137.492188 288.644531 C 136.214844 282.347656 138.917969 271.742188 144.699219 253.128906 C 148.109375 242.152344 147.78125 237.574219 147.402344 232.269531 L 147.386719 232.066406 C 146.703125 222.476562 144.675781 215.125 143.042969 209.21875 L 142.75 208.148438 C 141.648438 204.136719 140.511719 199.992188 138.125 194.671875 C 136.683594 191.457031 135.644531 189.722656 134.8125 188.328125 C 133.816406 186.660156 133.160156 185.558594 132.636719 183.269531 C 131.449219 178.0625 131.914062 167.710938 136.683594 162.023438 C 138.761719 159.550781 142.871094 158.402344 147.625 157.074219 C 151.4375 156.011719 155.761719 154.804688 159.597656 152.714844 C 160.058594 152.464844 160.625 152.726562 160.730469 153.238281 C 163.15625 164.875 170.945312 173.003906 179.667969 173.003906 C 188.390625 173.003906 196.175781 164.875 198.601562 153.238281 C 198.710938 152.726562 199.277344 152.464844 199.738281 152.714844 C 203.574219 154.804688 207.894531 156.011719 211.710938 157.074219 C 216.464844 158.402344 220.570312 159.550781 222.648438 162.023438 C 227.417969 167.710938 227.886719 178.0625 226.699219 183.269531 C 226.175781 185.558594 225.519531 186.660156 224.523438 188.328125 C 223.691406 189.722656 222.648438 191.457031 221.210938 194.671875 C 218.824219 199.992188 217.6875 204.136719 216.585938 208.148438 L 216.289062 209.21875 C 214.660156 215.125 212.632812 222.476562 211.945312 232.066406 L 211.933594 232.269531 C 211.554688 237.574219 211.226562 242.152344 214.636719 253.128906 C 220.417969 271.742188 223.121094 282.347656 221.84375 288.644531 C 220.722656 294.179688 216.574219 297.5625 214.582031 299.1875 C 212.996094 300.476562 211.21875 302.054688 209.34375 303.722656 C 201.820312 310.414062 192.457031 318.734375 184.253906 318.734375 C 184.253906 318.734375 184.253906 318.734375 184.25 318.734375 " fill-opacity="1" fill-rule="nonzero"/><path fill="#ffffff" d="M 215.835938 207.941406 C 216.933594 203.9375 218.089844 199.730469 220.5 194.355469 C 223.683594 187.25 225.027344 187.105469 225.941406 183.097656 C 227.183594 177.640625 226.472656 167.789062 222.054688 162.523438 C 218.515625 158.304688 207.945312 158.066406 199.363281 153.394531 C 196.910156 165.164062 189.023438 173.78125 179.667969 173.78125 C 170.3125 173.78125 162.425781 165.164062 159.972656 153.394531 C 151.390625 158.066406 140.820312 158.304688 137.28125 162.523438 C 132.863281 167.789062 132.148438 177.640625 133.394531 183.097656 C 134.308594 187.105469 135.652344 187.25 138.835938 194.355469 C 141.246094 199.730469 142.398438 203.9375 143.5 207.941406 C 145.152344 213.96875 147.429688 221.746094 148.164062 232.007812 C 148.550781 237.445312 148.941406 242.105469 145.441406 253.359375 C 140.125 270.46875 136.945312 282.054688 138.253906 288.492188 C 139.320312 293.757812 143.355469 297.042969 145.246094 298.585938 C 154.304688 305.960938 169.136719 322.304688 179.667969 316.875 C 190.199219 322.304688 205.027344 305.960938 214.089844 298.585938 C 215.980469 297.042969 220.015625 293.757812 221.082031 288.492188 C 222.386719 282.054688 219.207031 270.46875 213.894531 253.359375 C 210.394531 242.105469 210.785156 237.445312 211.171875 232.007812 C 211.90625 221.746094 214.179688 213.96875 215.835938 207.941406 " fill-opacity="1" fill-rule="nonzero"/><path fill="#ffffff" d="M 135.914062 210.238281 C 127.921875 208.304688 120.699219 204.246094 114.445312 198.171875 L 113.996094 197.734375 L 114.324219 197.207031 C 115.195312 195.804688 115.875 194.582031 116.773438 192.496094 C 118.046875 189.542969 118.367188 188.085938 118.710938 186.546875 C 119.046875 185.027344 119.394531 183.457031 120.65625 180.464844 C 123.203125 174.445312 126.757812 169.125 130.9375 165.074219 C 133.425781 162.65625 135.855469 160.910156 138.152344 159.875 C 139.933594 159.074219 143.335938 157.730469 146.113281 157.730469 C 147.585938 157.730469 148.726562 158.109375 149.503906 158.859375 C 151.679688 160.957031 150.269531 164.980469 148.140625 171.070312 C 147.773438 172.121094 147.382812 173.238281 146.980469 174.417969 C 144.691406 181.199219 144.246094 184.339844 143.820312 187.378906 C 143.414062 190.269531 143.027344 193.003906 141.152344 198.488281 C 140.402344 200.675781 139.007812 204.753906 136.808594 209.792969 L 136.546875 210.390625 L 135.914062 210.238281 " fill-opacity="1" fill-rule="nonzero"/><path fill="#ffffff" d="M 148.964844 159.417969 C 146.449219 156.992188 139.5 160.117188 138.472656 160.582031 C 137.441406 161.046875 134.9375 162.273438 131.476562 165.628906 C 129.371094 167.671875 124.882812 172.460938 121.371094 180.769531 C 118.867188 186.691406 120.0625 186.832031 117.488281 192.804688 C 116.578125 194.910156 115.871094 196.183594 114.988281 197.617188 C 119.734375 202.226562 126.71875 207.214844 136.09375 209.484375 C 138.1875 204.691406 139.554688 200.757812 140.417969 198.238281 C 144.257812 187.007812 141.773438 187.398438 146.246094 174.167969 C 148.855469 166.445312 151.109375 161.484375 148.964844 159.417969 " fill-opacity="1" fill-rule="nonzero"/><path fill="#ffffff" d="M 222.4375 209.792969 C 220.238281 204.753906 218.84375 200.675781 218.09375 198.488281 C 216.21875 193.003906 215.832031 190.269531 215.425781 187.378906 C 215 184.339844 214.558594 181.199219 212.265625 174.417969 C 211.867188 173.238281 211.472656 172.121094 211.105469 171.070312 C 208.972656 164.980469 207.566406 160.957031 209.742188 158.859375 C 210.519531 158.109375 211.660156 157.730469 213.132812 157.730469 C 215.914062 157.730469 219.3125 159.074219 221.089844 159.875 C 223.390625 160.910156 225.820312 162.65625 228.308594 165.074219 C 232.488281 169.121094 236.042969 174.445312 238.589844 180.464844 C 239.855469 183.457031 240.199219 185.027344 240.539062 186.546875 C 240.878906 188.085938 241.199219 189.542969 242.472656 192.496094 C 243.371094 194.578125 244.050781 195.804688 244.917969 197.207031 L 245.25 197.734375 L 244.800781 198.171875 C 238.546875 204.246094 231.320312 208.304688 223.335938 210.238281 L 222.699219 210.390625 L 222.4375 209.792969 " fill-opacity="1" fill-rule="nonzero"/><path fill="#ffffff" d="M 210.28125 159.417969 C 212.796875 156.992188 219.746094 160.117188 220.773438 160.582031 C 221.804688 161.046875 224.308594 162.273438 227.769531 165.628906 C 229.875 167.671875 234.363281 172.460938 237.871094 180.769531 C 240.375 186.691406 239.183594 186.832031 241.757812 192.804688 C 242.667969 194.910156 243.375 196.183594 244.257812 197.617188 C 239.511719 202.226562 232.527344 207.214844 223.152344 209.484375 C 221.058594 204.691406 219.691406 200.757812 218.832031 198.238281 C 214.988281 187.007812 217.472656 187.398438 213 174.167969 C 210.390625 166.445312 208.136719 161.484375 210.28125 159.417969 " fill-opacity="1" fill-rule="nonzero"/><path fill="#f79556" d="M 179.667969 239.773438 C 179.183594 242.4375 175.863281 243.875 172.671875 245.207031 C 168.1875 247.085938 156.507812 249.703125 142.359375 251.421875 C 131.589844 252.726562 123.59375 253.183594 117.488281 253.359375 C 102.695312 253.785156 100.089844 252.570312 98.445312 250.644531 C 95.222656 246.871094 95.480469 240.152344 98.445312 235.890625 C 102.535156 230.015625 110.738281 230.320312 114.378906 230.457031 C 118.28125 230.601562 119.214844 231.519531 126.035156 233.175781 C 127.199219 233.457031 134.152344 235.113281 142.75 235.890625 C 149.230469 236.480469 158.683594 236.28125 164.511719 234.339844 C 166.398438 233.710938 167.082031 233.015625 168.785156 232.398438 C 177.335938 229.292969 179.914062 238.417969 179.667969 239.773438 " fill-opacity="1" fill-rule="nonzero"/><path fill="#f79556" d="M 179.71875 239.773438 C 180.203125 242.4375 183.527344 243.875 186.714844 245.207031 C 191.203125 247.085938 202.882812 249.703125 217.027344 251.421875 C 227.800781 252.726562 235.792969 253.183594 241.898438 253.359375 C 256.691406 253.785156 259.296875 252.570312 260.945312 250.644531 C 264.164062 246.871094 263.910156 240.152344 260.945312 235.890625 C 256.855469 230.015625 248.648438 230.320312 245.011719 230.457031 C 241.105469 230.601562 240.171875 231.519531 233.351562 233.175781 C 232.191406 233.457031 225.234375 235.113281 216.640625 235.890625 C 210.15625 236.480469 200.707031 236.28125 194.878906 234.339844 C 192.988281 233.710938 192.304688 233.015625 190.601562 232.398438 C 182.050781 229.292969 179.472656 238.417969 179.71875 239.773438 " fill-opacity="1" fill-rule="nonzero"/><path fill="#f79556" d="M 169.761719 237.972656 C 169.605469 237.28125 169.363281 235.953125 170.101562 230.558594 C 170.628906 226.6875 171.011719 224.003906 172.125 220.449219 C 172.933594 217.863281 173.085938 218.15625 173.8125 215.730469 C 174.636719 212.972656 175.476562 210.171875 175.5 206.628906 C 175.515625 204.03125 175.105469 199.710938 175.835938 197.871094 C 175.957031 197.558594 176.207031 197.082031 176.511719 196.183594 C 176.84375 195.199219 176.84375 194.890625 177.1875 194.5 C 177.296875 194.371094 178.03125 193.5625 178.875 193.824219 C 179.511719 194.019531 179.78125 194.839844 179.886719 195.171875 C 182.847656 204.578125 181.910156 212.023438 181.910156 212.023438 C 179.691406 229.640625 184.34375 236.046875 178.875 241.34375 C 178.246094 241.953125 175.789062 244.332031 173.476562 243.703125 C 170.914062 243.007812 170.003906 239.035156 169.761719 237.972656 " fill-opacity="1" fill-rule="nonzero"/><path fill="#f79556" d="M 189.625 237.972656 C 189.78125 237.28125 190.027344 235.953125 189.289062 230.558594 C 188.757812 226.6875 188.375 224.003906 187.261719 220.449219 C 186.453125 217.863281 186.300781 218.15625 185.578125 215.730469 C 184.75 212.972656 183.914062 210.171875 183.890625 206.628906 C 183.871094 204.03125 184.28125 199.710938 183.550781 197.871094 C 183.429688 197.558594 183.179688 197.082031 182.875 196.183594 C 182.546875 195.199219 182.546875 194.890625 182.203125 194.5 C 182.09375 194.371094 181.355469 193.5625 180.515625 193.824219 C 179.878906 194.019531 179.609375 194.839844 179.503906 195.171875 C 176.542969 204.578125 177.476562 212.023438 177.476562 212.023438 C 179.699219 229.640625 175.046875 236.046875 180.515625 241.34375 C 181.144531 241.953125 183.597656 244.332031 185.914062 243.703125 C 188.472656 243.007812 189.382812 239.035156 189.625 237.972656 " fill-opacity="1" fill-rule="nonzero"/><path fill="#290708" d="M 179.667969 335.042969 C 182.503906 340.503906 186.488281 343.46875 192.800781 345.308594 C 202.484375 348.128906 209.605469 346.4375 212.78125 345.878906 C 222.421875 344.183594 230.015625 339.46875 242.464844 330.484375 C 277.910156 304.894531 283.570312 296.675781 286.421875 288.285156 C 289.847656 278.214844 287.277344 273.628906 286.421875 272.316406 C 283.421875 267.707031 279.917969 266.035156 276.71875 265.476562 C 267.242188 263.808594 256.527344 267.210938 244.75 272.316406 C 227.140625 279.953125 224.808594 280.726562 203.074219 289.074219 C 191.460938 293.535156 186.769531 297.859375 181.953125 305.042969 C 180.46875 307.25 175.148438 326.347656 179.667969 335.042969 " fill-opacity="1" fill-rule="nonzero"/><path fill="#290708" d="M 186.792969 335.042969 C 183.953125 340.503906 179.972656 343.46875 173.664062 345.308594 C 163.976562 348.128906 156.855469 346.4375 153.679688 345.878906 C 144.039062 344.183594 136.445312 339.46875 123.996094 330.484375 C 88.546875 304.894531 82.890625 296.675781 80.035156 288.285156 C 76.613281 278.214844 79.183594 273.628906 80.035156 272.316406 C 83.035156 267.707031 86.542969 266.035156 89.742188 265.476562 C 99.21875 263.808594 110.027344 267.003906 121.710938 272.316406 C 138.804688 280.089844 145.140625 282.667969 163.386719 291.015625 C 174.699219 296.191406 179.691406 299.800781 184.507812 306.980469 C 185.992188 309.191406 191.308594 326.347656 186.792969 335.042969 " fill-opacity="1" fill-rule="nonzero"/><path fill="#290708" d="M 156.410156 286.550781 C 148.214844 284.253906 142.480469 282.035156 138.738281 280.078125 C 137.332031 286.242188 137.574219 290.972656 138.253906 294.3125 C 139.320312 299.578125 143.355469 302.867188 145.246094 304.40625 C 154.304688 311.785156 169.136719 328.128906 179.667969 322.699219 C 190.199219 328.128906 205.027344 311.785156 214.089844 304.40625 C 215.980469 302.867188 220.015625 299.578125 221.082031 294.3125 C 221.675781 291.394531 222.117188 287.410156 221.085938 282.339844 C 217.828125 283.625 213.949219 284.5 210.820312 285.386719 C 180.984375 293.824219 156.410156 286.550781 156.410156 286.550781 " fill-opacity="1" fill-rule="nonzero"/><path fill="#ec7d40" d="M 289.5625 286.859375 C 290.40625 284.589844 292.933594 277.796875 289.5625 272.03125 C 286.679688 267.097656 281.070312 265.648438 279.289062 265.191406 C 269.175781 262.578125 259.457031 267.960938 248.460938 274.886719 C 234.976562 283.371094 226.328125 289.929688 209.351562 302.542969 C 203.683594 306.753906 189.585938 317.136719 172.246094 325.351562 C 168.9375 326.917969 164.300781 328.410156 157.972656 329.34375 C 153.011719 330.074219 144.273438 331.050781 134.570312 327.632812 C 133.324219 327.191406 129.054688 324.875 120.296875 327.0625 C 115.730469 328.203125 115.929688 327.355469 113.445312 327.632812 C 109.1875 328.105469 108.03125 330.375 107.464844 331.921875 C 107.347656 332.238281 107.140625 334.453125 106.59375 336.183594 C 106.101562 337.753906 105.453125 338.464844 106.023438 341.886719 C 106.269531 343.367188 106.949219 344.582031 107.738281 345.878906 C 108.171875 346.59375 109.996094 349.976562 114.015625 351.011719 C 116.257812 351.589844 118.984375 351.957031 123.722656 351.011719 C 125.613281 350.636719 143.253906 348.085938 152.265625 348.730469 C 156.324219 349.019531 159.183594 349.492188 163.683594 348.730469 C 166.660156 348.226562 168.835938 347.433594 169.964844 347.019531 C 182.464844 342.414062 188.714844 340.109375 191.085938 339.035156 C 201.660156 334.25 204.214844 334.824219 221.34375 328.769531 C 223.363281 328.054688 245.867188 319.980469 271.578125 304.824219 C 278.640625 300.660156 286.246094 295.785156 289.5625 286.859375 " fill-opacity="1" fill-rule="nonzero"/><path fill="#d35c20" d="M 120.867188 336.367188 C 119.636719 336.472656 118.449219 336.601562 117.308594 336.859375 C 116.738281 337 116.179688 337.15625 115.640625 337.355469 C 115.105469 337.550781 114.570312 337.796875 113.980469 338.027344 C 113.394531 338.253906 112.761719 338.4375 112.117188 338.523438 C 111.472656 338.605469 110.832031 338.625 110.183594 338.53125 C 109.539062 338.453125 108.875 338.246094 108.332031 337.855469 C 107.800781 337.464844 107.390625 336.945312 107.167969 336.367188 C 107.605469 336.800781 108.085938 337.15625 108.613281 337.359375 C 109.128906 337.570312 109.683594 337.628906 110.242188 337.625 C 110.804688 337.609375 111.382812 337.546875 111.933594 337.433594 C 112.488281 337.320312 113.019531 337.152344 113.566406 336.9375 C 114.109375 336.734375 114.679688 336.484375 115.300781 336.304688 C 115.914062 336.128906 116.539062 336.011719 117.171875 335.964844 C 118.429688 335.859375 119.6875 335.992188 120.867188 336.367188 " fill-opacity="1" fill-rule="nonzero"/><path fill="#d35c20" d="M 118.546875 341.496094 C 117.742188 341.980469 116.867188 342.3125 115.972656 342.566406 C 115.074219 342.816406 114.152344 342.96875 113.222656 343.039062 C 112.296875 343.105469 111.359375 343.085938 110.4375 342.96875 C 109.511719 342.847656 108.597656 342.644531 107.730469 342.28125 C 108.664062 342.160156 109.566406 342.117188 110.464844 342.054688 L 113.136719 341.875 L 115.808594 341.667969 C 116.707031 341.605469 117.605469 341.515625 118.546875 341.496094 " fill-opacity="1" fill-rule="nonzero"/><path fill="#d35c20" d="M 119.15625 344.738281 C 118.441406 345.210938 117.664062 345.535156 116.871094 345.792969 C 116.074219 346.050781 115.25 346.222656 114.421875 346.324219 C 113.589844 346.421875 112.75 346.441406 111.917969 346.378906 C 111.082031 346.3125 110.25 346.175781 109.449219 345.878906 C 110.28125 345.6875 111.089844 345.582031 111.890625 345.464844 C 112.695312 345.355469 113.488281 345.257812 114.285156 345.167969 L 116.683594 344.902344 C 117.488281 344.828125 118.300781 344.742188 119.15625 344.738281 " fill-opacity="1" fill-rule="nonzero"/><path fill="#d35c20" d="M 119.726562 347.589844 C 119.175781 348.054688 118.550781 348.382812 117.898438 348.640625 C 117.246094 348.894531 116.566406 349.074219 115.875 349.171875 C 115.183594 349.273438 114.476562 349.292969 113.78125 349.234375 C 113.082031 349.164062 112.390625 349.023438 111.734375 348.730469 C 112.425781 348.539062 113.09375 348.429688 113.75 348.316406 C 114.410156 348.210938 115.058594 348.113281 115.707031 348.023438 C 116.359375 347.929688 117.011719 347.839844 117.671875 347.757812 C 118.335938 347.679688 119.007812 347.601562 119.726562 347.589844 " fill-opacity="1" fill-rule="nonzero"/><path fill="#f79556" d="M 76.898438 286.859375 C 76.054688 284.589844 73.527344 277.796875 76.898438 272.03125 C 79.78125 267.097656 85.390625 265.648438 87.171875 265.191406 C 97.285156 262.578125 107.003906 267.960938 118 274.886719 C 131.480469 283.371094 140.136719 289.929688 157.105469 302.542969 C 162.777344 306.753906 176.875 317.136719 194.214844 325.351562 C 197.523438 326.917969 202.160156 328.410156 208.488281 329.34375 C 213.449219 330.074219 222.1875 331.050781 231.890625 327.632812 C 233.136719 327.191406 237.40625 324.875 246.164062 327.0625 C 250.730469 328.203125 250.53125 327.355469 253.015625 327.632812 C 257.269531 328.105469 258.429688 330.375 259 331.921875 C 259.113281 332.238281 259.320312 334.453125 259.863281 336.183594 C 260.359375 337.753906 261.007812 338.464844 260.4375 341.886719 C 260.191406 343.367188 259.511719 344.582031 258.722656 345.878906 C 258.289062 346.59375 256.46875 349.976562 252.441406 351.011719 C 250.203125 351.589844 247.476562 351.957031 242.738281 351.011719 C 240.851562 350.636719 223.207031 348.085938 214.195312 348.730469 C 210.136719 349.019531 207.277344 349.492188 202.777344 348.730469 C 199.800781 348.226562 197.621094 347.433594 196.5 347.019531 C 183.996094 342.414062 177.746094 340.109375 175.375 339.035156 C 164.800781 334.25 162.242188 334.824219 145.117188 328.769531 C 143.097656 328.054688 120.59375 319.980469 94.878906 304.824219 C 87.820312 300.660156 80.214844 295.785156 76.898438 286.859375 " fill-opacity="1" fill-rule="nonzero"/><path fill="#ec7d40" d="M 247.914062 341.496094 C 248.855469 341.515625 249.753906 341.605469 250.648438 341.667969 L 253.320312 341.875 L 255.992188 342.054688 C 256.894531 342.117188 257.796875 342.160156 258.730469 342.28125 C 257.859375 342.644531 256.945312 342.847656 256.023438 342.96875 C 255.101562 343.085938 254.164062 343.105469 253.238281 343.039062 C 252.308594 342.96875 251.386719 342.816406 250.488281 342.566406 C 249.59375 342.3125 248.71875 341.980469 247.914062 341.496094 " fill-opacity="1" fill-rule="nonzero"/><path fill="#ec7d40" d="M 247.304688 344.738281 C 248.160156 344.742188 248.972656 344.828125 249.78125 344.902344 L 252.175781 345.167969 C 252.96875 345.257812 253.765625 345.355469 254.570312 345.464844 C 255.371094 345.582031 256.179688 345.6875 257.011719 345.878906 C 256.210938 346.175781 255.378906 346.3125 254.542969 346.378906 C 253.707031 346.441406 252.867188 346.421875 252.039062 346.324219 C 251.210938 346.222656 250.386719 346.050781 249.589844 345.792969 C 248.792969 345.535156 248.019531 345.210938 247.304688 344.738281 " fill-opacity="1" fill-rule="nonzero"/><path fill="#ec7d40" d="M 245.59375 336.367188 C 246.769531 335.992188 248.03125 335.859375 249.289062 335.964844 C 249.917969 336.011719 250.546875 336.128906 251.160156 336.304688 C 251.78125 336.484375 252.351562 336.734375 252.894531 336.9375 C 253.441406 337.152344 253.972656 337.320312 254.527344 337.433594 C 255.078125 337.546875 255.65625 337.609375 256.21875 337.625 C 256.777344 337.628906 257.332031 337.570312 257.847656 337.359375 C 258.375 337.15625 258.855469 336.800781 259.292969 336.367188 C 259.070312 336.945312 258.660156 337.464844 258.128906 337.855469 C 257.585938 338.246094 256.921875 338.453125 256.277344 338.53125 C 255.628906 338.625 254.988281 338.605469 254.34375 338.523438 C 253.699219 338.4375 253.066406 338.253906 252.480469 338.027344 C 251.890625 337.796875 251.355469 337.550781 250.816406 337.355469 C 250.277344 337.15625 249.71875 337 249.152344 336.859375 C 248.011719 336.601562 246.824219 336.472656 245.59375 336.367188 " fill-opacity="1" fill-rule="nonzero"/><path fill="#ec7d40" d="M 246.734375 347.589844 C 247.457031 347.601562 248.125 347.679688 248.789062 347.757812 C 249.449219 347.839844 250.101562 347.929688 250.753906 348.023438 C 251.402344 348.113281 252.050781 348.210938 252.710938 348.316406 C 253.367188 348.429688 254.035156 348.539062 254.726562 348.730469 C 254.070312 349.023438 253.375 349.164062 252.679688 349.234375 C 251.980469 349.292969 251.277344 349.273438 250.585938 349.171875 C 249.894531 349.074219 249.214844 348.894531 248.5625 348.640625 C 247.914062 348.382812 247.285156 348.054688 246.734375 347.589844 " fill-opacity="1" fill-rule="nonzero"/></svg>