<svg xmlns="http://www.w3.org/2000/svg" xmlns:xlink="http://www.w3.org/1999/xlink" width="500" zoomAndPan="magnify" viewBox="0 0 375 374.999991" height="500" preserveAspectRatio="xMidYMid meet" version="1.0"><defs><g/></defs><g fill="#ffffff" fill-opacity="1"><g transform="translate(9.615515, 150.906852)"><g><path d="M 3.71875 0 L 3.71875 -38.265625 L 12.03125 -38.265625 L 24.21875 -13.984375 L 36.234375 -38.265625 L 44.546875 -38.265625 L 44.546875 0 L 37.546875 0 L 37.546875 -26.40625 L 26.890625 -5.46875 L 21.375 -5.46875 L 10.71875 -26.40625 L 10.71875 0 Z M 3.71875 0 "/></g></g></g><g fill="#ffffff" fill-opacity="1"><g transform="translate(57.871056, 150.906852)"><g><path d="M 12.90625 0.65625 C 10.570312 0.65625 8.65625 0.285156 7.15625 -0.453125 C 5.664062 -1.203125 4.554688 -2.195312 3.828125 -3.4375 C 3.097656 -4.675781 2.734375 -6.046875 2.734375 -7.546875 C 2.734375 -10.054688 3.71875 -12.09375 5.6875 -13.65625 C 7.65625 -15.226562 10.601562 -16.015625 14.53125 -16.015625 L 21.421875 -16.015625 L 21.421875 -16.671875 C 21.421875 -18.523438 20.890625 -19.890625 19.828125 -20.765625 C 18.773438 -21.640625 17.46875 -22.078125 15.90625 -22.078125 C 14.476562 -22.078125 13.238281 -21.738281 12.1875 -21.0625 C 11.132812 -20.394531 10.476562 -19.40625 10.21875 -18.09375 L 3.390625 -18.09375 C 3.566406 -20.0625 4.226562 -21.773438 5.375 -23.234375 C 6.53125 -24.691406 8.019531 -25.8125 9.84375 -26.59375 C 11.664062 -27.375 13.703125 -27.765625 15.953125 -27.765625 C 19.816406 -27.765625 22.859375 -26.796875 25.078125 -24.859375 C 27.304688 -22.929688 28.421875 -20.203125 28.421875 -16.671875 L 28.421875 0 L 22.46875 0 L 21.8125 -4.375 C 21.007812 -2.914062 19.882812 -1.710938 18.4375 -0.765625 C 17 0.179688 15.15625 0.65625 12.90625 0.65625 Z M 14.484375 -4.8125 C 16.484375 -4.8125 18.039062 -5.46875 19.15625 -6.78125 C 20.269531 -8.09375 20.972656 -9.710938 21.265625 -11.640625 L 15.296875 -11.640625 C 13.441406 -11.640625 12.113281 -11.300781 11.3125 -10.625 C 10.507812 -9.957031 10.109375 -9.128906 10.109375 -8.140625 C 10.109375 -7.085938 10.507812 -6.269531 11.3125 -5.6875 C 12.113281 -5.101562 13.171875 -4.8125 14.484375 -4.8125 Z M 14.484375 -4.8125 "/></g></g></g><g fill="#ffffff" fill-opacity="1"><g transform="translate(89.403844, 150.906852)"><g><path d="M 3.546875 0 L 3.546875 -39.359375 L 10.546875 -39.359375 L 10.546875 -16.125 L 20.171875 -27.109375 L 28.46875 -27.109375 L 17.375 -14.75 L 30.28125 0 L 21.53125 0 L 10.546875 -13.609375 L 10.546875 0 Z M 3.546875 0 "/></g></g></g><g fill="#ffffff" fill-opacity="1"><g transform="translate(120.444787, 150.906852)"><g><path d="M 16.71875 0.65625 C 13.988281 0.65625 11.566406 0.0703125 9.453125 -1.09375 C 7.335938 -2.257812 5.675781 -3.898438 4.46875 -6.015625 C 3.269531 -8.128906 2.671875 -10.570312 2.671875 -13.34375 C 2.671875 -16.144531 3.265625 -18.640625 4.453125 -20.828125 C 5.640625 -23.015625 7.28125 -24.71875 9.375 -25.9375 C 11.46875 -27.15625 13.9375 -27.765625 16.78125 -27.765625 C 19.4375 -27.765625 21.785156 -27.179688 23.828125 -26.015625 C 25.867188 -24.847656 27.460938 -23.253906 28.609375 -21.234375 C 29.753906 -19.210938 30.328125 -16.960938 30.328125 -14.484375 C 30.328125 -14.078125 30.316406 -13.65625 30.296875 -13.21875 C 30.285156 -12.789062 30.257812 -12.335938 30.21875 -11.859375 L 9.625 -11.859375 C 9.769531 -9.742188 10.503906 -8.082031 11.828125 -6.875 C 13.160156 -5.675781 14.773438 -5.078125 16.671875 -5.078125 C 18.085938 -5.078125 19.28125 -5.394531 20.25 -6.03125 C 21.21875 -6.675781 21.9375 -7.507812 22.40625 -8.53125 L 29.515625 -8.53125 C 29.003906 -6.8125 28.15625 -5.25 26.96875 -3.84375 C 25.789062 -2.445312 24.332031 -1.347656 22.59375 -0.546875 C 20.863281 0.253906 18.90625 0.65625 16.71875 0.65625 Z M 16.78125 -22.078125 C 15.0625 -22.078125 13.546875 -21.59375 12.234375 -20.625 C 10.929688 -19.664062 10.097656 -18.203125 9.734375 -16.234375 L 23.234375 -16.234375 C 23.117188 -18.015625 22.457031 -19.429688 21.25 -20.484375 C 20.050781 -21.546875 18.5625 -22.078125 16.78125 -22.078125 Z M 16.78125 -22.078125 "/></g></g></g><g fill="#ffffff" fill-opacity="1"><g transform="translate(9.615515, 205.076009)"><g><path d="M 12.90625 0.65625 C 10.570312 0.65625 8.65625 0.285156 7.15625 -0.453125 C 5.664062 -1.203125 4.554688 -2.195312 3.828125 -3.4375 C 3.097656 -4.675781 2.734375 -6.046875 2.734375 -7.546875 C 2.734375 -10.054688 3.71875 -12.09375 5.6875 -13.65625 C 7.65625 -15.226562 10.601562 -16.015625 14.53125 -16.015625 L 21.421875 -16.015625 L 21.421875 -16.671875 C 21.421875 -18.523438 20.890625 -19.890625 19.828125 -20.765625 C 18.773438 -21.640625 17.46875 -22.078125 15.90625 -22.078125 C 14.476562 -22.078125 13.238281 -21.738281 12.1875 -21.0625 C 11.132812 -20.394531 10.476562 -19.40625 10.21875 -18.09375 L 3.390625 -18.09375 C 3.566406 -20.0625 4.226562 -21.773438 5.375 -23.234375 C 6.53125 -24.691406 8.019531 -25.8125 9.84375 -26.59375 C 11.664062 -27.375 13.703125 -27.765625 15.953125 -27.765625 C 19.816406 -27.765625 22.859375 -26.796875 25.078125 -24.859375 C 27.304688 -22.929688 28.421875 -20.203125 28.421875 -16.671875 L 28.421875 0 L 22.46875 0 L 21.8125 -4.375 C 21.007812 -2.914062 19.882812 -1.710938 18.4375 -0.765625 C 17 0.179688 15.15625 0.65625 12.90625 0.65625 Z M 14.484375 -4.8125 C 16.484375 -4.8125 18.039062 -5.46875 19.15625 -6.78125 C 20.269531 -8.09375 20.972656 -9.710938 21.265625 -11.640625 L 15.296875 -11.640625 C 13.441406 -11.640625 12.113281 -11.300781 11.3125 -10.625 C 10.507812 -9.957031 10.109375 -9.128906 10.109375 -8.140625 C 10.109375 -7.085938 10.507812 -6.269531 11.3125 -5.6875 C 12.113281 -5.101562 13.171875 -4.8125 14.484375 -4.8125 Z M 14.484375 -4.8125 "/></g></g></g><g fill="#ffffff" fill-opacity="1"><g transform="translate(41.148303, 205.076009)"><g><path d="M 13.71875 0.65625 C 10.332031 0.65625 7.71875 -0.398438 5.875 -2.515625 C 4.03125 -4.628906 3.109375 -7.726562 3.109375 -11.8125 L 3.109375 -27.109375 L 10.0625 -27.109375 L 10.0625 -12.46875 C 10.0625 -10.132812 10.535156 -8.347656 11.484375 -7.109375 C 12.429688 -5.867188 13.921875 -5.25 15.953125 -5.25 C 17.890625 -5.25 19.484375 -5.941406 20.734375 -7.328125 C 21.992188 -8.710938 22.625 -10.644531 22.625 -13.125 L 22.625 -27.109375 L 29.625 -27.109375 L 29.625 0 L 23.453125 0 L 22.90625 -4.59375 C 22.0625 -2.988281 20.847656 -1.710938 19.265625 -0.765625 C 17.679688 0.179688 15.832031 0.65625 13.71875 0.65625 Z M 13.71875 0.65625 "/></g></g></g><g fill="#ffffff" fill-opacity="1"><g transform="translate(74.375229, 205.076009)"><g><path d="M 15.625 0 C 12.789062 0 10.515625 -0.691406 8.796875 -2.078125 C 7.085938 -3.460938 6.234375 -5.921875 6.234375 -9.453125 L 6.234375 -21.265625 L 1.578125 -21.265625 L 1.578125 -27.109375 L 6.234375 -27.109375 L 7.046875 -34.375 L 13.234375 -34.375 L 13.234375 -27.109375 L 20.546875 -27.109375 L 20.546875 -21.265625 L 13.234375 -21.265625 L 13.234375 -9.40625 C 13.234375 -8.09375 13.515625 -7.1875 14.078125 -6.6875 C 14.640625 -6.195312 15.613281 -5.953125 17 -5.953125 L 20.390625 -5.953125 L 20.390625 0 Z M 15.625 0 "/></g></g></g><g fill="#ffffff" fill-opacity="1"><g transform="translate(97.382687, 205.076009)"><g><path d="M 16.5625 0.65625 C 13.9375 0.65625 11.578125 0.0546875 9.484375 -1.140625 C 7.390625 -2.347656 5.726562 -4.015625 4.5 -6.140625 C 3.28125 -8.273438 2.671875 -10.75 2.671875 -13.5625 C 2.671875 -16.363281 3.289062 -18.828125 4.53125 -20.953125 C 5.769531 -23.085938 7.4375 -24.753906 9.53125 -25.953125 C 11.632812 -27.160156 13.992188 -27.765625 16.609375 -27.765625 C 19.203125 -27.765625 21.546875 -27.160156 23.640625 -25.953125 C 25.734375 -24.753906 27.390625 -23.085938 28.609375 -20.953125 C 29.828125 -18.828125 30.4375 -16.363281 30.4375 -13.5625 C 30.4375 -10.75 29.828125 -8.273438 28.609375 -6.140625 C 27.390625 -4.015625 25.722656 -2.347656 23.609375 -1.140625 C 21.492188 0.0546875 19.144531 0.65625 16.5625 0.65625 Z M 16.5625 -5.40625 C 18.382812 -5.40625 19.96875 -6.085938 21.3125 -7.453125 C 22.664062 -8.828125 23.34375 -10.863281 23.34375 -13.5625 C 23.34375 -16.25 22.664062 -18.273438 21.3125 -19.640625 C 19.96875 -21.015625 18.398438 -21.703125 16.609375 -21.703125 C 14.753906 -21.703125 13.160156 -21.015625 11.828125 -19.640625 C 10.503906 -18.273438 9.84375 -16.25 9.84375 -13.5625 C 9.84375 -10.863281 10.503906 -8.828125 11.828125 -7.453125 C 13.160156 -6.085938 14.738281 -5.40625 16.5625 -5.40625 Z M 16.5625 -5.40625 "/></g></g></g><g fill="#ffffff" fill-opacity="1"><g transform="translate(130.500306, 205.076009)"><g><path d="M 3.546875 0 L 3.546875 -27.109375 L 9.734375 -27.109375 L 10.328125 -23.453125 C 11.203125 -24.765625 12.359375 -25.8125 13.796875 -26.59375 C 15.234375 -27.375 16.898438 -27.765625 18.796875 -27.765625 C 22.992188 -27.765625 25.960938 -26.144531 27.703125 -22.90625 C 28.691406 -24.394531 30.015625 -25.578125 31.671875 -26.453125 C 33.328125 -27.328125 35.140625 -27.765625 37.109375 -27.765625 C 40.640625 -27.765625 43.351562 -26.707031 45.25 -24.59375 C 47.144531 -22.476562 48.09375 -19.378906 48.09375 -15.296875 L 48.09375 0 L 41.09375 0 L 41.09375 -14.640625 C 41.09375 -16.972656 40.644531 -18.757812 39.75 -20 C 38.863281 -21.238281 37.492188 -21.859375 35.640625 -21.859375 C 33.742188 -21.859375 32.21875 -21.164062 31.0625 -19.78125 C 29.914062 -18.394531 29.34375 -16.460938 29.34375 -13.984375 L 29.34375 0 L 22.359375 0 L 22.359375 -14.640625 C 22.359375 -16.972656 21.898438 -18.757812 20.984375 -20 C 20.078125 -21.238281 18.675781 -21.859375 16.78125 -21.859375 C 14.914062 -21.859375 13.410156 -21.164062 12.265625 -19.78125 C 11.117188 -18.394531 10.546875 -16.460938 10.546875 -13.984375 L 10.546875 0 Z M 3.546875 0 "/></g></g></g><g fill="#ffffff" fill-opacity="1"><g transform="translate(181.70693, 205.076009)"><g><path d="M 12.90625 0.65625 C 10.570312 0.65625 8.65625 0.285156 7.15625 -0.453125 C 5.664062 -1.203125 4.554688 -2.195312 3.828125 -3.4375 C 3.097656 -4.675781 2.734375 -6.046875 2.734375 -7.546875 C 2.734375 -10.054688 3.71875 -12.09375 5.6875 -13.65625 C 7.65625 -15.226562 10.601562 -16.015625 14.53125 -16.015625 L 21.421875 -16.015625 L 21.421875 -16.671875 C 21.421875 -18.523438 20.890625 -19.890625 19.828125 -20.765625 C 18.773438 -21.640625 17.46875 -22.078125 15.90625 -22.078125 C 14.476562 -22.078125 13.238281 -21.738281 12.1875 -21.0625 C 11.132812 -20.394531 10.476562 -19.40625 10.21875 -18.09375 L 3.390625 -18.09375 C 3.566406 -20.0625 4.226562 -21.773438 5.375 -23.234375 C 6.53125 -24.691406 8.019531 -25.8125 9.84375 -26.59375 C 11.664062 -27.375 13.703125 -27.765625 15.953125 -27.765625 C 19.816406 -27.765625 22.859375 -26.796875 25.078125 -24.859375 C 27.304688 -22.929688 28.421875 -20.203125 28.421875 -16.671875 L 28.421875 0 L 22.46875 0 L 21.8125 -4.375 C 21.007812 -2.914062 19.882812 -1.710938 18.4375 -0.765625 C 17 0.179688 15.15625 0.65625 12.90625 0.65625 Z M 14.484375 -4.8125 C 16.484375 -4.8125 18.039062 -5.46875 19.15625 -6.78125 C 20.269531 -8.09375 20.972656 -9.710938 21.265625 -11.640625 L 15.296875 -11.640625 C 13.441406 -11.640625 12.113281 -11.300781 11.3125 -10.625 C 10.507812 -9.957031 10.109375 -9.128906 10.109375 -8.140625 C 10.109375 -7.085938 10.507812 -6.269531 11.3125 -5.6875 C 12.113281 -5.101562 13.171875 -4.8125 14.484375 -4.8125 Z M 14.484375 -4.8125 "/></g></g></g><g fill="#ffffff" fill-opacity="1"><g transform="translate(213.239707, 205.076009)"><g><path d="M 15.625 0 C 12.789062 0 10.515625 -0.691406 8.796875 -2.078125 C 7.085938 -3.460938 6.234375 -5.921875 6.234375 -9.453125 L 6.234375 -21.265625 L 1.578125 -21.265625 L 1.578125 -27.109375 L 6.234375 -27.109375 L 7.046875 -34.375 L 13.234375 -34.375 L 13.234375 -27.109375 L 20.546875 -27.109375 L 20.546875 -21.265625 L 13.234375 -21.265625 L 13.234375 -9.40625 C 13.234375 -8.09375 13.515625 -7.1875 14.078125 -6.6875 C 14.640625 -6.195312 15.613281 -5.953125 17 -5.953125 L 20.390625 -5.953125 L 20.390625 0 Z M 15.625 0 "/></g></g></g><g fill="#ffffff" fill-opacity="1"><g transform="translate(236.247176, 205.076009)"><g><path d="M 7.328125 -31.3125 C 6.046875 -31.3125 4.992188 -31.691406 4.171875 -32.453125 C 3.359375 -33.222656 2.953125 -34.191406 2.953125 -35.359375 C 2.953125 -36.523438 3.359375 -37.484375 4.171875 -38.234375 C 4.992188 -38.984375 6.046875 -39.359375 7.328125 -39.359375 C 8.597656 -39.359375 9.644531 -38.984375 10.46875 -38.234375 C 11.289062 -37.484375 11.703125 -36.523438 11.703125 -35.359375 C 11.703125 -34.191406 11.289062 -33.222656 10.46875 -32.453125 C 9.644531 -31.691406 8.597656 -31.3125 7.328125 -31.3125 Z M 3.828125 0 L 3.828125 -27.109375 L 10.828125 -27.109375 L 10.828125 0 Z M 3.828125 0 "/></g></g></g><g fill="#ffffff" fill-opacity="1"><g transform="translate(250.838611, 205.076009)"><g><path d="M 16.5625 0.65625 C 13.9375 0.65625 11.578125 0.0546875 9.484375 -1.140625 C 7.390625 -2.347656 5.726562 -4.015625 4.5 -6.140625 C 3.28125 -8.273438 2.671875 -10.75 2.671875 -13.5625 C 2.671875 -16.363281 3.289062 -18.828125 4.53125 -20.953125 C 5.769531 -23.085938 7.4375 -24.753906 9.53125 -25.953125 C 11.632812 -27.160156 13.992188 -27.765625 16.609375 -27.765625 C 19.203125 -27.765625 21.546875 -27.160156 23.640625 -25.953125 C 25.734375 -24.753906 27.390625 -23.085938 28.609375 -20.953125 C 29.828125 -18.828125 30.4375 -16.363281 30.4375 -13.5625 C 30.4375 -10.75 29.828125 -8.273438 28.609375 -6.140625 C 27.390625 -4.015625 25.722656 -2.347656 23.609375 -1.140625 C 21.492188 0.0546875 19.144531 0.65625 16.5625 0.65625 Z M 16.5625 -5.40625 C 18.382812 -5.40625 19.96875 -6.085938 21.3125 -7.453125 C 22.664062 -8.828125 23.34375 -10.863281 23.34375 -13.5625 C 23.34375 -16.25 22.664062 -18.273438 21.3125 -19.640625 C 19.96875 -21.015625 18.398438 -21.703125 16.609375 -21.703125 C 14.753906 -21.703125 13.160156 -21.015625 11.828125 -19.640625 C 10.503906 -18.273438 9.84375 -16.25 9.84375 -13.5625 C 9.84375 -10.863281 10.503906 -8.828125 11.828125 -7.453125 C 13.160156 -6.085938 14.738281 -5.40625 16.5625 -5.40625 Z M 16.5625 -5.40625 "/></g></g></g><g fill="#ffffff" fill-opacity="1"><g transform="translate(283.956241, 205.076009)"><g><path d="M 3.546875 0 L 3.546875 -27.109375 L 9.734375 -27.109375 L 10.28125 -22.515625 C 11.113281 -24.117188 12.320312 -25.394531 13.90625 -26.34375 C 15.488281 -27.289062 17.359375 -27.765625 19.515625 -27.765625 C 22.867188 -27.765625 25.472656 -26.707031 27.328125 -24.59375 C 29.179688 -22.476562 30.109375 -19.378906 30.109375 -15.296875 L 30.109375 0 L 23.125 0 L 23.125 -14.640625 C 23.125 -16.972656 22.648438 -18.757812 21.703125 -20 C 20.753906 -21.238281 19.273438 -21.859375 17.265625 -21.859375 C 15.296875 -21.859375 13.679688 -21.164062 12.421875 -19.78125 C 11.171875 -18.394531 10.546875 -16.460938 10.546875 -13.984375 L 10.546875 0 Z M 3.546875 0 "/></g></g></g><g fill="#ffffff" fill-opacity="1"><g transform="translate(9.615515, 259.245165)"><g><path d="M 8.859375 0 L 0.921875 -27.109375 L 7.875 -27.109375 L 12.578125 -7.59375 L 18.03125 -27.109375 L 25.796875 -27.109375 L 31.265625 -7.59375 L 36.015625 -27.109375 L 42.953125 -27.109375 L 34.984375 0 L 27.703125 0 L 21.921875 -20.28125 L 16.125 0 Z M 8.859375 0 "/></g></g></g><g fill="#ffffff" fill-opacity="1"><g transform="translate(53.444447, 259.245165)"><g><path d="M 16.5625 0.65625 C 13.9375 0.65625 11.578125 0.0546875 9.484375 -1.140625 C 7.390625 -2.347656 5.726562 -4.015625 4.5 -6.140625 C 3.28125 -8.273438 2.671875 -10.75 2.671875 -13.5625 C 2.671875 -16.363281 3.289062 -18.828125 4.53125 -20.953125 C 5.769531 -23.085938 7.4375 -24.753906 9.53125 -25.953125 C 11.632812 -27.160156 13.992188 -27.765625 16.609375 -27.765625 C 19.203125 -27.765625 21.546875 -27.160156 23.640625 -25.953125 C 25.734375 -24.753906 27.390625 -23.085938 28.609375 -20.953125 C 29.828125 -18.828125 30.4375 -16.363281 30.4375 -13.5625 C 30.4375 -10.75 29.828125 -8.273438 28.609375 -6.140625 C 27.390625 -4.015625 25.722656 -2.347656 23.609375 -1.140625 C 21.492188 0.0546875 19.144531 0.65625 16.5625 0.65625 Z M 16.5625 -5.40625 C 18.382812 -5.40625 19.96875 -6.085938 21.3125 -7.453125 C 22.664062 -8.828125 23.34375 -10.863281 23.34375 -13.5625 C 23.34375 -16.25 22.664062 -18.273438 21.3125 -19.640625 C 19.96875 -21.015625 18.398438 -21.703125 16.609375 -21.703125 C 14.753906 -21.703125 13.160156 -21.015625 11.828125 -19.640625 C 10.503906 -18.273438 9.84375 -16.25 9.84375 -13.5625 C 9.84375 -10.863281 10.503906 -8.828125 11.828125 -7.453125 C 13.160156 -6.085938 14.738281 -5.40625 16.5625 -5.40625 Z M 16.5625 -5.40625 "/></g></g></g><g fill="#ffffff" fill-opacity="1"><g transform="translate(86.562067, 259.245165)"><g><path d="M 3.546875 0 L 3.546875 -27.109375 L 9.78125 -27.109375 L 10.4375 -22.03125 C 11.425781 -23.78125 12.765625 -25.171875 14.453125 -26.203125 C 16.148438 -27.242188 18.144531 -27.765625 20.4375 -27.765625 L 20.4375 -20.390625 L 18.46875 -20.390625 C 16.9375 -20.390625 15.570312 -20.148438 14.375 -19.671875 C 13.175781 -19.203125 12.238281 -18.382812 11.5625 -17.21875 C 10.882812 -16.050781 10.546875 -14.429688 10.546875 -12.359375 L 10.546875 0 Z M 3.546875 0 "/></g></g></g><g fill="#ffffff" fill-opacity="1"><g transform="translate(108.203284, 259.245165)"><g><path d="M 3.546875 0 L 3.546875 -39.359375 L 10.546875 -39.359375 L 10.546875 -16.125 L 20.171875 -27.109375 L 28.46875 -27.109375 L 17.375 -14.75 L 30.28125 0 L 21.53125 0 L 10.546875 -13.609375 L 10.546875 0 Z M 3.546875 0 "/></g></g></g><g fill="#ffffff" fill-opacity="1"><g transform="translate(139.244227, 259.245165)"><g/></g></g><g fill="#ffffff" fill-opacity="1"><g transform="translate(152.250818, 259.245165)"><g><path d="M 4.8125 0 L 4.8125 -21.265625 L 1.09375 -21.265625 L 1.09375 -27.109375 L 4.8125 -27.109375 L 4.8125 -30.28125 C 4.8125 -33.5625 5.640625 -35.894531 7.296875 -37.28125 C 8.953125 -38.664062 11.203125 -39.359375 14.046875 -39.359375 L 17.046875 -39.359375 L 17.046875 -33.390625 L 15.140625 -33.390625 C 13.941406 -33.390625 13.085938 -33.148438 12.578125 -32.671875 C 12.066406 -32.203125 11.8125 -31.40625 11.8125 -30.28125 L 11.8125 -27.109375 L 17.65625 -27.109375 L 17.65625 -21.265625 L 11.8125 -21.265625 L 11.8125 0 Z M 4.8125 0 "/></g></g></g><g fill="#ffffff" fill-opacity="1"><g transform="translate(171.870001, 259.245165)"><g><path d="M 16.5625 0.65625 C 13.9375 0.65625 11.578125 0.0546875 9.484375 -1.140625 C 7.390625 -2.347656 5.726562 -4.015625 4.5 -6.140625 C 3.28125 -8.273438 2.671875 -10.75 2.671875 -13.5625 C 2.671875 -16.363281 3.289062 -18.828125 4.53125 -20.953125 C 5.769531 -23.085938 7.4375 -24.753906 9.53125 -25.953125 C 11.632812 -27.160156 13.992188 -27.765625 16.609375 -27.765625 C 19.203125 -27.765625 21.546875 -27.160156 23.640625 -25.953125 C 25.734375 -24.753906 27.390625 -23.085938 28.609375 -20.953125 C 29.828125 -18.828125 30.4375 -16.363281 30.4375 -13.5625 C 30.4375 -10.75 29.828125 -8.273438 28.609375 -6.140625 C 27.390625 -4.015625 25.722656 -2.347656 23.609375 -1.140625 C 21.492188 0.0546875 19.144531 0.65625 16.5625 0.65625 Z M 16.5625 -5.40625 C 18.382812 -5.40625 19.96875 -6.085938 21.3125 -7.453125 C 22.664062 -8.828125 23.34375 -10.863281 23.34375 -13.5625 C 23.34375 -16.25 22.664062 -18.273438 21.3125 -19.640625 C 19.96875 -21.015625 18.398438 -21.703125 16.609375 -21.703125 C 14.753906 -21.703125 13.160156 -21.015625 11.828125 -19.640625 C 10.503906 -18.273438 9.84375 -16.25 9.84375 -13.5625 C 9.84375 -10.863281 10.503906 -8.828125 11.828125 -7.453125 C 13.160156 -6.085938 14.738281 -5.40625 16.5625 -5.40625 Z M 16.5625 -5.40625 "/></g></g></g><g fill="#ffffff" fill-opacity="1"><g transform="translate(204.98762, 259.245165)"><g><path d="M 3.546875 0 L 3.546875 -27.109375 L 9.78125 -27.109375 L 10.4375 -22.03125 C 11.425781 -23.78125 12.765625 -25.171875 14.453125 -26.203125 C 16.148438 -27.242188 18.144531 -27.765625 20.4375 -27.765625 L 20.4375 -20.390625 L 18.46875 -20.390625 C 16.9375 -20.390625 15.570312 -20.148438 14.375 -19.671875 C 13.175781 -19.203125 12.238281 -18.382812 11.5625 -17.21875 C 10.882812 -16.050781 10.546875 -14.429688 10.546875 -12.359375 L 10.546875 0 Z M 3.546875 0 "/></g></g></g><g fill="#ffffff" fill-opacity="1"><g transform="translate(226.628837, 259.245165)"><g/></g></g><g fill="#ffffff" fill-opacity="1"><g transform="translate(239.635429, 259.245165)"><g><path d="M 6.9375 12.03125 L 13.234375 -1.796875 L 11.59375 -1.796875 L 1.03125 -27.109375 L 8.640625 -27.109375 L 16.234375 -8.03125 L 24.15625 -27.109375 L 31.59375 -27.109375 L 14.375 12.03125 Z M 6.9375 12.03125 "/></g></g></g><g fill="#ffffff" fill-opacity="1"><g transform="translate(272.261192, 259.245165)"><g><path d="M 16.5625 0.65625 C 13.9375 0.65625 11.578125 0.0546875 9.484375 -1.140625 C 7.390625 -2.347656 5.726562 -4.015625 4.5 -6.140625 C 3.28125 -8.273438 2.671875 -10.75 2.671875 -13.5625 C 2.671875 -16.363281 3.289062 -18.828125 4.53125 -20.953125 C 5.769531 -23.085938 7.4375 -24.753906 9.53125 -25.953125 C 11.632812 -27.160156 13.992188 -27.765625 16.609375 -27.765625 C 19.203125 -27.765625 21.546875 -27.160156 23.640625 -25.953125 C 25.734375 -24.753906 27.390625 -23.085938 28.609375 -20.953125 C 29.828125 -18.828125 30.4375 -16.363281 30.4375 -13.5625 C 30.4375 -10.75 29.828125 -8.273438 28.609375 -6.140625 C 27.390625 -4.015625 25.722656 -2.347656 23.609375 -1.140625 C 21.492188 0.0546875 19.144531 0.65625 16.5625 0.65625 Z M 16.5625 -5.40625 C 18.382812 -5.40625 19.96875 -6.085938 21.3125 -7.453125 C 22.664062 -8.828125 23.34375 -10.863281 23.34375 -13.5625 C 23.34375 -16.25 22.664062 -18.273438 21.3125 -19.640625 C 19.96875 -21.015625 18.398438 -21.703125 16.609375 -21.703125 C 14.753906 -21.703125 13.160156 -21.015625 11.828125 -19.640625 C 10.503906 -18.273438 9.84375 -16.25 9.84375 -13.5625 C 9.84375 -10.863281 10.503906 -8.828125 11.828125 -7.453125 C 13.160156 -6.085938 14.738281 -5.40625 16.5625 -5.40625 Z M 16.5625 -5.40625 "/></g></g></g><g fill="#ffffff" fill-opacity="1"><g transform="translate(305.378822, 259.245165)"><g><path d="M 13.71875 0.65625 C 10.332031 0.65625 7.71875 -0.398438 5.875 -2.515625 C 4.03125 -4.628906 3.109375 -7.726562 3.109375 -11.8125 L 3.109375 -27.109375 L 10.0625 -27.109375 L 10.0625 -12.46875 C 10.0625 -10.132812 10.535156 -8.347656 11.484375 -7.109375 C 12.429688 -5.867188 13.921875 -5.25 15.953125 -5.25 C 17.890625 -5.25 19.484375 -5.941406 20.734375 -7.328125 C 21.992188 -8.710938 22.625 -10.644531 22.625 -13.125 L 22.625 -27.109375 L 29.625 -27.109375 L 29.625 0 L 23.453125 0 L 22.90625 -4.59375 C 22.0625 -2.988281 20.847656 -1.710938 19.265625 -0.765625 C 17.679688 0.179688 15.832031 0.65625 13.71875 0.65625 Z M 13.71875 0.65625 "/></g></g></g><g fill="#ffffff" fill-opacity="1"><g transform="translate(338.605737, 259.245165)"><g><path d="M 6.5625 0.375 C 5.28125 0.375 4.226562 -0.0195312 3.40625 -0.8125 C 2.59375 -1.613281 2.1875 -2.582031 2.1875 -3.71875 C 2.1875 -4.882812 2.59375 -5.867188 3.40625 -6.671875 C 4.226562 -7.472656 5.28125 -7.875 6.5625 -7.875 C 7.832031 -7.875 8.878906 -7.472656 9.703125 -6.671875 C 10.523438 -5.867188 10.9375 -4.882812 10.9375 -3.71875 C 10.9375 -2.582031 10.523438 -1.613281 9.703125 -0.8125 C 8.878906 -0.0195312 7.832031 0.375 6.5625 0.375 Z M 6.5625 0.375 "/></g></g></g></svg>