<svg xmlns="http://www.w3.org/2000/svg" xmlns:xlink="http://www.w3.org/1999/xlink" width="500" zoomAndPan="magnify" viewBox="0 0 375 374.999991" height="500" preserveAspectRatio="xMidYMid meet" version="1.0"><defs><clipPath id="4f920275cd"><path d="M 12.046875 12.046875 L 363.046875 12.046875 L 363.046875 363.046875 L 12.046875 363.046875 Z M 12.046875 12.046875 " clip-rule="nonzero"/></clipPath><clipPath id="489dcbce42"><path d="M 187.578125 363.105469 C 90.789062 363.105469 12.046875 284.363281 12.046875 187.578125 C 12.046875 90.789062 90.789062 12.046875 187.578125 12.046875 C 284.363281 12.046875 363.105469 90.789062 363.105469 187.578125 C 363.105469 284.363281 284.363281 363.105469 187.578125 363.105469 Z M 187.578125 26.808594 C 98.929688 26.808594 26.808594 98.929688 26.808594 187.578125 C 26.808594 276.226562 98.929688 348.34375 187.578125 348.34375 C 276.222656 348.34375 348.34375 276.226562 348.34375 187.578125 C 348.34375 98.929688 276.222656 26.808594 187.578125 26.808594 Z M 187.578125 26.808594 " clip-rule="nonzero"/></clipPath><linearGradient x1="0.0189961" gradientTransform="matrix(1.47603, 0, 0, 1.47603, 12.048819, 12.04883)" y1="237.819003" x2="237.819013" gradientUnits="userSpaceOnUse" y2="0.0189858" id="fb9688ab34"><stop stop-opacity="1" stop-color="rgb(7.099915%, 100%, 27.49939%)" offset="0"/><stop stop-opacity="1" stop-color="rgb(7.099915%, 100%, 27.49939%)" offset="0.125"/><stop stop-opacity="1" stop-color="rgb(7.099915%, 100%, 27.49939%)" offset="0.140625"/><stop stop-opacity="1" stop-color="rgb(7.341003%, 100%, 27.444458%)" offset="0.144531"/><stop stop-opacity="1" stop-color="rgb(7.583618%, 100%, 27.391052%)" offset="0.148438"/><stop stop-opacity="1" stop-color="rgb(8.587646%, 100%, 27.165222%)" offset="0.152344"/><stop stop-opacity="1" stop-color="rgb(9.591675%, 100%, 26.939392%)" offset="0.15625"/><stop stop-opacity="1" stop-color="rgb(10.595703%, 100%, 26.713562%)" offset="0.160156"/><stop stop-opacity="1" stop-color="rgb(11.601257%, 100%, 26.489258%)" offset="0.164062"/><stop stop-opacity="1" stop-color="rgb(12.605286%, 100%, 26.263428%)" offset="0.167969"/><stop stop-opacity="1" stop-color="rgb(13.61084%, 100%, 26.037598%)" offset="0.171875"/><stop stop-opacity="1" stop-color="rgb(14.614868%, 100%, 25.811768%)" offset="0.175781"/><stop stop-opacity="1" stop-color="rgb(15.620422%, 100%, 25.587463%)" offset="0.179688"/><stop stop-opacity="1" stop-color="rgb(16.624451%, 100%, 25.361633%)" offset="0.183594"/><stop stop-opacity="1" stop-color="rgb(17.630005%, 100%, 25.135803%)" offset="0.1875"/><stop stop-opacity="1" stop-color="rgb(18.634033%, 100%, 24.909973%)" offset="0.191406"/><stop stop-opacity="1" stop-color="rgb(19.638062%, 100%, 24.685669%)" offset="0.195313"/><stop stop-opacity="1" stop-color="rgb(20.64209%, 100%, 24.459839%)" offset="0.199219"/><stop stop-opacity="1" stop-color="rgb(21.647644%, 100%, 24.234009%)" offset="0.203125"/><stop stop-opacity="1" stop-color="rgb(22.651672%, 100%, 24.008179%)" offset="0.207031"/><stop stop-opacity="1" stop-color="rgb(23.657227%, 100%, 23.783875%)" offset="0.210938"/><stop stop-opacity="1" stop-color="rgb(24.661255%, 100%, 23.558044%)" offset="0.214844"/><stop stop-opacity="1" stop-color="rgb(25.666809%, 100%, 23.332214%)" offset="0.21875"/><stop stop-opacity="1" stop-color="rgb(26.670837%, 100%, 23.106384%)" offset="0.222656"/><stop stop-opacity="1" stop-color="rgb(27.674866%, 100%, 22.88208%)" offset="0.226562"/><stop stop-opacity="1" stop-color="rgb(28.678894%, 100%, 22.65625%)" offset="0.230469"/><stop stop-opacity="1" stop-color="rgb(29.684448%, 100%, 22.43042%)" offset="0.234375"/><stop stop-opacity="1" stop-color="rgb(30.688477%, 100%, 22.20459%)" offset="0.238281"/><stop stop-opacity="1" stop-color="rgb(31.694031%, 100%, 21.980286%)" offset="0.242188"/><stop stop-opacity="1" stop-color="rgb(32.698059%, 100%, 21.754456%)" offset="0.246094"/><stop stop-opacity="1" stop-color="rgb(33.703613%, 100%, 21.528625%)" offset="0.25"/><stop stop-opacity="1" stop-color="rgb(34.707642%, 100%, 21.302795%)" offset="0.253906"/><stop stop-opacity="1" stop-color="rgb(35.713196%, 100%, 21.078491%)" offset="0.257813"/><stop stop-opacity="1" stop-color="rgb(36.717224%, 100%, 20.852661%)" offset="0.261719"/><stop stop-opacity="1" stop-color="rgb(37.721252%, 100%, 20.626831%)" offset="0.265625"/><stop stop-opacity="1" stop-color="rgb(38.725281%, 100%, 20.401001%)" offset="0.269531"/><stop stop-opacity="1" stop-color="rgb(39.730835%, 100%, 20.175171%)" offset="0.273438"/><stop stop-opacity="1" stop-color="rgb(40.734863%, 100%, 19.949341%)" offset="0.277344"/><stop stop-opacity="1" stop-color="rgb(41.740417%, 100%, 19.725037%)" offset="0.28125"/><stop stop-opacity="1" stop-color="rgb(42.744446%, 100%, 19.499207%)" offset="0.285156"/><stop stop-opacity="1" stop-color="rgb(43.75%, 100%, 19.273376%)" offset="0.289063"/><stop stop-opacity="1" stop-color="rgb(44.754028%, 100%, 19.047546%)" offset="0.292969"/><stop stop-opacity="1" stop-color="rgb(45.759583%, 100%, 18.823242%)" offset="0.296875"/><stop stop-opacity="1" stop-color="rgb(46.763611%, 100%, 18.597412%)" offset="0.300781"/><stop stop-opacity="1" stop-color="rgb(47.767639%, 100%, 18.371582%)" offset="0.304688"/><stop stop-opacity="1" stop-color="rgb(48.771667%, 100%, 18.145752%)" offset="0.308594"/><stop stop-opacity="1" stop-color="rgb(49.777222%, 100%, 17.921448%)" offset="0.3125"/><stop stop-opacity="1" stop-color="rgb(50.78125%, 100%, 17.695618%)" offset="0.316406"/><stop stop-opacity="1" stop-color="rgb(51.786804%, 100%, 17.469788%)" offset="0.320312"/><stop stop-opacity="1" stop-color="rgb(52.790833%, 100%, 17.243958%)" offset="0.324219"/><stop stop-opacity="1" stop-color="rgb(53.796387%, 100%, 17.019653%)" offset="0.328125"/><stop stop-opacity="1" stop-color="rgb(54.800415%, 100%, 16.793823%)" offset="0.332031"/><stop stop-opacity="1" stop-color="rgb(55.804443%, 100%, 16.567993%)" offset="0.335938"/><stop stop-opacity="1" stop-color="rgb(56.808472%, 100%, 16.342163%)" offset="0.339844"/><stop stop-opacity="1" stop-color="rgb(57.814026%, 100%, 16.117859%)" offset="0.34375"/><stop stop-opacity="1" stop-color="rgb(58.818054%, 100%, 15.892029%)" offset="0.347656"/><stop stop-opacity="1" stop-color="rgb(59.823608%, 100%, 15.666199%)" offset="0.351563"/><stop stop-opacity="1" stop-color="rgb(60.827637%, 100%, 15.440369%)" offset="0.355469"/><stop stop-opacity="1" stop-color="rgb(61.833191%, 100%, 15.216064%)" offset="0.359375"/><stop stop-opacity="1" stop-color="rgb(62.837219%, 100%, 14.990234%)" offset="0.363281"/><stop stop-opacity="1" stop-color="rgb(63.842773%, 100%, 14.764404%)" offset="0.367188"/><stop stop-opacity="1" stop-color="rgb(64.846802%, 100%, 14.538574%)" offset="0.371094"/><stop stop-opacity="1" stop-color="rgb(65.85083%, 100%, 14.31427%)" offset="0.375"/><stop stop-opacity="1" stop-color="rgb(66.854858%, 100%, 14.08844%)" offset="0.378906"/><stop stop-opacity="1" stop-color="rgb(67.860413%, 100%, 13.86261%)" offset="0.382813"/><stop stop-opacity="1" stop-color="rgb(68.864441%, 100%, 13.63678%)" offset="0.386719"/><stop stop-opacity="1" stop-color="rgb(69.869995%, 100%, 13.412476%)" offset="0.390625"/><stop stop-opacity="1" stop-color="rgb(70.874023%, 100%, 13.186646%)" offset="0.394531"/><stop stop-opacity="1" stop-color="rgb(71.879578%, 100%, 12.960815%)" offset="0.398438"/><stop stop-opacity="1" stop-color="rgb(72.883606%, 100%, 12.734985%)" offset="0.402344"/><stop stop-opacity="1" stop-color="rgb(73.887634%, 100%, 12.510681%)" offset="0.40625"/><stop stop-opacity="1" stop-color="rgb(74.891663%, 100%, 12.284851%)" offset="0.410156"/><stop stop-opacity="1" stop-color="rgb(75.897217%, 100%, 12.059021%)" offset="0.414063"/><stop stop-opacity="1" stop-color="rgb(76.901245%, 100%, 11.833191%)" offset="0.417969"/><stop stop-opacity="1" stop-color="rgb(77.906799%, 100%, 11.608887%)" offset="0.421875"/><stop stop-opacity="1" stop-color="rgb(78.910828%, 100%, 11.383057%)" offset="0.425781"/><stop stop-opacity="1" stop-color="rgb(79.916382%, 100%, 11.157227%)" offset="0.429688"/><stop stop-opacity="1" stop-color="rgb(80.92041%, 100%, 10.931396%)" offset="0.433594"/><stop stop-opacity="1" stop-color="rgb(81.925964%, 100%, 10.707092%)" offset="0.4375"/><stop stop-opacity="1" stop-color="rgb(82.929993%, 100%, 10.481262%)" offset="0.441406"/><stop stop-opacity="1" stop-color="rgb(83.934021%, 100%, 10.255432%)" offset="0.445313"/><stop stop-opacity="1" stop-color="rgb(84.938049%, 100%, 10.029602%)" offset="0.449219"/><stop stop-opacity="1" stop-color="rgb(85.943604%, 100%, 9.805298%)" offset="0.453125"/><stop stop-opacity="1" stop-color="rgb(86.947632%, 100%, 9.579468%)" offset="0.457031"/><stop stop-opacity="1" stop-color="rgb(87.953186%, 100%, 9.353638%)" offset="0.460938"/><stop stop-opacity="1" stop-color="rgb(88.957214%, 100%, 9.127808%)" offset="0.464844"/><stop stop-opacity="1" stop-color="rgb(89.962769%, 100%, 8.903503%)" offset="0.46875"/><stop stop-opacity="1" stop-color="rgb(90.966797%, 100%, 8.677673%)" offset="0.472656"/><stop stop-opacity="1" stop-color="rgb(91.970825%, 100%, 8.451843%)" offset="0.476563"/><stop stop-opacity="1" stop-color="rgb(92.974854%, 100%, 8.226013%)" offset="0.480469"/><stop stop-opacity="1" stop-color="rgb(93.980408%, 100%, 8.001709%)" offset="0.484375"/><stop stop-opacity="1" stop-color="rgb(94.984436%, 100%, 7.775879%)" offset="0.488281"/><stop stop-opacity="1" stop-color="rgb(95.98999%, 100%, 7.550049%)" offset="0.492188"/><stop stop-opacity="1" stop-color="rgb(96.994019%, 100%, 7.324219%)" offset="0.496094"/><stop stop-opacity="1" stop-color="rgb(97.999573%, 100%, 7.099915%)" offset="0.5"/><stop stop-opacity="1" stop-color="rgb(96.994019%, 100%, 7.324219%)" offset="0.503906"/><stop stop-opacity="1" stop-color="rgb(95.98999%, 100%, 7.550049%)" offset="0.507812"/><stop stop-opacity="1" stop-color="rgb(94.984436%, 100%, 7.775879%)" offset="0.511719"/><stop stop-opacity="1" stop-color="rgb(93.980408%, 100%, 8.001709%)" offset="0.515625"/><stop stop-opacity="1" stop-color="rgb(92.974854%, 100%, 8.226013%)" offset="0.519531"/><stop stop-opacity="1" stop-color="rgb(91.970825%, 100%, 8.451843%)" offset="0.523438"/><stop stop-opacity="1" stop-color="rgb(90.966797%, 100%, 8.677673%)" offset="0.527344"/><stop stop-opacity="1" stop-color="rgb(89.962769%, 100%, 8.903503%)" offset="0.53125"/><stop stop-opacity="1" stop-color="rgb(88.957214%, 100%, 9.127808%)" offset="0.535156"/><stop stop-opacity="1" stop-color="rgb(87.953186%, 100%, 9.353638%)" offset="0.539063"/><stop stop-opacity="1" stop-color="rgb(86.947632%, 100%, 9.579468%)" offset="0.542969"/><stop stop-opacity="1" stop-color="rgb(85.943604%, 100%, 9.805298%)" offset="0.546875"/><stop stop-opacity="1" stop-color="rgb(84.938049%, 100%, 10.029602%)" offset="0.550781"/><stop stop-opacity="1" stop-color="rgb(83.934021%, 100%, 10.255432%)" offset="0.554688"/><stop stop-opacity="1" stop-color="rgb(82.929993%, 100%, 10.481262%)" offset="0.558594"/><stop stop-opacity="1" stop-color="rgb(81.925964%, 100%, 10.707092%)" offset="0.5625"/><stop stop-opacity="1" stop-color="rgb(80.92041%, 100%, 10.931396%)" offset="0.566406"/><stop stop-opacity="1" stop-color="rgb(79.916382%, 100%, 11.157227%)" offset="0.570313"/><stop stop-opacity="1" stop-color="rgb(78.910828%, 100%, 11.383057%)" offset="0.574219"/><stop stop-opacity="1" stop-color="rgb(77.906799%, 100%, 11.608887%)" offset="0.578125"/><stop stop-opacity="1" stop-color="rgb(76.901245%, 100%, 11.833191%)" offset="0.582031"/><stop stop-opacity="1" stop-color="rgb(75.897217%, 100%, 12.059021%)" offset="0.585938"/><stop stop-opacity="1" stop-color="rgb(74.891663%, 100%, 12.284851%)" offset="0.589844"/><stop stop-opacity="1" stop-color="rgb(73.887634%, 100%, 12.510681%)" offset="0.59375"/><stop stop-opacity="1" stop-color="rgb(72.883606%, 100%, 12.734985%)" offset="0.597656"/><stop stop-opacity="1" stop-color="rgb(71.879578%, 100%, 12.960815%)" offset="0.601562"/><stop stop-opacity="1" stop-color="rgb(70.874023%, 100%, 13.186646%)" offset="0.605469"/><stop stop-opacity="1" stop-color="rgb(69.869995%, 100%, 13.412476%)" offset="0.609375"/><stop stop-opacity="1" stop-color="rgb(68.864441%, 100%, 13.63678%)" offset="0.613281"/><stop stop-opacity="1" stop-color="rgb(67.860413%, 100%, 13.86261%)" offset="0.617188"/><stop stop-opacity="1" stop-color="rgb(66.854858%, 100%, 14.08844%)" offset="0.621094"/><stop stop-opacity="1" stop-color="rgb(65.85083%, 100%, 14.31427%)" offset="0.625"/><stop stop-opacity="1" stop-color="rgb(64.846802%, 100%, 14.538574%)" offset="0.628906"/><stop stop-opacity="1" stop-color="rgb(63.842773%, 100%, 14.764404%)" offset="0.632813"/><stop stop-opacity="1" stop-color="rgb(62.837219%, 100%, 14.990234%)" offset="0.636719"/><stop stop-opacity="1" stop-color="rgb(61.833191%, 100%, 15.216064%)" offset="0.640625"/><stop stop-opacity="1" stop-color="rgb(60.827637%, 100%, 15.440369%)" offset="0.644531"/><stop stop-opacity="1" stop-color="rgb(59.823608%, 100%, 15.666199%)" offset="0.648438"/><stop stop-opacity="1" stop-color="rgb(58.818054%, 100%, 15.892029%)" offset="0.652344"/><stop stop-opacity="1" stop-color="rgb(57.814026%, 100%, 16.117859%)" offset="0.65625"/><stop stop-opacity="1" stop-color="rgb(56.808472%, 100%, 16.342163%)" offset="0.660156"/><stop stop-opacity="1" stop-color="rgb(55.804443%, 100%, 16.567993%)" offset="0.664063"/><stop stop-opacity="1" stop-color="rgb(54.800415%, 100%, 16.793823%)" offset="0.667969"/><stop stop-opacity="1" stop-color="rgb(53.796387%, 100%, 17.019653%)" offset="0.671875"/><stop stop-opacity="1" stop-color="rgb(52.790833%, 100%, 17.243958%)" offset="0.675781"/><stop stop-opacity="1" stop-color="rgb(51.786804%, 100%, 17.469788%)" offset="0.679688"/><stop stop-opacity="1" stop-color="rgb(50.78125%, 100%, 17.695618%)" offset="0.683594"/><stop stop-opacity="1" stop-color="rgb(49.777222%, 100%, 17.921448%)" offset="0.6875"/><stop stop-opacity="1" stop-color="rgb(48.771667%, 100%, 18.145752%)" offset="0.691406"/><stop stop-opacity="1" stop-color="rgb(47.767639%, 100%, 18.371582%)" offset="0.695312"/><stop stop-opacity="1" stop-color="rgb(46.763611%, 100%, 18.597412%)" offset="0.699219"/><stop stop-opacity="1" stop-color="rgb(45.759583%, 100%, 18.823242%)" offset="0.703125"/><stop stop-opacity="1" stop-color="rgb(44.754028%, 100%, 19.047546%)" offset="0.707031"/><stop stop-opacity="1" stop-color="rgb(43.75%, 100%, 19.273376%)" offset="0.710938"/><stop stop-opacity="1" stop-color="rgb(42.744446%, 100%, 19.499207%)" offset="0.714844"/><stop stop-opacity="1" stop-color="rgb(41.740417%, 100%, 19.725037%)" offset="0.71875"/><stop stop-opacity="1" stop-color="rgb(40.734863%, 100%, 19.949341%)" offset="0.722656"/><stop stop-opacity="1" stop-color="rgb(39.730835%, 100%, 20.175171%)" offset="0.726562"/><stop stop-opacity="1" stop-color="rgb(38.725281%, 100%, 20.401001%)" offset="0.730469"/><stop stop-opacity="1" stop-color="rgb(37.721252%, 100%, 20.626831%)" offset="0.734375"/><stop stop-opacity="1" stop-color="rgb(36.717224%, 100%, 20.852661%)" offset="0.738281"/><stop stop-opacity="1" stop-color="rgb(35.713196%, 100%, 21.078491%)" offset="0.742188"/><stop stop-opacity="1" stop-color="rgb(34.707642%, 100%, 21.302795%)" offset="0.746094"/><stop stop-opacity="1" stop-color="rgb(33.703613%, 100%, 21.528625%)" offset="0.75"/><stop stop-opacity="1" stop-color="rgb(32.698059%, 100%, 21.754456%)" offset="0.753906"/><stop stop-opacity="1" stop-color="rgb(31.694031%, 100%, 21.980286%)" offset="0.757812"/><stop stop-opacity="1" stop-color="rgb(30.688477%, 100%, 22.20459%)" offset="0.761719"/><stop stop-opacity="1" stop-color="rgb(29.684448%, 100%, 22.43042%)" offset="0.765625"/><stop stop-opacity="1" stop-color="rgb(28.678894%, 100%, 22.65625%)" offset="0.769531"/><stop stop-opacity="1" stop-color="rgb(27.674866%, 100%, 22.88208%)" offset="0.773438"/><stop stop-opacity="1" stop-color="rgb(26.670837%, 100%, 23.106384%)" offset="0.777344"/><stop stop-opacity="1" stop-color="rgb(25.666809%, 100%, 23.332214%)" offset="0.78125"/><stop stop-opacity="1" stop-color="rgb(24.661255%, 100%, 23.558044%)" offset="0.785156"/><stop stop-opacity="1" stop-color="rgb(23.657227%, 100%, 23.783875%)" offset="0.789062"/><stop stop-opacity="1" stop-color="rgb(22.651672%, 100%, 24.008179%)" offset="0.792969"/><stop stop-opacity="1" stop-color="rgb(21.647644%, 100%, 24.234009%)" offset="0.796875"/><stop stop-opacity="1" stop-color="rgb(20.64209%, 100%, 24.459839%)" offset="0.800781"/><stop stop-opacity="1" stop-color="rgb(19.638062%, 100%, 24.685669%)" offset="0.804688"/><stop stop-opacity="1" stop-color="rgb(18.634033%, 100%, 24.909973%)" offset="0.808594"/><stop stop-opacity="1" stop-color="rgb(17.630005%, 100%, 25.135803%)" offset="0.8125"/><stop stop-opacity="1" stop-color="rgb(16.624451%, 100%, 25.361633%)" offset="0.816406"/><stop stop-opacity="1" stop-color="rgb(15.620422%, 100%, 25.587463%)" offset="0.820312"/><stop stop-opacity="1" stop-color="rgb(14.614868%, 100%, 25.811768%)" offset="0.824219"/><stop stop-opacity="1" stop-color="rgb(13.61084%, 100%, 26.037598%)" offset="0.828125"/><stop stop-opacity="1" stop-color="rgb(12.605286%, 100%, 26.263428%)" offset="0.832031"/><stop stop-opacity="1" stop-color="rgb(11.601257%, 100%, 26.489258%)" offset="0.835938"/><stop stop-opacity="1" stop-color="rgb(10.595703%, 100%, 26.713562%)" offset="0.839844"/><stop stop-opacity="1" stop-color="rgb(9.591675%, 100%, 26.939392%)" offset="0.84375"/><stop stop-opacity="1" stop-color="rgb(8.587646%, 100%, 27.165222%)" offset="0.847656"/><stop stop-opacity="1" stop-color="rgb(7.583618%, 100%, 27.391052%)" offset="0.851562"/><stop stop-opacity="1" stop-color="rgb(7.341003%, 100%, 27.444458%)" offset="0.855469"/><stop stop-opacity="1" stop-color="rgb(7.099915%, 100%, 27.49939%)" offset="0.859375"/><stop stop-opacity="1" stop-color="rgb(7.099915%, 100%, 27.49939%)" offset="0.875"/><stop stop-opacity="1" stop-color="rgb(7.099915%, 100%, 27.49939%)" offset="1"/></linearGradient><clipPath id="e433bdf08e"><path d="M 72.300781 72.300781 L 302.550781 72.300781 L 302.550781 302.550781 L 72.300781 302.550781 Z M 72.300781 72.300781 " clip-rule="nonzero"/></clipPath></defs><g clip-path="url(#4f920275cd)"><g clip-path="url(#489dcbce42)"><path fill="url(#fb9688ab34)" d="M 12.046875 12.046875 L 12.046875 363.046875 L 363.046875 363.046875 L 363.046875 12.046875 Z M 12.046875 12.046875 " fill-rule="nonzero"/></g></g><g clip-path="url(#e433bdf08e)"><path fill="#39b54a" d="M 302.550781 187.425781 C 302.550781 189.308594 302.503906 191.191406 302.410156 193.074219 C 302.320312 194.957031 302.179688 196.835938 301.996094 198.710938 C 301.8125 200.585938 301.582031 202.453125 301.304688 204.316406 C 301.027344 206.179688 300.707031 208.035156 300.335938 209.882812 C 299.96875 211.734375 299.558594 213.570312 299.101562 215.398438 C 298.640625 217.226562 298.140625 219.042969 297.59375 220.84375 C 297.046875 222.648438 296.453125 224.433594 295.820312 226.210938 C 295.183594 227.984375 294.507812 229.742188 293.785156 231.480469 C 293.066406 233.222656 292.300781 234.945312 291.496094 236.648438 C 290.691406 238.351562 289.84375 240.03125 288.957031 241.695312 C 288.066406 243.355469 287.140625 244.996094 286.171875 246.609375 C 285.203125 248.226562 284.195312 249.820312 283.148438 251.386719 C 282.101562 252.953125 281.015625 254.492188 279.894531 256.003906 C 278.773438 257.519531 277.613281 259.003906 276.417969 260.460938 C 275.222656 261.914062 273.992188 263.34375 272.726562 264.738281 C 271.460938 266.132812 270.164062 267.5 268.832031 268.832031 C 267.5 270.164062 266.132812 271.460938 264.738281 272.726562 C 263.34375 273.992188 261.914062 275.222656 260.460938 276.417969 C 259.003906 277.613281 257.519531 278.773438 256.003906 279.894531 C 254.492188 281.015625 252.953125 282.101562 251.386719 283.148438 C 249.820312 284.195312 248.226562 285.203125 246.609375 286.171875 C 244.996094 287.140625 243.355469 288.066406 241.695312 288.957031 C 240.03125 289.84375 238.351562 290.691406 236.648438 291.496094 C 234.945312 292.300781 233.222656 293.066406 231.480469 293.785156 C 229.742188 294.507812 227.984375 295.183594 226.210938 295.820312 C 224.433594 296.453125 222.648438 297.046875 220.84375 297.59375 C 219.042969 298.140625 217.226562 298.640625 215.398438 299.101562 C 213.570312 299.558594 211.734375 299.96875 209.882812 300.335938 C 208.035156 300.707031 206.179688 301.027344 204.316406 301.304688 C 202.453125 301.582031 200.585938 301.8125 198.710938 301.996094 C 196.835938 302.179688 194.957031 302.320312 193.074219 302.410156 C 191.191406 302.503906 189.308594 302.550781 187.425781 302.550781 C 185.539062 302.550781 183.65625 302.503906 181.777344 302.410156 C 179.894531 302.320312 178.015625 302.179688 176.140625 301.996094 C 174.265625 301.8125 172.394531 301.582031 170.53125 301.304688 C 168.667969 301.027344 166.8125 300.707031 164.964844 300.335938 C 163.117188 299.96875 161.28125 299.558594 159.453125 299.101562 C 157.625 298.640625 155.808594 298.140625 154.007812 297.59375 C 152.203125 297.046875 150.414062 296.453125 148.640625 295.820312 C 146.867188 295.183594 145.109375 294.507812 143.367188 293.785156 C 141.628906 293.066406 139.90625 292.300781 138.203125 291.496094 C 136.5 290.691406 134.816406 289.84375 133.15625 288.957031 C 131.492188 288.066406 129.855469 287.140625 128.238281 286.171875 C 126.621094 285.203125 125.03125 284.195312 123.464844 283.148438 C 121.898438 282.101562 120.359375 281.015625 118.84375 279.894531 C 117.332031 278.773438 115.847656 277.613281 114.390625 276.417969 C 112.933594 275.222656 111.507812 273.992188 110.113281 272.726562 C 108.714844 271.460938 107.351562 270.164062 106.019531 268.832031 C 104.6875 267.5 103.386719 266.132812 102.121094 264.738281 C 100.859375 263.34375 99.628906 261.914062 98.433594 260.460938 C 97.238281 259.003906 96.078125 257.519531 94.957031 256.003906 C 93.832031 254.492188 92.75 252.953125 91.703125 251.386719 C 90.65625 249.820312 89.648438 248.226562 88.679688 246.609375 C 87.710938 244.996094 86.78125 243.355469 85.894531 241.695312 C 85.003906 240.03125 84.160156 238.351562 83.351562 236.648438 C 82.546875 234.945312 81.785156 233.222656 81.0625 231.480469 C 80.34375 229.742188 79.664062 227.984375 79.03125 226.210938 C 78.394531 224.433594 77.804688 222.648438 77.257812 220.84375 C 76.710938 219.042969 76.207031 217.226562 75.75 215.398438 C 75.292969 213.570312 74.878906 211.734375 74.511719 209.882812 C 74.144531 208.035156 73.824219 206.179688 73.546875 204.316406 C 73.269531 202.453125 73.039062 200.585938 72.855469 198.710938 C 72.667969 196.835938 72.53125 194.957031 72.4375 193.074219 C 72.347656 191.191406 72.300781 189.308594 72.300781 187.425781 C 72.300781 185.539062 72.347656 183.65625 72.4375 181.777344 C 72.53125 179.894531 72.667969 178.015625 72.855469 176.140625 C 73.039062 174.265625 73.269531 172.394531 73.546875 170.53125 C 73.824219 168.667969 74.144531 166.8125 74.511719 164.964844 C 74.878906 163.117188 75.292969 161.28125 75.75 159.453125 C 76.207031 157.625 76.710938 155.808594 77.257812 154.007812 C 77.804688 152.203125 78.394531 150.414062 79.03125 148.640625 C 79.664062 146.867188 80.34375 145.109375 81.0625 143.367188 C 81.785156 141.628906 82.546875 139.90625 83.351562 138.203125 C 84.160156 136.5 85.003906 134.816406 85.894531 133.15625 C 86.78125 131.492188 87.710938 129.855469 88.679688 128.238281 C 89.648438 126.621094 90.65625 125.03125 91.703125 123.464844 C 92.75 121.898438 93.832031 120.359375 94.957031 118.84375 C 96.078125 117.332031 97.238281 115.847656 98.433594 114.390625 C 99.628906 112.933594 100.859375 111.507812 102.121094 110.113281 C 103.386719 108.714844 104.6875 107.351562 106.019531 106.019531 C 107.351562 104.6875 108.714844 103.386719 110.113281 102.121094 C 111.507812 100.859375 112.933594 99.628906 114.390625 98.433594 C 115.847656 97.238281 117.332031 96.078125 118.84375 94.957031 C 120.359375 93.832031 121.898438 92.75 123.464844 91.703125 C 125.03125 90.65625 126.621094 89.648438 128.238281 88.679688 C 129.855469 87.710938 131.492188 86.78125 133.15625 85.894531 C 134.816406 85.003906 136.5 84.160156 138.203125 83.351562 C 139.90625 82.546875 141.628906 81.785156 143.367188 81.0625 C 145.109375 80.34375 146.867188 79.664062 148.640625 79.03125 C 150.414062 78.394531 152.203125 77.804688 154.007812 77.257812 C 155.808594 76.710938 157.625 76.207031 159.453125 75.75 C 161.28125 75.292969 163.117188 74.878906 164.964844 74.511719 C 166.8125 74.144531 168.667969 73.824219 170.53125 73.546875 C 172.394531 73.269531 174.265625 73.039062 176.140625 72.855469 C 178.015625 72.667969 179.894531 72.53125 181.777344 72.4375 C 183.65625 72.347656 185.539062 72.300781 187.425781 72.300781 C 189.308594 72.300781 191.191406 72.347656 193.074219 72.4375 C 194.957031 72.53125 196.835938 72.667969 198.710938 72.855469 C 200.585938 73.039062 202.453125 73.269531 204.316406 73.546875 C 206.179688 73.824219 208.035156 74.144531 209.882812 74.511719 C 211.734375 74.878906 213.570312 75.292969 215.398438 75.75 C 217.226562 76.207031 219.042969 76.710938 220.84375 77.257812 C 222.648438 77.804688 224.433594 78.394531 226.210938 79.03125 C 227.984375 79.664062 229.742188 80.34375 231.480469 81.0625 C 233.222656 81.785156 234.945312 82.546875 236.648438 83.351562 C 238.351562 84.160156 240.03125 85.003906 241.695312 85.894531 C 243.355469 86.78125 244.996094 87.710938 246.609375 88.679688 C 248.226562 89.648438 249.820312 90.65625 251.386719 91.703125 C 252.953125 92.75 254.492188 93.832031 256.003906 94.957031 C 257.519531 96.078125 259.003906 97.238281 260.460938 98.433594 C 261.914062 99.628906 263.34375 100.859375 264.738281 102.121094 C 266.132812 103.386719 267.5 104.6875 268.832031 106.019531 C 270.164062 107.351562 271.460938 108.714844 272.726562 110.113281 C 273.992188 111.507812 275.222656 112.933594 276.417969 114.390625 C 277.613281 115.847656 278.773438 117.332031 279.894531 118.84375 C 281.015625 120.359375 282.101562 121.898438 283.148438 123.464844 C 284.195312 125.03125 285.203125 126.621094 286.171875 128.238281 C 287.140625 129.855469 288.066406 131.492188 288.957031 133.15625 C 289.84375 134.816406 290.691406 136.5 291.496094 138.203125 C 292.300781 139.90625 293.066406 141.628906 293.785156 143.367188 C 294.507812 145.109375 295.183594 146.867188 295.820312 148.640625 C 296.453125 150.414062 297.046875 152.203125 297.59375 154.007812 C 298.140625 155.808594 298.640625 157.625 299.101562 159.453125 C 299.558594 161.28125 299.96875 163.117188 300.335938 164.964844 C 300.707031 166.8125 301.027344 168.667969 301.304688 170.53125 C 301.582031 172.394531 301.8125 174.265625 301.996094 176.140625 C 302.179688 178.015625 302.320312 179.894531 302.410156 181.777344 C 302.503906 183.65625 302.550781 185.539062 302.550781 187.425781 Z M 302.550781 187.425781 " fill-opacity="1" fill-rule="nonzero"/></g><path fill="#ffffff" d="M 244.183594 217.164062 C 225.597656 201.351562 220.105469 208.898438 211.835938 217.828125 C 205.625 224.042969 190.476562 210.949219 177.382812 197.855469 C 164.34375 184.097656 151.25 168.949219 157.410156 162.734375 C 166.398438 153.804688 173.941406 148.253906 158.128906 129.003906 C 142.984375 109.75 133.332031 124.898438 124.398438 133.164062 C 115.464844 142.816406 124.398438 179.269531 159.519531 215.777344 C 195.304688 252.285156 231.089844 261.214844 240.742188 251.5625 C 249.011719 243.351562 263.433594 233.03125 244.183594 217.164062 Z M 244.183594 217.164062 " fill-opacity="1" fill-rule="evenodd"/></svg>