<svg xmlns="http://www.w3.org/2000/svg" xmlns:xlink="http://www.w3.org/1999/xlink" width="500" zoomAndPan="magnify" viewBox="0 0 375 374.999991" height="500" preserveAspectRatio="xMidYMid meet" version="1.0"><defs><clipPath id="7f56b0880f"><path d="M 12.046875 12.046875 L 363.046875 12.046875 L 363.046875 363.046875 L 12.046875 363.046875 Z M 12.046875 12.046875 " clip-rule="nonzero"/></clipPath><clipPath id="bcd380c3db"><path d="M 187.578125 363.105469 C 90.789062 363.105469 12.046875 284.363281 12.046875 187.578125 C 12.046875 90.789062 90.789062 12.046875 187.578125 12.046875 C 284.363281 12.046875 363.105469 90.789062 363.105469 187.578125 C 363.105469 284.363281 284.363281 363.105469 187.578125 363.105469 Z M 187.578125 26.808594 C 98.929688 26.808594 26.808594 98.929688 26.808594 187.578125 C 26.808594 276.226562 98.929688 348.34375 187.578125 348.34375 C 276.222656 348.34375 348.34375 276.226562 348.34375 187.578125 C 348.34375 98.929688 276.222656 26.808594 187.578125 26.808594 Z M 187.578125 26.808594 " clip-rule="nonzero"/></clipPath><linearGradient x1="0.0189881" gradientTransform="matrix(1.47603, 0, 0, 1.47603, 12.048819, 12.0488)" y1="237.819011" x2="237.819005" gradientUnits="userSpaceOnUse" y2="0.0189938" id="49ced51e20"><stop stop-opacity="1" stop-color="rgb(7.099915%, 100%, 27.49939%)" offset="0"/><stop stop-opacity="1" stop-color="rgb(7.099915%, 100%, 27.49939%)" offset="0.125"/><stop stop-opacity="1" stop-color="rgb(7.099915%, 100%, 27.49939%)" offset="0.140625"/><stop stop-opacity="1" stop-color="rgb(7.341003%, 100%, 27.444458%)" offset="0.144531"/><stop stop-opacity="1" stop-color="rgb(7.583618%, 100%, 27.391052%)" offset="0.148437"/><stop stop-opacity="1" stop-color="rgb(8.587646%, 100%, 27.165222%)" offset="0.152344"/><stop stop-opacity="1" stop-color="rgb(9.591675%, 100%, 26.939392%)" offset="0.15625"/><stop stop-opacity="1" stop-color="rgb(10.595703%, 100%, 26.713562%)" offset="0.160156"/><stop stop-opacity="1" stop-color="rgb(11.601257%, 100%, 26.489258%)" offset="0.164062"/><stop stop-opacity="1" stop-color="rgb(12.605286%, 100%, 26.263428%)" offset="0.167969"/><stop stop-opacity="1" stop-color="rgb(13.61084%, 100%, 26.037598%)" offset="0.171875"/><stop stop-opacity="1" stop-color="rgb(14.614868%, 100%, 25.811768%)" offset="0.175781"/><stop stop-opacity="1" stop-color="rgb(15.620422%, 100%, 25.587463%)" offset="0.179688"/><stop stop-opacity="1" stop-color="rgb(16.624451%, 100%, 25.361633%)" offset="0.183594"/><stop stop-opacity="1" stop-color="rgb(17.630005%, 100%, 25.135803%)" offset="0.1875"/><stop stop-opacity="1" stop-color="rgb(18.634033%, 100%, 24.909973%)" offset="0.191406"/><stop stop-opacity="1" stop-color="rgb(19.638062%, 100%, 24.685669%)" offset="0.195312"/><stop stop-opacity="1" stop-color="rgb(20.64209%, 100%, 24.459839%)" offset="0.199219"/><stop stop-opacity="1" stop-color="rgb(21.647644%, 100%, 24.234009%)" offset="0.203125"/><stop stop-opacity="1" stop-color="rgb(22.651672%, 100%, 24.008179%)" offset="0.207031"/><stop stop-opacity="1" stop-color="rgb(23.657227%, 100%, 23.783875%)" offset="0.210937"/><stop stop-opacity="1" stop-color="rgb(24.661255%, 100%, 23.558044%)" offset="0.214844"/><stop stop-opacity="1" stop-color="rgb(25.666809%, 100%, 23.332214%)" offset="0.21875"/><stop stop-opacity="1" stop-color="rgb(26.670837%, 100%, 23.106384%)" offset="0.222656"/><stop stop-opacity="1" stop-color="rgb(27.674866%, 100%, 22.88208%)" offset="0.226562"/><stop stop-opacity="1" stop-color="rgb(28.678894%, 100%, 22.65625%)" offset="0.230469"/><stop stop-opacity="1" stop-color="rgb(29.684448%, 100%, 22.43042%)" offset="0.234375"/><stop stop-opacity="1" stop-color="rgb(30.688477%, 100%, 22.20459%)" offset="0.238281"/><stop stop-opacity="1" stop-color="rgb(31.694031%, 100%, 21.980286%)" offset="0.242188"/><stop stop-opacity="1" stop-color="rgb(32.698059%, 100%, 21.754456%)" offset="0.246094"/><stop stop-opacity="1" stop-color="rgb(33.703613%, 100%, 21.528625%)" offset="0.25"/><stop stop-opacity="1" stop-color="rgb(34.707642%, 100%, 21.302795%)" offset="0.253906"/><stop stop-opacity="1" stop-color="rgb(35.713196%, 100%, 21.078491%)" offset="0.257812"/><stop stop-opacity="1" stop-color="rgb(36.717224%, 100%, 20.852661%)" offset="0.261719"/><stop stop-opacity="1" stop-color="rgb(37.721252%, 100%, 20.626831%)" offset="0.265625"/><stop stop-opacity="1" stop-color="rgb(38.725281%, 100%, 20.401001%)" offset="0.269531"/><stop stop-opacity="1" stop-color="rgb(39.730835%, 100%, 20.175171%)" offset="0.273438"/><stop stop-opacity="1" stop-color="rgb(40.734863%, 100%, 19.949341%)" offset="0.277344"/><stop stop-opacity="1" stop-color="rgb(41.740417%, 100%, 19.725037%)" offset="0.28125"/><stop stop-opacity="1" stop-color="rgb(42.744446%, 100%, 19.499207%)" offset="0.285156"/><stop stop-opacity="1" stop-color="rgb(43.75%, 100%, 19.273376%)" offset="0.289062"/><stop stop-opacity="1" stop-color="rgb(44.754028%, 100%, 19.047546%)" offset="0.292969"/><stop stop-opacity="1" stop-color="rgb(45.759583%, 100%, 18.823242%)" offset="0.296875"/><stop stop-opacity="1" stop-color="rgb(46.763611%, 100%, 18.597412%)" offset="0.300781"/><stop stop-opacity="1" stop-color="rgb(47.767639%, 100%, 18.371582%)" offset="0.304688"/><stop stop-opacity="1" stop-color="rgb(48.771667%, 100%, 18.145752%)" offset="0.308594"/><stop stop-opacity="1" stop-color="rgb(49.777222%, 100%, 17.921448%)" offset="0.3125"/><stop stop-opacity="1" stop-color="rgb(50.78125%, 100%, 17.695618%)" offset="0.316406"/><stop stop-opacity="1" stop-color="rgb(51.786804%, 100%, 17.469788%)" offset="0.320312"/><stop stop-opacity="1" stop-color="rgb(52.790833%, 100%, 17.243958%)" offset="0.324219"/><stop stop-opacity="1" stop-color="rgb(53.796387%, 100%, 17.019653%)" offset="0.328125"/><stop stop-opacity="1" stop-color="rgb(54.800415%, 100%, 16.793823%)" offset="0.332031"/><stop stop-opacity="1" stop-color="rgb(55.804443%, 100%, 16.567993%)" offset="0.335938"/><stop stop-opacity="1" stop-color="rgb(56.808472%, 100%, 16.342163%)" offset="0.339844"/><stop stop-opacity="1" stop-color="rgb(57.814026%, 100%, 16.117859%)" offset="0.34375"/><stop stop-opacity="1" stop-color="rgb(58.818054%, 100%, 15.892029%)" offset="0.347656"/><stop stop-opacity="1" stop-color="rgb(59.823608%, 100%, 15.666199%)" offset="0.351562"/><stop stop-opacity="1" stop-color="rgb(60.827637%, 100%, 15.440369%)" offset="0.355469"/><stop stop-opacity="1" stop-color="rgb(61.833191%, 100%, 15.216064%)" offset="0.359375"/><stop stop-opacity="1" stop-color="rgb(62.837219%, 100%, 14.990234%)" offset="0.363281"/><stop stop-opacity="1" stop-color="rgb(63.842773%, 100%, 14.764404%)" offset="0.367188"/><stop stop-opacity="1" stop-color="rgb(64.846802%, 100%, 14.538574%)" offset="0.371094"/><stop stop-opacity="1" stop-color="rgb(65.85083%, 100%, 14.31427%)" offset="0.375"/><stop stop-opacity="1" stop-color="rgb(66.854858%, 100%, 14.08844%)" offset="0.378906"/><stop stop-opacity="1" stop-color="rgb(67.860413%, 100%, 13.86261%)" offset="0.382813"/><stop stop-opacity="1" stop-color="rgb(68.864441%, 100%, 13.63678%)" offset="0.386719"/><stop stop-opacity="1" stop-color="rgb(69.869995%, 100%, 13.412476%)" offset="0.390625"/><stop stop-opacity="1" stop-color="rgb(70.874023%, 100%, 13.186646%)" offset="0.394531"/><stop stop-opacity="1" stop-color="rgb(71.879578%, 100%, 12.960815%)" offset="0.398438"/><stop stop-opacity="1" stop-color="rgb(72.883606%, 100%, 12.734985%)" offset="0.402344"/><stop stop-opacity="1" stop-color="rgb(73.887634%, 100%, 12.510681%)" offset="0.40625"/><stop stop-opacity="1" stop-color="rgb(74.891663%, 100%, 12.284851%)" offset="0.410156"/><stop stop-opacity="1" stop-color="rgb(75.897217%, 100%, 12.059021%)" offset="0.414062"/><stop stop-opacity="1" stop-color="rgb(76.901245%, 100%, 11.833191%)" offset="0.417969"/><stop stop-opacity="1" stop-color="rgb(77.906799%, 100%, 11.608887%)" offset="0.421875"/><stop stop-opacity="1" stop-color="rgb(78.910828%, 100%, 11.383057%)" offset="0.425781"/><stop stop-opacity="1" stop-color="rgb(79.916382%, 100%, 11.157227%)" offset="0.429688"/><stop stop-opacity="1" stop-color="rgb(80.92041%, 100%, 10.931396%)" offset="0.433594"/><stop stop-opacity="1" stop-color="rgb(81.925964%, 100%, 10.707092%)" offset="0.4375"/><stop stop-opacity="1" stop-color="rgb(82.929993%, 100%, 10.481262%)" offset="0.441406"/><stop stop-opacity="1" stop-color="rgb(83.934021%, 100%, 10.255432%)" offset="0.445312"/><stop stop-opacity="1" stop-color="rgb(84.938049%, 100%, 10.029602%)" offset="0.449219"/><stop stop-opacity="1" stop-color="rgb(85.943604%, 100%, 9.805298%)" offset="0.453125"/><stop stop-opacity="1" stop-color="rgb(86.947632%, 100%, 9.579468%)" offset="0.457031"/><stop stop-opacity="1" stop-color="rgb(87.953186%, 100%, 9.353638%)" offset="0.460938"/><stop stop-opacity="1" stop-color="rgb(88.957214%, 100%, 9.127808%)" offset="0.464844"/><stop stop-opacity="1" stop-color="rgb(89.962769%, 100%, 8.903503%)" offset="0.46875"/><stop stop-opacity="1" stop-color="rgb(90.966797%, 100%, 8.677673%)" offset="0.472656"/><stop stop-opacity="1" stop-color="rgb(91.970825%, 100%, 8.451843%)" offset="0.476563"/><stop stop-opacity="1" stop-color="rgb(92.974854%, 100%, 8.226013%)" offset="0.480469"/><stop stop-opacity="1" stop-color="rgb(93.980408%, 100%, 8.001709%)" offset="0.484375"/><stop stop-opacity="1" stop-color="rgb(94.984436%, 100%, 7.775879%)" offset="0.488281"/><stop stop-opacity="1" stop-color="rgb(95.98999%, 100%, 7.550049%)" offset="0.492188"/><stop stop-opacity="1" stop-color="rgb(96.994019%, 100%, 7.324219%)" offset="0.496094"/><stop stop-opacity="1" stop-color="rgb(97.999573%, 100%, 7.099915%)" offset="0.5"/><stop stop-opacity="1" stop-color="rgb(96.994019%, 100%, 7.324219%)" offset="0.503906"/><stop stop-opacity="1" stop-color="rgb(95.98999%, 100%, 7.550049%)" offset="0.507812"/><stop stop-opacity="1" stop-color="rgb(94.984436%, 100%, 7.775879%)" offset="0.511719"/><stop stop-opacity="1" stop-color="rgb(93.980408%, 100%, 8.001709%)" offset="0.515625"/><stop stop-opacity="1" stop-color="rgb(92.974854%, 100%, 8.226013%)" offset="0.519531"/><stop stop-opacity="1" stop-color="rgb(91.970825%, 100%, 8.451843%)" offset="0.523438"/><stop stop-opacity="1" stop-color="rgb(90.966797%, 100%, 8.677673%)" offset="0.527344"/><stop stop-opacity="1" stop-color="rgb(89.962769%, 100%, 8.903503%)" offset="0.53125"/><stop stop-opacity="1" stop-color="rgb(88.957214%, 100%, 9.127808%)" offset="0.535156"/><stop stop-opacity="1" stop-color="rgb(87.953186%, 100%, 9.353638%)" offset="0.539062"/><stop stop-opacity="1" stop-color="rgb(86.947632%, 100%, 9.579468%)" offset="0.542969"/><stop stop-opacity="1" stop-color="rgb(85.943604%, 100%, 9.805298%)" offset="0.546875"/><stop stop-opacity="1" stop-color="rgb(84.938049%, 100%, 10.029602%)" offset="0.550781"/><stop stop-opacity="1" stop-color="rgb(83.934021%, 100%, 10.255432%)" offset="0.554688"/><stop stop-opacity="1" stop-color="rgb(82.929993%, 100%, 10.481262%)" offset="0.558594"/><stop stop-opacity="1" stop-color="rgb(81.925964%, 100%, 10.707092%)" offset="0.5625"/><stop stop-opacity="1" stop-color="rgb(80.92041%, 100%, 10.931396%)" offset="0.566406"/><stop stop-opacity="1" stop-color="rgb(79.916382%, 100%, 11.157227%)" offset="0.570312"/><stop stop-opacity="1" stop-color="rgb(78.910828%, 100%, 11.383057%)" offset="0.574219"/><stop stop-opacity="1" stop-color="rgb(77.906799%, 100%, 11.608887%)" offset="0.578125"/><stop stop-opacity="1" stop-color="rgb(76.901245%, 100%, 11.833191%)" offset="0.582031"/><stop stop-opacity="1" stop-color="rgb(75.897217%, 100%, 12.059021%)" offset="0.585938"/><stop stop-opacity="1" stop-color="rgb(74.891663%, 100%, 12.284851%)" offset="0.589844"/><stop stop-opacity="1" stop-color="rgb(73.887634%, 100%, 12.510681%)" offset="0.59375"/><stop stop-opacity="1" stop-color="rgb(72.883606%, 100%, 12.734985%)" offset="0.597656"/><stop stop-opacity="1" stop-color="rgb(71.879578%, 100%, 12.960815%)" offset="0.601562"/><stop stop-opacity="1" stop-color="rgb(70.874023%, 100%, 13.186646%)" offset="0.605469"/><stop stop-opacity="1" stop-color="rgb(69.869995%, 100%, 13.412476%)" offset="0.609375"/><stop stop-opacity="1" stop-color="rgb(68.864441%, 100%, 13.63678%)" offset="0.613281"/><stop stop-opacity="1" stop-color="rgb(67.860413%, 100%, 13.86261%)" offset="0.617188"/><stop stop-opacity="1" stop-color="rgb(66.854858%, 100%, 14.08844%)" offset="0.621094"/><stop stop-opacity="1" stop-color="rgb(65.85083%, 100%, 14.31427%)" offset="0.625"/><stop stop-opacity="1" stop-color="rgb(64.846802%, 100%, 14.538574%)" offset="0.628906"/><stop stop-opacity="1" stop-color="rgb(63.842773%, 100%, 14.764404%)" offset="0.632812"/><stop stop-opacity="1" stop-color="rgb(62.837219%, 100%, 14.990234%)" offset="0.636719"/><stop stop-opacity="1" stop-color="rgb(61.833191%, 100%, 15.216064%)" offset="0.640625"/><stop stop-opacity="1" stop-color="rgb(60.827637%, 100%, 15.440369%)" offset="0.644531"/><stop stop-opacity="1" stop-color="rgb(59.823608%, 100%, 15.666199%)" offset="0.648438"/><stop stop-opacity="1" stop-color="rgb(58.818054%, 100%, 15.892029%)" offset="0.652344"/><stop stop-opacity="1" stop-color="rgb(57.814026%, 100%, 16.117859%)" offset="0.65625"/><stop stop-opacity="1" stop-color="rgb(56.808472%, 100%, 16.342163%)" offset="0.660156"/><stop stop-opacity="1" stop-color="rgb(55.804443%, 100%, 16.567993%)" offset="0.664062"/><stop stop-opacity="1" stop-color="rgb(54.800415%, 100%, 16.793823%)" offset="0.667969"/><stop stop-opacity="1" stop-color="rgb(53.796387%, 100%, 17.019653%)" offset="0.671875"/><stop stop-opacity="1" stop-color="rgb(52.790833%, 100%, 17.243958%)" offset="0.675781"/><stop stop-opacity="1" stop-color="rgb(51.786804%, 100%, 17.469788%)" offset="0.679688"/><stop stop-opacity="1" stop-color="rgb(50.78125%, 100%, 17.695618%)" offset="0.683594"/><stop stop-opacity="1" stop-color="rgb(49.777222%, 100%, 17.921448%)" offset="0.6875"/><stop stop-opacity="1" stop-color="rgb(48.771667%, 100%, 18.145752%)" offset="0.691406"/><stop stop-opacity="1" stop-color="rgb(47.767639%, 100%, 18.371582%)" offset="0.695312"/><stop stop-opacity="1" stop-color="rgb(46.763611%, 100%, 18.597412%)" offset="0.699219"/><stop stop-opacity="1" stop-color="rgb(45.759583%, 100%, 18.823242%)" offset="0.703125"/><stop stop-opacity="1" stop-color="rgb(44.754028%, 100%, 19.047546%)" offset="0.707031"/><stop stop-opacity="1" stop-color="rgb(43.75%, 100%, 19.273376%)" offset="0.710938"/><stop stop-opacity="1" stop-color="rgb(42.744446%, 100%, 19.499207%)" offset="0.714844"/><stop stop-opacity="1" stop-color="rgb(41.740417%, 100%, 19.725037%)" offset="0.71875"/><stop stop-opacity="1" stop-color="rgb(40.734863%, 100%, 19.949341%)" offset="0.722656"/><stop stop-opacity="1" stop-color="rgb(39.730835%, 100%, 20.175171%)" offset="0.726562"/><stop stop-opacity="1" stop-color="rgb(38.725281%, 100%, 20.401001%)" offset="0.730469"/><stop stop-opacity="1" stop-color="rgb(37.721252%, 100%, 20.626831%)" offset="0.734375"/><stop stop-opacity="1" stop-color="rgb(36.717224%, 100%, 20.852661%)" offset="0.738281"/><stop stop-opacity="1" stop-color="rgb(35.713196%, 100%, 21.078491%)" offset="0.742188"/><stop stop-opacity="1" stop-color="rgb(34.707642%, 100%, 21.302795%)" offset="0.746094"/><stop stop-opacity="1" stop-color="rgb(33.703613%, 100%, 21.528625%)" offset="0.75"/><stop stop-opacity="1" stop-color="rgb(32.698059%, 100%, 21.754456%)" offset="0.753906"/><stop stop-opacity="1" stop-color="rgb(31.694031%, 100%, 21.980286%)" offset="0.757812"/><stop stop-opacity="1" stop-color="rgb(30.688477%, 100%, 22.20459%)" offset="0.761719"/><stop stop-opacity="1" stop-color="rgb(29.684448%, 100%, 22.43042%)" offset="0.765625"/><stop stop-opacity="1" stop-color="rgb(28.678894%, 100%, 22.65625%)" offset="0.769531"/><stop stop-opacity="1" stop-color="rgb(27.674866%, 100%, 22.88208%)" offset="0.773438"/><stop stop-opacity="1" stop-color="rgb(26.670837%, 100%, 23.106384%)" offset="0.777344"/><stop stop-opacity="1" stop-color="rgb(25.666809%, 100%, 23.332214%)" offset="0.78125"/><stop stop-opacity="1" stop-color="rgb(24.661255%, 100%, 23.558044%)" offset="0.785156"/><stop stop-opacity="1" stop-color="rgb(23.657227%, 100%, 23.783875%)" offset="0.789063"/><stop stop-opacity="1" stop-color="rgb(22.651672%, 100%, 24.008179%)" offset="0.792969"/><stop stop-opacity="1" stop-color="rgb(21.647644%, 100%, 24.234009%)" offset="0.796875"/><stop stop-opacity="1" stop-color="rgb(20.64209%, 100%, 24.459839%)" offset="0.800781"/><stop stop-opacity="1" stop-color="rgb(19.638062%, 100%, 24.685669%)" offset="0.804688"/><stop stop-opacity="1" stop-color="rgb(18.634033%, 100%, 24.909973%)" offset="0.808594"/><stop stop-opacity="1" stop-color="rgb(17.630005%, 100%, 25.135803%)" offset="0.8125"/><stop stop-opacity="1" stop-color="rgb(16.624451%, 100%, 25.361633%)" offset="0.816406"/><stop stop-opacity="1" stop-color="rgb(15.620422%, 100%, 25.587463%)" offset="0.820312"/><stop stop-opacity="1" stop-color="rgb(14.614868%, 100%, 25.811768%)" offset="0.824219"/><stop stop-opacity="1" stop-color="rgb(13.61084%, 100%, 26.037598%)" offset="0.828125"/><stop stop-opacity="1" stop-color="rgb(12.605286%, 100%, 26.263428%)" offset="0.832031"/><stop stop-opacity="1" stop-color="rgb(11.601257%, 100%, 26.489258%)" offset="0.835938"/><stop stop-opacity="1" stop-color="rgb(10.595703%, 100%, 26.713562%)" offset="0.839844"/><stop stop-opacity="1" stop-color="rgb(9.591675%, 100%, 26.939392%)" offset="0.84375"/><stop stop-opacity="1" stop-color="rgb(8.587646%, 100%, 27.165222%)" offset="0.847656"/><stop stop-opacity="1" stop-color="rgb(7.583618%, 100%, 27.391052%)" offset="0.851563"/><stop stop-opacity="1" stop-color="rgb(7.341003%, 100%, 27.444458%)" offset="0.855469"/><stop stop-opacity="1" stop-color="rgb(7.099915%, 100%, 27.49939%)" offset="0.859375"/><stop stop-opacity="1" stop-color="rgb(7.099915%, 100%, 27.49939%)" offset="0.875"/><stop stop-opacity="1" stop-color="rgb(7.099915%, 100%, 27.49939%)" offset="1"/></linearGradient></defs><g clip-path="url(#7f56b0880f)"><g clip-path="url(#bcd380c3db)"><path fill="url(#49ced51e20)" d="M 12.046875 12.046875 L 12.046875 363.046875 L 363.046875 363.046875 L 363.046875 12.046875 Z M 12.046875 12.046875 " fill-rule="nonzero"/></g></g><path fill="#f2f2f2" d="M 280.777344 266.523438 L 94.125 266.523438 C 86.832031 266.523438 80.730469 260.742188 80.730469 253.28125 L 80.730469 123.964844 C 80.730469 123.085938 80.820312 122.210938 80.992188 121.351562 C 81.164062 120.488281 81.417969 119.648438 81.757812 118.835938 C 82.09375 118.023438 82.507812 117.253906 82.996094 116.519531 C 83.484375 115.789062 84.039062 115.113281 84.660156 114.492188 C 85.285156 113.867188 85.960938 113.3125 86.691406 112.824219 C 87.421875 112.335938 88.191406 111.921875 89.003906 111.585938 C 89.816406 111.25 90.652344 110.996094 91.515625 110.820312 C 92.375 110.648438 93.246094 110.5625 94.125 110.5625 L 280.777344 110.5625 C 288.070312 110.5625 294.171875 116.574219 294.171875 123.976562 L 294.171875 253.113281 C 294.007812 260.757812 288.070312 266.53125 280.777344 266.53125 Z M 280.777344 266.523438 " fill-opacity="1" fill-rule="nonzero"/><path fill="#221f1f" d="M 107.414062 266.523438 L 187.269531 208 L 187.777344 204.605469 L 105.414062 145.355469 L 105.246094 263.636719 Z M 107.414062 266.523438 " fill-opacity="0.098" fill-rule="nonzero"/><path fill="#d44c3d" d="M 94.125 266.523438 C 86.734375 266.523438 80.730469 260.742188 80.730469 253.28125 L 80.730469 123.789062 C 80.730469 116.320312 86.734375 114.972656 94.125 114.972656 C 101.515625 114.972656 107.523438 116.507812 107.523438 123.789062 L 107.523438 266.515625 Z M 94.125 266.523438 " fill-opacity="1" fill-rule="nonzero"/><path fill="#d44c3d" d="M 94.125 117.003906 C 103.617188 117.003906 105.488281 119.890625 105.488281 123.789062 L 105.488281 264.644531 L 94.125 264.644531 C 87.855469 264.644531 82.765625 259.554688 82.765625 253.269531 L 82.765625 123.789062 C 82.597656 119.78125 84.632812 117.003906 94.125 117.003906 Z M 94.125 115.132812 C 86.734375 115.140625 80.730469 116.660156 80.730469 123.789062 L 80.730469 253.101562 C 80.71875 253.984375 80.792969 254.863281 80.957031 255.730469 C 81.117188 256.601562 81.367188 257.445312 81.699219 258.265625 C 82.03125 259.085938 82.441406 259.863281 82.929688 260.597656 C 83.417969 261.335938 83.972656 262.019531 84.597656 262.644531 C 85.222656 263.269531 85.902344 263.824219 86.636719 264.3125 C 87.375 264.804688 88.152344 265.214844 88.96875 265.546875 C 89.789062 265.878906 90.632812 266.128906 91.5 266.289062 C 92.367188 266.453125 93.242188 266.527344 94.125 266.515625 L 107.523438 266.515625 L 107.523438 123.789062 C 107.414062 116.496094 101.585938 115.140625 94.125 115.140625 Z M 280.777344 117.003906 C 289.421875 117.003906 292.136719 118.699219 292.136719 123.457031 L 292.136719 253.449219 C 292.136719 259.730469 287.054688 264.824219 280.777344 264.824219 L 269.414062 264.824219 L 269.414062 123.457031 C 269.25 118.53125 272.132812 117.003906 280.777344 117.003906 Z M 280.777344 115.132812 C 273.320312 115.132812 267.382812 116.148438 267.382812 123.449219 L 267.382812 266.683594 L 280.777344 266.683594 C 288.234375 266.683594 294.171875 260.671875 294.171875 253.269531 L 294.171875 123.28125 C 294.007812 115.980469 288.070312 115.132812 280.777344 115.132812 Z M 280.777344 115.132812 " fill-opacity="1" fill-rule="nonzero"/><path fill="#d44c3d" d="M 280.777344 266.523438 L 267.382812 266.523438 L 267.382812 123.457031 C 267.382812 115.988281 273.386719 115.140625 280.777344 115.140625 C 288.167969 115.140625 294.171875 116.15625 294.171875 123.457031 L 294.171875 253.449219 C 294.15625 254.316406 294.050781 255.171875 293.867188 256.019531 C 293.679688 256.867188 293.417969 257.691406 293.070312 258.484375 C 292.726562 259.28125 292.308594 260.035156 291.816406 260.75 C 291.324219 261.464844 290.765625 262.125 290.144531 262.730469 C 289.527344 263.335938 288.851562 263.875 288.128906 264.351562 C 287.402344 264.824219 286.636719 265.222656 285.835938 265.550781 C 285.03125 265.875 284.203125 266.117188 283.351562 266.28125 C 282.503906 266.445312 281.644531 266.527344 280.777344 266.523438 Z M 280.777344 266.523438 " fill-opacity="1" fill-rule="nonzero"/><path fill="#221f1f" d="M 223.644531 266.523438 L 81.917969 129.46875 L 89.375 132.523438 L 188.113281 203.652344 L 294.167969 125.660156 L 294.167969 253.449219 C 294.164062 254.324219 294.074219 255.191406 293.898438 256.050781 C 293.726562 256.90625 293.46875 257.742188 293.128906 258.546875 C 292.789062 259.355469 292.375 260.121094 291.886719 260.847656 C 291.394531 261.570312 290.839844 262.242188 290.214844 262.859375 C 289.59375 263.472656 288.917969 264.019531 288.1875 264.503906 C 287.457031 264.984375 286.6875 265.390625 285.875 265.71875 C 285.066406 266.046875 284.230469 266.292969 283.371094 266.457031 C 282.511719 266.621094 281.644531 266.699219 280.769531 266.691406 Z M 223.644531 266.523438 " fill-opacity="0.0784" fill-rule="nonzero"/><path fill="#d44c3d" d="M 187.203125 208.167969 L 86.492188 135 C 80.488281 130.589844 78.863281 122.105469 83.269531 116.160156 C 87.679688 110.214844 96.148438 108.859375 102.257812 113.273438 L 187.363281 175.238281 L 272.976562 112.433594 C 278.984375 108.023438 287.222656 109.378906 291.625 115.484375 C 296.027344 121.5 294.671875 129.75 288.574219 134.160156 Z M 187.203125 208.167969 " fill-opacity="1" fill-rule="nonzero"/><path fill="#d44c3d" d="M 280.777344 111.910156 C 284.339844 111.910156 287.894531 113.609375 290.105469 116.667969 C 293.667969 121.757812 292.640625 128.894531 287.570312 132.703125 L 187.203125 205.796875 L 87.679688 133.476562 C 82.597656 129.734375 81.238281 122.433594 84.734375 117.445312 C 86.765625 114.390625 90.335938 112.519531 94.226562 112.519531 C 96.761719 112.519531 99.140625 113.203125 101.003906 114.726562 L 185.929688 176.519531 L 187.117188 177.203125 L 188.304688 176.519531 L 273.832031 113.769531 C 276.035156 112.582031 278.234375 111.898438 280.785156 111.898438 Z M 280.777344 109.875 C 278.0625 109.875 275.171875 110.554688 272.972656 112.414062 L 187.363281 175.230469 L 102.089844 113.101562 C 99.890625 111.40625 97.007812 110.5625 94.125 110.5625 C 89.890625 110.730469 85.652344 112.601562 83.105469 116.175781 C 78.867188 122.1875 80.570312 130.4375 86.492188 134.847656 L 187.203125 208.167969 L 288.574219 134.144531 C 289.28125 133.628906 289.933594 133.046875 290.523438 132.402344 C 291.117188 131.757812 291.644531 131.0625 292.101562 130.316406 C 292.558594 129.570312 292.941406 128.785156 293.246094 127.964844 C 293.550781 127.140625 293.773438 126.296875 293.914062 125.433594 C 294.054688 124.570312 294.113281 123.699219 294.085938 122.824219 C 294.058594 121.945312 293.945312 121.082031 293.75 120.226562 C 293.550781 119.375 293.273438 118.546875 292.917969 117.746094 C 292.558594 116.945312 292.128906 116.1875 291.625 115.472656 C 288.910156 111.90625 284.847656 109.859375 280.777344 109.859375 Z M 280.777344 109.875 " fill-opacity="1" fill-rule="nonzero"/></svg>