<?xml version="1.0" encoding="UTF-8" standalone="no"?>
<!-- Created with Inkscape (http://www.inkscape.org/) -->

<svg
   width="210mm"
   height="297mm"
   viewBox="0 0 210 297"
   version="1.1"
   id="svg5"
   inkscape:version="1.1.2 (b8e25be8, 2022-02-05)"
   sodipodi:docname="be kind to your mind.svg"
   xmlns:inkscape="http://www.inkscape.org/namespaces/inkscape"
   xmlns:sodipodi="http://sodipodi.sourceforge.net/DTD/sodipodi-0.dtd"
   xmlns="http://www.w3.org/2000/svg"
   xmlns:svg="http://www.w3.org/2000/svg">
  <sodipodi:namedview
     id="namedview7"
     pagecolor="#ffffff"
     bordercolor="#666666"
     borderopacity="1.0"
     inkscape:pageshadow="2"
     inkscape:pageopacity="0.0"
     inkscape:pagecheckerboard="0"
     inkscape:document-units="mm"
     showgrid="false"
     inkscape:zoom="0.51758558"
     inkscape:cx="451.13313"
     inkscape:cy="627.91549"
     inkscape:window-width="1410"
     inkscape:window-height="748"
     inkscape:window-x="0"
     inkscape:window-y="25"
     inkscape:window-maximized="0"
     inkscape:current-layer="layer1" />
  <defs
     id="defs2" />
  <g
     inkscape:label="Layer 1"
     inkscape:groupmode="layer"
     id="layer1">
    <path
       id="path1213"
       style="fill:#ffaaaa;stroke-width:0.111748"
       d="m 61.941375,70.020943 c -1.254628,0.135917 -2.379746,0.950409 -3.67768,0.804568 -0.770833,0.01765 -1.450117,0.115323 -2.226286,0.366127 -1.239611,0.370935 -2.228383,1.260697 -3.012415,2.259295 -0.676544,0.846473 -1.933089,0.763706 -2.800591,0.283284 -0.716382,-0.44977 -1.494142,-0.807569 -2.330784,-0.966105 -0.431878,-0.09089 -0.996513,-0.15975 -1.460599,-0.177277 -1.204929,-0.02625 -2.413899,0.02538 -3.59223,0.351533 -1.179104,0.355319 -2.418377,1.175904 -2.653031,2.46569 -0.135196,1.188546 0.47677,2.213783 0.891249,3.275193 0.487867,0.967808 0.818342,2.248378 0.110027,3.197468 -0.595525,0.840108 -1.721584,1.023633 -2.679007,0.910227 -1.287243,0.140219 -2.526871,0.806681 -3.354145,1.798002 -0.894721,1.254466 -0.730912,2.926379 -0.25013,4.307237 0.348664,1.187495 0.931273,2.58966 0.31936,3.813277 -0.660452,1.224418 -2.017569,1.797491 -2.923492,2.803802 -0.993871,0.977128 -1.617271,2.264521 -1.937909,3.609056 -0.517642,1.91446 -0.508332,3.87983 -0.351219,5.84179 -0.02596,0.94797 -0.697561,1.74794 -1.503969,2.17783 -0.593974,0.45783 -1.048226,1.11801 -1.292546,1.76221 -0.509344,1.23587 -0.291283,2.61619 0.124866,3.84312 0.297663,0.70043 0.03071,1.55072 -0.610298,1.95668 -0.498359,0.31064 -1.107783,0.41251 -1.555772,0.81767 -1.097468,0.88253 -1.896381,2.13513 -2.301965,3.47874 -0.264972,0.95945 -0.261567,2.13545 0.512606,2.86734 0.641839,0.72208 1.57335,1.27823 1.865056,2.24703 0.209246,1.04273 -0.598932,1.90344 -0.823076,2.87073 -0.341476,1.06564 -0.252316,2.20184 -0.202292,3.30189 0.06281,0.91044 0.437517,1.75072 0.907377,2.51891 1.323042,2.37172 3.358953,4.39851 4.028289,7.0977 0.537997,2.44406 -0.422847,4.85414 -0.661078,7.26926 -0.121235,1.32031 0.256872,2.66134 1.048466,3.72494 1.188709,1.70944 3.153947,2.78578 5.114371,3.24032 0.816344,0.22043 1.529922,0.86508 1.667377,1.72402 0.294707,1.19643 0.365883,2.44913 0.846885,3.59774 0.529193,1.4472 1.623996,2.81267 3.187694,3.16812 2.055705,0.55364 4.193719,-0.0977 6.092033,-0.84045 0.857502,-0.33863 1.861698,-0.85524 2.759956,-0.34774 0.961373,0.47355 1.501378,1.69152 1.124868,2.70585 0.171759,0.7502 0.769317,1.31216 1.260006,1.87099 1.689916,1.64196 3.893971,2.69465 6.166234,3.25223 3.040825,0.68743 6.516059,0.26402 8.827546,-1.93172 0.584386,-0.59589 1.162645,-1.38161 1.096557,-2.25477 -0.234468,-0.91903 -1.289032,-1.15911 -2.082745,-1.38262 -0.956547,-0.21793 -2.05437,-0.67972 -2.330401,-1.72305 -0.264875,-0.81161 0.03548,-1.69876 0.611989,-2.29817 1.183412,-1.63914 2.570391,-3.1869 3.19127,-5.15881 0.461072,-1.3715 0.319854,-2.85398 -0.07739,-4.22127 -0.288221,-1.07713 -0.533769,-2.18799 -0.415873,-3.30909 -0.0591,-2.24923 0.174617,-4.53618 -0.314302,-6.75156 -0.49242,-1.78824 -1.363673,-3.60572 -0.973481,-5.50435 0.304064,-1.63672 1.078195,-3.23612 0.806746,-4.93647 -0.214328,-1.84514 -0.792843,-3.68052 -0.521684,-5.55356 0.203346,-2.48863 0.860109,-5.02939 0.185778,-7.50349 -0.758683,-3.15939 -2.288036,-6.22094 -2.228295,-9.54943 0.07708,-2.13314 1.342169,-3.9377 2.094243,-5.86601 0.572226,-1.43929 0.744455,-2.99031 0.777703,-4.527488 0.127948,-2.414312 0.221633,-4.843996 0.0582,-7.255346 -0.321306,-0.756267 -1.088938,-1.366717 -0.996688,-2.264743 -0.04385,-0.97887 0.668918,-1.775046 1.400812,-2.322229 0.504895,-0.730465 0.922736,-1.532814 1.221689,-2.367702 0.281043,-0.92769 0.08628,-1.992457 -0.60495,-2.693787 -0.771477,-0.971971 -1.747937,-1.751067 -2.591385,-2.656497 0.756018,-0.939833 1.484677,-1.959059 1.531804,-3.216975 0.0631,-1.2796 -0.440456,-2.657049 -1.568263,-3.351241 -0.878199,-0.509923 -1.918122,-0.693118 -2.925083,-0.647919 z"
       inkscape:export-filename="/Users/ksergi/Desktop/be kind to your mind.png"
       inkscape:export-xdpi="300"
       inkscape:export-ydpi="300" />
    <path
       style="fill:#000000;stroke-width:0.111748"
       d="m 55.803806,175.01522 c -2.136854,-0.23454 -4.204508,-0.96961 -6.064661,-2.03704 -1.251193,-0.72973 -2.428341,-1.61692 -3.370957,-2.72357 -0.555938,-0.67884 -1.049786,-1.44197 -1.263166,-2.30248 -0.07951,-0.33097 -0.09105,-0.68958 0.05175,-1.00583 0.04134,-0.099 0.08993,-0.26885 -0.0731,-0.15921 -1.040443,0.38827 -2.065554,0.82487 -3.139597,1.11555 -1.522397,0.43015 -3.141255,0.61183 -4.705094,0.30706 -1.303442,-0.24196 -2.54034,-0.87314 -3.45849,-1.83565 -1.149353,-1.18877 -1.809631,-2.76205 -2.188457,-4.35109 -0.199321,-0.77636 -0.268242,-1.57794 -0.443205,-2.35894 -0.140969,-0.12437 -0.373722,-0.13651 -0.552449,-0.20862 -1.009175,-0.26312 -1.989767,-0.64724 -2.885056,-1.18531 -1.890286,-1.12109 -3.442615,-2.87446 -4.149461,-4.97164 -0.204413,-0.5667 -0.301799,-1.16628 -0.31493,-1.76753 -0.03973,-1.43972 0.182462,-2.87538 0.537939,-4.26749 0.181652,-0.73994 0.293697,-1.49888 0.282628,-2.2622 0.01106,-0.69004 -0.03633,-1.39795 -0.314407,-2.03899 -0.382856,-0.9021 -0.94798,-1.70984 -1.485677,-2.52392 -0.699913,-1.05639 -1.47909,-2.06283 -2.088914,-3.17668 -0.437514,-0.8013 -0.852741,-1.62878 -1.077974,-2.51803 -0.180054,-0.80503 -0.150834,-1.63651 -0.155439,-2.45617 0.0048,-0.94617 0.05312,-1.91322 0.389581,-2.80813 0.18736,-0.5214 0.432535,-1.01895 0.65766,-1.5245 -0.481261,-0.47714 -0.984314,-0.93328 -1.438074,-1.43725 -0.433433,-0.48074 -0.739179,-1.06356 -0.956803,-1.66966 -0.150141,-0.50208 -0.0972,-1.03358 -0.105635,-1.55046 -3.13e-4,-0.55537 0.02451,-1.12256 0.224743,-1.64741 0.441143,-1.29272 1.120096,-2.51053 2.042456,-3.52223 0.536073,-0.57909 1.106408,-1.16986 1.844431,-1.48579 0.163664,-0.0769 0.327329,-0.15379 0.490994,-0.23068 -0.116171,-0.31393 -0.248296,-0.62543 -0.284837,-0.96163 -0.118551,-0.84895 -0.148624,-1.71174 -0.08731,-2.56677 0.06577,-0.78029 0.395302,-1.51106 0.772826,-2.1869 0.435602,-0.74181 0.963611,-1.45449 1.666307,-1.96367 0.179523,-0.14426 0.420495,-0.20302 0.574972,-0.37744 0.104137,-0.21677 -0.0086,-0.46152 -0.01674,-0.68851 -0.126521,-1.19551 -0.06001,-2.40304 0.07218,-3.5951 0.120688,-1.03838 0.316768,-2.07292 0.674597,-3.05776 0.389802,-1.142998 0.945563,-2.24329 1.745103,-3.15613 0.629838,-0.737408 1.387781,-1.348653 2.150489,-1.941673 0.269477,-0.226301 0.558722,-0.434437 0.797998,-0.69324 0.190484,-0.274655 0.07955,-0.62618 0.01633,-0.923954 -0.218233,-0.849082 -0.55392,-1.66541 -0.718412,-2.528845 -0.266481,-1.274802 -0.29053,-2.641841 0.190106,-3.870398 0.448854,-1.158584 1.315169,-2.138363 2.382846,-2.767026 0.921769,-0.55278 1.941392,-0.962203 3.00744,-1.122545 0.380193,-0.05841 0.767077,-0.05064 1.146597,0.0075 0.290425,0.04911 0.164144,-0.307341 0.09769,-0.456866 -0.465237,-1.171237 -1.051939,-2.308776 -1.295659,-3.555046 -0.186272,-0.928407 -0.0762,-1.917111 0.321729,-2.776962 0.349419,-0.713652 0.908972,-1.302851 1.514692,-1.80639 1.06885,-0.867653 2.417417,-1.305577 3.765379,-1.491174 1.189123,-0.158495 2.397474,-0.185653 3.591938,-0.07181 1.296365,0.128509 2.592352,0.4768 3.697919,1.183628 0.177948,0.09708 0.349354,0.220134 0.543345,0.278852 0.357362,-0.528264 0.816872,-0.9804 1.294056,-1.400102 1.46606,-1.211903 3.36583,-1.849252 5.259972,-1.873798 0.571979,-0.01949 1.183236,0.0072 1.69604,-0.291427 1.049705,-0.513236 2.258242,-0.613607 3.4069,-0.485808 1.420486,0.16446 2.838717,0.717947 3.848089,1.757011 0.699346,0.712109 1.190858,1.625082 1.388156,2.604314 0.231013,1.111937 0.22411,2.282829 -0.07766,3.380719 -0.115799,0.437853 -0.32024,0.844533 -0.566746,1.222285 -0.04868,0.06218 -0.08609,0.122975 0.0018,0.168391 0.499462,0.487167 1.009079,0.968377 1.429276,1.528263 0.432917,0.574606 0.847097,1.189682 1.034612,1.892681 0.174003,0.744773 0.198498,1.528043 0.06406,2.281293 -0.160368,0.713521 -0.483818,1.377454 -0.804035,2.030547 -0.326966,0.625281 -0.660623,1.256764 -1.111352,1.803439 -0.111333,0.173285 -0.316063,0.213062 -0.470307,0.33023 -0.137602,0.113971 -0.375519,0.284388 -0.245086,0.486126 0.268691,0.425865 0.638678,0.794238 0.812461,1.276292 0.230283,0.63502 0.219968,1.32257 0.239563,1.988812 0.01014,1.854508 -0.02362,3.70946 -0.09924,5.562456 -0.05978,1.220749 -0.117352,2.445799 -0.315402,3.653539 -0.259345,1.3417 -0.782614,2.61592 -1.360085,3.84858 -0.460235,0.98148 -1.035796,1.94173 -1.203021,3.02939 -0.114057,0.82242 -0.01619,1.65805 0.125327,2.47075 0.423531,2.25627 1.314996,4.38441 1.909781,6.59468 0.260362,0.98705 0.451116,2.00052 0.447274,3.02485 0.01448,1.50956 -0.153188,3.01389 -0.383864,4.50363 -0.170262,1.30118 -0.276167,2.64558 0.04161,3.93359 0.156425,0.78503 0.309511,1.57296 0.389888,2.36999 0.127332,1.3768 -0.08578,2.76667 -0.500291,4.08006 -0.195846,0.70899 -0.44172,1.42427 -0.432674,2.16863 0.02307,0.71411 0.30227,1.38462 0.497185,2.06276 0.362382,1.19966 0.791465,2.39937 0.859112,3.66217 0.06859,1.17681 0.03788,2.35647 0.04883,3.5346 0.0026,1.10308 0.0053,2.20617 0.0079,3.30926 0.208791,0.80735 0.441247,1.60892 0.623132,2.42293 0.177255,0.80805 0.15294,1.64166 0.124127,2.46312 -0.03247,0.79512 -0.217207,1.57977 -0.527525,2.31183 -0.486672,1.18867 -1.122019,2.31462 -1.883098,3.34911 -0.546546,0.7707 -1.176781,1.47857 -1.712047,2.25731 -0.09347,0.17938 0.264329,0.1762 0.378703,0.24265 0.522473,0.13686 1.055558,0.24525 1.553307,0.46185 0.923214,0.38261 1.801675,1.00369 2.268203,1.91023 0.287579,0.59034 0.314445,1.2714 0.248876,1.91457 -0.05803,0.58296 -0.267036,1.143 -0.579782,1.63665 -0.629973,1.01387 -1.485007,1.8886 -2.492292,2.53058 -1.868434,1.22113 -4.12056,1.76944 -6.33856,1.7654 -0.505181,-3e-5 -1.012235,-0.0277 -1.513379,-0.0807 z m 3.698001,-1.61929 c 1.554596,-0.29983 3.050632,-0.97809 4.248675,-2.02078 0.660662,-0.58852 1.256239,-1.31631 1.469002,-2.19277 0.136156,-0.57736 0.06931,-1.24591 -0.343157,-1.70029 -0.462689,-0.50905 -1.137618,-0.7453 -1.778414,-0.9405 -0.758468,-0.22119 -1.554922,-0.32713 -2.277585,-0.65966 -0.167031,-0.11056 -0.367485,-0.28336 -0.573824,-0.14791 -0.433372,0.24786 -0.943112,0.32434 -1.436206,0.28997 -1.072419,-0.0776 -2.085771,-0.50999 -3.009213,-1.03897 -1.416048,-0.83437 -2.679637,-1.9722 -3.53504,-3.3852 -0.396511,-0.63467 -0.61922,-1.36292 -0.714136,-2.1019 -0.230247,-1.65513 -0.0977,-3.34894 -0.466584,-4.98654 -0.149308,-0.67649 -0.466419,-1.31989 -0.952335,-1.81813 -0.462899,-0.47659 -0.978171,-0.944 -1.626163,-1.14465 -0.845618,-0.27544 -1.748531,-0.40591 -2.634657,-0.28617 -1.177354,0.15252 -2.30997,0.5272 -3.436681,0.88673 -1.166389,0.37868 -2.326176,0.79205 -3.527993,1.04652 -0.83536,0.16884 -1.711926,0.19043 -2.542842,-0.0144 -0.852753,-0.21036 -1.590944,-0.76346 -2.108356,-1.464 -0.569778,-0.74332 -0.902349,-1.62582 -1.319931,-2.45554 -0.585817,-1.21301 -1.195573,-2.42157 -1.977688,-3.52236 -1.202742,-1.75266 -2.430389,-3.49374 -3.485598,-5.34125 -0.718613,-1.25186 -1.281189,-2.58686 -1.743274,-3.95271 -0.499615,-1.42403 -0.8773,-2.89 -1.154725,-4.37292 -0.05126,-0.35137 -0.14097,-0.70893 -0.08721,-1.06494 0.05098,-0.34449 0.394436,-0.63563 0.747998,-0.55992 0.308452,0.0549 0.492421,0.36272 0.527383,0.65409 0.272722,1.35531 0.56346,2.71155 1.016434,4.02005 0.629907,1.82921 1.432866,3.59994 2.398753,5.27634 0.520736,0.88542 1.111949,1.72678 1.685569,2.57818 1.073401,1.57629 2.225677,3.11444 3.047632,4.84404 0.52134,1.04814 0.91969,2.17625 1.655422,3.10186 0.377847,0.48296 0.91964,0.86227 1.539401,0.93562 0.78561,0.0973 1.568546,-0.10473 2.31664,-0.32484 1.390716,-0.40201 2.753796,-0.8928 4.14403,-1.29612 0.947317,-0.27694 1.92651,-0.48559 2.918593,-0.46078 1.146025,0.007 2.330061,0.16816 3.338297,0.74771 0.799272,0.45848 1.471928,1.12374 1.988577,1.88304 0.632953,0.9457 0.839782,2.0928 0.947651,3.20578 0.144906,1.41776 0.0594,2.86523 0.407102,4.25763 0.179235,0.74031 0.577325,1.41375 1.100382,1.96319 0.87887,0.92579 1.893106,1.74995 3.063157,2.27717 0.569164,0.25288 1.190487,0.41644 1.816657,0.39038 0.396828,-0.0582 0.735482,-0.29343 1.085067,-0.4742 0.344422,-0.19278 0.705139,-0.36855 0.987814,-0.65111 0.734997,-0.69418 1.336443,-1.51535 1.898457,-2.35179 0.641669,-0.98121 1.233721,-2.01332 1.565107,-3.14498 0.252347,-0.79202 0.361311,-1.63451 0.260547,-2.46241 -0.06585,-0.53537 -0.160486,-1.06961 -0.30995,-1.58823 -0.08825,-0.20095 -0.278468,0.14487 -0.373435,0.21222 -0.357802,0.42066 -0.663953,0.88298 -1.037472,1.29098 -1.147706,1.30743 -2.498741,2.42988 -3.969011,3.35718 -0.519803,0.32846 -1.025024,0.68929 -1.587682,0.94232 -0.209821,0.099 -0.473824,0.11303 -0.661346,-0.0421 -0.235456,-0.17105 -0.443932,-0.49512 -0.309969,-0.78866 0.176619,-0.30637 0.490864,-0.49603 0.765819,-0.70543 1.06204,-0.75138 2.200369,-1.39624 3.203942,-2.22905 1.044861,-0.84218 1.921951,-1.87173 2.693064,-2.96532 0.260622,-0.36793 0.514108,-0.74086 0.770952,-1.11143 0.01017,-1.7687 0.03479,-3.53738 0.02845,-5.30611 -0.01676,-1.22377 -0.05148,-2.4836 -0.510064,-3.63624 -0.429866,-1.08428 -1.090086,-2.05493 -1.709703,-3.03633 -0.299057,-0.46377 -0.599042,-0.92695 -0.898577,-1.39041 -0.465615,-0.0997 -0.929485,-0.22373 -1.408696,-0.2333 -1.281004,-0.0498 -2.560421,0.10815 -3.821674,0.31924 -1.920698,0.34852 -3.905422,0.57892 -5.843935,0.23114 -1.466943,-0.25406 -2.847814,-0.85867 -4.133622,-1.59395 -0.388919,-0.20317 -0.773605,-0.42499 -1.191385,-0.5635 -0.213963,0.013 -0.421702,-0.12925 -0.471141,-0.34095 -0.150572,-0.44583 0.198822,-0.9704 0.667582,-1.00243 0.237743,0.0152 0.452433,0.14241 0.671614,0.22673 0.798136,0.3509 1.550624,0.79636 2.352676,1.13911 0.885518,0.39155 1.814918,0.75544 2.795361,0.78196 0.837815,0.0254 1.677304,0.0296 2.514685,-0.0118 1.420785,-0.0713 2.795345,-0.49705 4.214897,-0.5802 0.981131,-0.0601 1.964666,-0.0364 2.947032,-0.047 0.06377,-0.008 0.157491,0.0152 0.20308,-0.0123 0.05257,-0.77928 0.05626,-1.57131 0.288093,-2.32478 0.143149,-0.45998 0.331462,-0.94243 0.712529,-1.25832 0.210083,-0.18499 0.543126,-0.20712 0.761473,-0.0234 0.239931,0.15168 0.301392,0.45918 0.252109,0.72196 -0.08078,0.53937 -0.339434,1.03235 -0.427894,1.57059 -0.09897,0.53884 -0.150189,1.11793 0.05552,1.63896 0.08684,0.23174 0.286545,0.40254 0.523054,0.46822 0.247872,0.14294 0.170613,-0.26689 0.240671,-0.40037 0.196906,-0.97324 0.376144,-1.95226 0.451497,-2.94356 0.07958,-1.06261 0.114554,-2.14118 -0.06822,-3.19546 -0.292334,-1.23166 -0.255906,-2.5129 -0.142273,-3.76488 0.1112,-1.17911 0.358204,-2.34151 0.442296,-3.52375 0.09509,-1.09734 0.03204,-2.20832 -0.204849,-3.28463 -0.38618,-1.78564 -1.041524,-3.49632 -1.550528,-5.24777 -0.347173,-1.16267 -0.650305,-2.34992 -0.703276,-3.5676 -0.0474,-0.83633 -0.07112,-1.69551 0.187029,-2.50352 0.342446,-1.0886 0.887675,-2.0964 1.352733,-3.13462 0.253693,-0.57392 0.530357,-1.1405 0.726664,-1.73738 0.435459,-1.43868 0.533147,-2.94937 0.617283,-4.441649 0.08947,-1.902659 0.11764,-3.807829 0.12327,-5.71241 -0.01513,-0.54128 0.02584,-1.116827 -0.241451,-1.609203 -0.354139,-0.643506 -0.965574,-1.09171 -1.579884,-1.468796 -1.229909,-0.727733 -2.604311,-1.179903 -3.994562,-1.485797 -1.12155,-0.217023 -2.274325,-0.222993 -3.410358,-0.141852 -0.813153,0.04874 -1.609681,0.254962 -2.424989,0.27434 -0.232519,0.005 -0.501649,-0.04674 -0.625093,-0.26755 -0.182717,-0.246761 -0.194339,-0.619998 0.03268,-0.843726 0.252047,-0.271131 0.64053,-0.324577 0.982648,-0.407393 1.113674,-0.211392 2.251118,-0.267803 3.382652,-0.274781 0.944871,0.0041 1.89996,0.04521 2.817243,0.291557 1.27293,0.315543 2.508023,0.780305 3.674903,1.378632 0.199159,0.09826 0.398319,0.196531 0.597478,0.294796 0.464888,-0.527856 0.931298,-1.058443 1.301974,-1.65899 0.53851,-0.859971 0.992028,-1.802146 1.139489,-2.814823 0.05486,-0.501866 0.05593,-1.036688 -0.180264,-1.496802 -0.305444,-0.658519 -0.759746,-1.235167 -1.240084,-1.774189 -0.255977,-0.271947 -0.512804,-0.543095 -0.769115,-0.814728 -0.511754,-0.02165 -1.025915,-0.0109 -1.535238,-0.07022 -0.471928,-0.06988 -0.897619,-0.309507 -1.293748,-0.563481 -0.793594,-0.545646 -1.500957,-1.207433 -2.162724,-1.904434 -0.178061,-0.192507 -0.354797,-0.431918 -0.312903,-0.709978 0.01534,-0.220135 0.110371,-0.461189 0.337701,-0.537016 0.28907,-0.118454 0.574017,0.08522 0.796931,0.249939 0.536486,0.42134 0.990145,0.93827 1.538477,1.346021 0.454139,0.340012 0.954997,0.687559 1.538185,0.731878 0.442452,0.03447 0.861683,-0.240395 1.062427,-0.626028 0.353725,-0.652297 0.419921,-1.418414 0.396631,-2.147899 -0.04576,-1.020109 -0.336815,-2.076511 -1.039814,-2.844028 -0.702286,-0.780845 -1.724348,-1.180278 -2.734491,-1.37629 -1.000967,-0.20518 -2.082251,-0.126203 -2.994097,0.35975 -1.043217,0.542927 -1.798212,1.502145 -2.346401,2.520634 -0.443727,0.833723 -0.805151,1.745242 -0.828601,2.700869 -0.0069,0.488609 0.111144,1.046824 0.536088,1.343892 0.239089,0.173708 0.542386,0.201161 0.828189,0.205167 0.336879,0.02212 0.650119,0.291166 0.66669,0.638563 0.03918,0.286816 -0.101759,0.603764 -0.385845,0.705634 -0.436722,0.161267 -0.930694,0.114845 -1.362923,-0.03939 -1.16111,-0.435759 -1.899704,-1.703682 -1.815715,-2.924923 0.07334,-0.895021 0.368854,-1.755753 0.709217,-2.580891 0.282048,-0.669647 0.629707,-1.31256 1.056301,-1.901454 0.138408,-0.134037 0.188415,-0.443652 -0.09642,-0.367714 -1.254047,0.184069 -2.440416,0.739121 -3.429311,1.525681 -0.574947,0.469529 -1.122443,1.023657 -1.391748,1.728576 -0.09487,0.223898 -0.08578,0.46835 -0.117331,0.704008 -0.04283,0.278021 -0.172634,0.528849 -0.275531,0.786679 -0.208583,0.701283 -0.236498,1.439109 -0.310624,2.162724 -0.100946,1.016649 -0.173084,2.038904 -0.359834,3.044537 -0.06728,0.275315 -0.112216,0.594857 -0.340849,0.787871 -0.203492,0.129545 -0.479758,0.09437 -0.687461,-0.0072 -0.319686,-0.178605 -0.365907,-0.584264 -0.34704,-0.915186 0.05999,-1.271061 0.198102,-2.537002 0.336135,-3.801531 0.09338,-0.780614 0.173905,-1.56502 0.348117,-2.33278 0.02381,-0.199861 0.09851,-0.427347 -0.0064,-0.614719 -0.281639,-0.279067 -0.659413,-0.432276 -1.013096,-0.598272 -0.790519,-0.335208 -1.627552,-0.606383 -2.49362,-0.622752 -0.874368,-0.02556 -1.749804,-0.01811 -2.624114,0.0065 -0.570446,0.0096 -1.132825,0.124288 -1.67336,0.302571 -0.896503,0.272193 -1.800835,0.633754 -2.477821,1.304172 -0.379734,0.350617 -0.704466,0.789521 -0.799075,1.308045 -0.140903,0.730836 -0.134391,1.500482 0.101477,2.211591 0.323139,1.055695 0.909464,2.01509 1.157097,3.096167 0.282574,1.113527 0.196414,2.281564 -0.02777,3.397005 -0.18854,0.855039 -0.25766,1.729594 -0.324815,2.600709 -0.05221,0.436757 -0.0773,0.897407 -0.291355,1.291346 -0.164773,0.310382 -0.596607,0.413433 -0.887037,0.219181 -0.22396,-0.12846 -0.332419,-0.387521 -0.320633,-0.638453 -0.01925,-0.884457 0.06897,-1.767837 0.173418,-2.645067 0.06741,-0.656012 0.256147,-1.292991 0.313127,-1.950053 0.03182,-0.243791 -0.193236,-0.415822 -0.411516,-0.450534 -0.535029,-0.09543 -1.078407,0.04607 -1.589531,0.197907 -0.874441,0.286011 -1.719583,0.713084 -2.398896,1.341448 -0.496738,0.501314 -0.861324,1.1251 -1.109378,1.783169 -0.17195,0.503428 -0.116156,1.044496 -0.124583,1.567204 -0.0036,0.583297 0.03783,1.172312 0.21617,1.731285 0.244394,0.848839 0.576199,1.673031 0.763888,2.537605 0.124807,0.56212 -0.08891,1.150742 -0.452859,1.580499 -0.541262,0.671154 -1.268332,1.147091 -1.92305,1.69563 -0.878732,0.732441 -1.619901,1.639564 -2.099339,2.682111 -0.49146,1.07038 -0.822102,2.21367 -1.003377,3.37678 -0.316674,2.0651 -0.05718,4.16652 0.342251,6.20096 0.169848,0.88031 0.380526,1.75496 0.482717,2.64673 0.0306,0.30329 0.03647,0.65791 -0.207304,0.88298 -0.326076,0.38029 -0.946518,0.40802 -1.32534,0.0921 -0.366468,-0.27464 -0.430636,-0.82956 -0.193213,-1.20723 0.176063,-0.19482 0.08811,-0.47421 0.06368,-0.70711 -0.107279,-0.59014 -0.199332,-1.18869 -0.401232,-1.75564 -0.06249,-0.27762 -0.30533,-0.009 -0.415464,0.091 -0.374318,0.3761 -0.727573,0.787 -0.969929,1.26213 -0.695516,1.44611 -0.776408,3.20143 -0.109822,4.6733 0.465352,1.04363 1.246468,1.91369 2.11457,2.64188 0.189683,0.16523 0.433923,0.26816 0.688152,0.24917 0.314032,0.004 0.638789,0.23454 0.656689,0.56542 0.02549,0.39322 -0.305279,0.69967 -0.635405,0.85256 -0.407519,0.19539 -0.922592,0.1198 -1.254001,-0.18849 -0.681243,-0.56448 -1.316337,-1.18402 -1.920822,-1.8295 -0.152459,-0.15795 -0.281194,-0.33571 -0.409807,-0.51229 -0.163913,-0.14695 -0.396838,-0.013 -0.577396,0.0293 -0.619398,0.24688 -1.091806,0.74626 -1.50628,1.25192 -0.726995,0.92473 -1.285585,1.98703 -1.615178,3.1171 -0.199491,0.70168 -0.295404,1.46476 -0.05683,2.17039 0.306443,0.96063 1.055946,1.70244 1.873684,2.25374 1.166372,0.78352 2.506904,1.25299 3.848446,1.63834 0.984439,0.31051 1.968903,0.63143 2.914872,1.047 0.234595,0.0886 0.432942,0.25665 0.550186,0.47961 0.113081,0.19059 0.174369,0.44351 0.02656,0.63481 -0.09309,0.17571 -0.249439,0.35413 -0.470309,0.3175 -0.419129,-0.0192 -0.813024,-0.1815 -1.213249,-0.29312 -1.763564,-0.54913 -3.499971,-1.18027 -5.249102,-1.77282 -0.217611,0.004 -0.29482,0.26822 -0.384388,0.43175 -0.317222,0.75513 -0.47611,1.5677 -0.578585,2.37716 -0.14527,1.27076 -0.0013,2.58532 0.494607,3.76937 0.595726,1.43619 1.513939,2.70449 2.398885,3.97205 0.715188,1.04867 1.422034,2.11747 1.908335,3.29515 0.26124,0.62051 0.390469,1.29049 0.403386,1.9626 0.03763,1.32524 -0.203044,2.63989 -0.518946,3.92157 -0.240453,1.11737 -0.425532,2.27091 -0.290904,3.41494 0.103228,0.74121 0.372273,1.45293 0.718158,2.11347 0.551958,1.02436 1.354381,1.91227 2.307658,2.57795 0.734416,0.49273 1.514047,0.92662 2.341071,1.24332 0.268051,0.1097 0.556348,0.14111 0.839403,0.18851 -0.112242,-1.2887 -0.180924,-2.60313 -0.633271,-3.82797 -0.276135,-0.76118 -0.781912,-1.43534 -1.443962,-1.90307 -0.31204,-0.22659 -0.697139,-0.44198 -0.809604,-0.83876 -0.07141,-0.34083 0.150149,-0.76335 0.52153,-0.79594 0.440124,-0.0346 0.839335,0.21249 1.185654,0.45583 0.812224,0.60079 1.465535,1.42499 1.815569,2.37661 0.422528,1.11047 0.530081,2.30346 0.636188,3.47697 0.04672,0.38498 0.08015,0.77456 0.179112,1.15047 0.07447,0.22246 0.341685,0.20418 0.530968,0.20837 1.032207,-0.013 2.068565,-0.0983 3.072823,-0.3477 1.898276,-0.45328 3.663306,-1.38594 5.174397,-2.6127 0.315165,-0.22857 0.650623,-0.48879 1.052992,-0.5183 0.340374,-0.0139 0.593703,0.31938 0.631167,0.63085 0.0109,0.35958 -0.280513,0.62405 -0.520196,0.85168 -1.538422,1.33372 -3.369397,2.32292 -5.314813,2.91764 -1.19035,0.36209 -2.434502,0.55919 -3.68011,0.53278 -0.255047,0 -0.510095,0 -0.765142,0 0.07611,0.6886 0.164087,1.37849 0.35852,2.04555 0.331254,1.16873 0.828395,2.31316 1.602099,3.25944 0.657431,0.77987 1.533903,1.39726 2.532969,1.64163 1.022569,0.25658 2.092796,0.21709 3.131813,0.0952 1.545427,-0.19627 2.972956,-0.85639 4.419524,-1.39396 0.49892,-0.19631 1.009546,-0.36475 1.499407,-0.58291 -0.088,-0.2941 -0.246298,-0.56418 -0.374618,-0.84285 -0.458024,-0.89927 -0.928201,-1.79823 -1.250269,-2.75764 -0.252023,-0.76478 -0.460127,-1.58528 -0.317072,-2.39328 0.08118,-0.40025 0.260252,-0.83095 0.636003,-1.03506 0.241772,-0.13849 0.55168,-0.0227 0.691401,0.20483 0.139504,0.17084 0.171819,0.40067 0.115028,0.61022 -0.09048,0.32818 -0.136869,0.67033 -0.0962,1.01024 0.101273,0.91614 0.484043,1.77107 0.890247,2.58837 0.367437,0.72848 0.799103,1.42143 1.211031,2.12496 0.898626,-0.0455 1.797251,-0.0911 2.695877,-0.1366 0.259929,0.33448 0.570365,0.63776 0.750991,1.02611 0.122108,0.24832 0.135132,0.58605 -0.09287,0.77955 -0.170183,0.15659 -0.408476,0.26501 -0.640538,0.18985 -0.389812,-0.11614 -0.799235,-0.21514 -1.207898,-0.147 -0.659073,0.10715 -1.337688,0.41629 -1.683458,1.01536 -0.29415,0.51133 -0.35272,1.12667 -0.290163,1.70399 0.06343,0.53003 0.463834,0.92665 0.839386,1.26763 1.615428,1.45718 3.602087,2.46527 5.681355,3.0759 0.974817,0.28006 1.975623,0.48235 2.987775,0.55919 0.882922,0.0218 1.767121,-0.0545 2.639272,-0.18955 0.05892,-0.01 0.118533,-0.0199 0.176618,-0.0316 z M 53.91439,149.00059 c -0.538954,-0.2142 -1.038653,-0.52153 -1.467793,-0.91195 -1.076438,-0.94897 -1.992669,-2.07605 -3.148927,-2.93454 -0.591045,-0.44148 -1.290483,-0.72968 -2.019576,-0.83959 -1.390387,-0.21366 -2.801948,-0.0943 -4.201323,-0.1734 -0.921057,-0.0478 -1.877112,-0.14586 -2.69259,-0.61455 -0.985096,-0.53083 -1.726255,-1.43837 -2.164523,-2.45765 -0.560038,-1.29185 -0.733947,-2.71452 -0.766307,-4.11106 -0.0015,-0.63095 0.0032,-1.274 0.173437,-1.88619 0.04732,-0.19984 0.183697,-0.37255 0.379087,-0.44463 0.217588,-0.10278 0.555507,-0.10085 0.673382,0.14618 0.146406,0.34793 0.128131,0.73684 0.150523,1.10703 0.01605,0.92371 0.01152,1.85235 0.160313,2.76704 0.15903,1.01804 0.478789,2.06018 1.185638,2.83698 0.457238,0.50431 1.06512,0.86237 1.715347,1.05463 0.707244,0.0936 1.422134,0.11188 2.13404,0.14808 1.162947,0.0542 2.330102,0.0456 3.489284,0.16339 0.68988,0.0757 1.349862,0.32768 1.96098,0.64846 0.9699,0.53512 1.761803,1.32543 2.546825,2.09432 0.595887,0.58447 1.172186,1.19834 1.853036,1.68618 0.475097,0.34529 1.078096,0.49305 1.660124,0.4456 0.802438,-0.0936 1.495924,-0.57196 2.093331,-1.08624 0.856446,-0.74954 1.548542,-1.662 2.199005,-2.58992 0.236739,-0.30277 0.458479,-0.65013 0.811967,-0.82731 0.235738,-0.0994 0.557434,-0.0719 0.71072,0.15565 0.187908,0.24303 0.277723,0.60341 0.101397,0.87751 -0.380359,0.67606 -0.860281,1.29001 -1.337071,1.89974 -0.724149,0.90727 -1.534017,1.77232 -2.526133,2.38957 -0.718403,0.44908 -1.568216,0.67672 -2.414801,0.65007 -0.424408,-0.0106 -0.860821,-0.0348 -1.259392,-0.1934 z m -6.516716,-16.83783 c -0.29634,-0.41842 -0.420327,-0.92823 -0.536739,-1.42 -0.170571,-0.76641 -0.22765,-1.55261 -0.224673,-2.33635 -0.0033,-0.27536 -0.0066,-0.55072 -0.0099,-0.82608 -0.928928,-0.0225 -1.866012,-0.10345 -2.786798,0.0647 -1.119445,0.18648 -2.177859,0.61206 -3.272481,0.89629 -0.714149,0.17273 -1.474423,0.32766 -2.199741,0.12609 -0.395886,-0.11841 -0.726891,-0.37884 -1.073977,-0.59334 -0.808536,-0.54119 -1.580081,-1.15272 -2.476355,-1.54746 -0.945311,-0.42956 -1.971825,-0.6213 -2.981075,-0.83606 -0.338719,-0.0902 -0.738594,-0.23728 -0.859705,-0.60155 -0.06989,-0.25802 -0.01644,-0.61627 0.270919,-0.71454 0.388692,-0.12895 0.807757,-0.0604 1.207047,-0.0318 1.711204,0.17769 3.365757,0.83185 4.745811,1.85746 0.49651,0.33848 0.973432,0.7122 1.507772,0.99056 0.418423,0.20958 0.891523,0.0678 1.32064,-0.0272 0.866013,-0.20967 1.700047,-0.53375 2.570568,-0.72725 1.025085,-0.25284 2.086187,-0.30719 3.138105,-0.2832 0.378429,0.0156 0.764124,0.001 1.134347,0.0899 0.217777,-0.0147 0.264276,-0.28747 0.353192,-0.44443 0.466962,-1.09477 1.292771,-1.97758 2.099053,-2.83154 0.713905,-0.75742 1.481267,-1.46676 2.139238,-2.27516 0.280766,-0.34611 0.507169,-0.7671 0.485099,-1.22571 -0.01291,-0.38983 -0.05476,-0.78056 -0.133683,-1.16255 -0.15223,-0.0712 -0.367089,0.0351 -0.539882,0.0588 -0.622329,0.1408 -1.268009,0.11704 -1.900737,0.0802 -0.498251,-0.0454 -1.010428,-0.0859 -1.476371,-0.28146 -0.694071,-0.30715 -1.27266,-0.86044 -1.603462,-1.54427 -0.468316,-0.94256 -0.585017,-2.00448 -0.68218,-3.03825 -0.193394,-1.65668 -0.562575,-3.29566 -1.136474,-4.86288 -0.282124,-0.81271 -0.562636,-1.62597 -0.841726,-2.43972 -0.46829,0.0519 -0.938829,0.11983 -1.410756,0.0687 -0.810962,-0.0744 -1.623997,-0.25684 -2.356249,-0.62117 -0.26979,-0.14283 -0.576693,-0.33774 -0.611343,-0.67092 -0.05809,-0.33293 0.194196,-0.69023 0.54126,-0.70557 0.356275,-0.005 0.670482,0.19691 0.992772,0.32262 0.448286,0.21072 0.952105,0.22182 1.437805,0.21946 0.69259,-0.008 1.410147,0.0312 2.067839,-0.22574 1.093539,-0.38342 2.065325,-1.05049 2.905629,-1.83983 0.983989,-0.92152 1.852544,-1.95728 2.698332,-3.004501 0.110285,-0.161462 0.271452,-0.311548 0.300732,-0.512275 -0.09113,-0.171879 -0.325691,-0.219627 -0.475077,-0.341291 -1.153412,-0.706768 -2.236127,-1.567559 -3.037296,-2.66819 -0.621865,-0.852517 -1.109697,-1.800437 -1.475781,-2.788995 -0.525003,-1.464557 -0.810639,-3.017703 -0.825903,-4.573981 -0.0024,-0.887567 0.103435,-1.778916 0.340315,-2.634945 0.117968,-0.369719 0.2542,-0.775756 0.583314,-1.010852 0.326005,-0.223687 0.852011,-0.0055 0.898566,0.395269 0.06932,0.439218 -0.186688,0.835068 -0.25917,1.255843 -0.250089,1.158255 -0.195494,2.361312 -0.01817,3.525865 0.252878,1.598504 0.801483,3.159405 1.67276,4.527186 0.654918,1.026513 1.578519,1.854529 2.59557,2.511975 0.34993,0.233611 0.699859,0.467221 1.049789,0.700832 0.615671,-0.553648 1.229123,-1.114246 1.919899,-1.574767 1.671651,-1.152758 3.628531,-1.837565 5.621545,-2.173713 1.258755,-0.214768 2.535923,-0.310227 3.811773,-0.33445 0.238989,-0.0049 0.492575,0.03582 0.671599,0.208215 0.238978,0.170602 0.390015,0.509033 0.237252,0.784269 -0.118374,0.252946 -0.389345,0.379078 -0.654643,0.407415 -0.732475,0.102391 -1.474959,0.09792 -2.209272,0.184905 -1.716726,0.181656 -3.436004,0.526072 -5.02208,1.225642 -1.185841,0.51413 -2.218978,1.32263 -3.119787,2.239932 -1.100303,1.103802 -2.03105,2.359212 -3.081961,3.507822 -0.8903,0.98675 -1.850232,1.94501 -3.031671,2.58016 -0.474851,0.26778 -0.985562,0.467 -1.455009,0.74447 0.0055,0.1729 0.128879,0.36689 0.185248,0.54734 0.42807,1.0718 0.875591,2.13867 1.194023,3.24995 0.386071,1.28716 0.618044,2.61371 0.794702,3.94396 0.111895,0.69342 0.188863,1.40219 0.435316,2.06437 0.242216,0.64059 0.894572,1.04214 1.550294,1.14404 0.586079,0.0881 1.188319,0.0637 1.770453,-0.0427 0.716749,-0.13237 1.347757,-0.53975 1.876717,-1.02661 0.482846,-0.4233 0.882624,-0.95595 1.456654,-1.26467 0.183093,-0.1042 0.444902,-0.11132 0.58134,0.0728 0.194654,0.24061 0.293851,0.58364 0.159418,0.87638 -0.212286,0.48057 -0.602723,0.85 -0.961805,1.22237 -0.303945,0.30079 -0.608589,0.60088 -0.912815,0.90139 0.114666,0.58529 0.252066,1.17282 0.22347,1.77383 -0.02327,0.59241 -0.11518,1.21285 -0.442468,1.72004 -0.487874,0.69046 -1.079059,1.29939 -1.656143,1.91455 -0.736857,0.77494 -1.498487,1.53585 -2.117711,2.41146 -0.30344,0.432 -0.535688,0.92976 -0.563082,1.46419 -0.03876,0.2792 -0.109578,0.56379 -0.282481,0.79148 -0.148866,0.39475 -0.127159,0.82826 -0.114384,1.24321 0.02996,0.62071 0.147275,1.23392 0.321167,1.82968 0.07146,0.32986 0.180223,0.66177 0.16715,1.00231 -0.02836,0.37807 -0.425477,0.66201 -0.792464,0.57785 -0.16331,-0.0318 -0.309646,-0.12906 -0.411063,-0.25969 z m 7.410705,-2.17847 c -0.775377,-0.0997 -1.570124,-0.20796 -2.279975,-0.55457 -0.276102,-0.14487 -0.616017,-0.319 -0.659947,-0.66312 -0.02893,-0.26556 0.01225,-0.6223 0.299039,-0.7312 0.387773,-0.11829 0.764649,0.10234 1.119068,0.23076 1.081201,0.38269 2.250002,0.3954 3.382466,0.33434 0.875703,-0.0455 1.755022,-0.21264 2.549463,-0.5951 0.668358,-0.2962 1.253136,-0.75032 1.926381,-1.03559 0.218151,-0.0933 0.500241,-0.13878 0.688606,0.0414 0.214556,0.16965 0.368325,0.46946 0.245811,0.73794 -0.179767,0.39262 -0.559744,0.63797 -0.907212,0.86916 -0.776712,0.48214 -1.618925,0.86116 -2.494736,1.123 -0.882852,0.21856 -1.797019,0.28021 -2.703759,0.29606 -0.388872,0.002 -0.778627,-0.008 -1.165205,-0.0531 z M 38.996,121.77783 c -1.484887,-0.55566 -2.968754,-1.22016 -4.157968,-2.29253 -0.683341,-0.63397 -1.320836,-1.36888 -1.633279,-2.2614 -0.219208,-0.6434 -0.270482,-1.33957 -0.190152,-2.01239 0.121279,-0.87717 0.624212,-1.63498 1.101405,-2.35795 0.240077,-0.37024 0.519178,-0.72305 0.682824,-1.13607 0.126486,-0.41174 -0.06316,-0.8455 -0.302706,-1.17728 -0.49855,-0.66339 -1.203981,-1.12982 -1.907963,-1.55 -1.02617,-0.60108 -2.125703,-1.06113 -3.226543,-1.50486 -0.363327,-0.16534 -0.740586,-0.3158 -1.065512,-0.55094 -0.240115,-0.24618 -0.323578,-0.64939 -0.187871,-0.96724 0.117917,-0.23453 0.425751,-0.23935 0.653124,-0.22168 0.21041,0.003 0.37416,0.13376 0.546599,0.23311 0.833408,0.40388 1.726266,0.66529 2.569952,1.04586 0.789024,0.33602 1.533928,0.76567 2.247474,1.23954 0.238614,0.14184 0.46855,0.31028 0.72971,0.40553 -0.0373,-0.23492 -0.133004,-0.46954 -0.20143,-0.70156 -0.19527,-0.52365 -0.267531,-1.08294 -0.273453,-1.63939 -0.0034,-0.60484 -0.03135,-1.21373 0.04621,-1.81521 0.08921,-0.53068 0.307672,-1.02829 0.512224,-1.52262 0.608954,-1.38807 1.578188,-2.56858 2.413285,-3.820968 0.624259,-0.938481 1.165542,-1.958827 1.381584,-3.074972 0.230891,-1.114768 0.173923,-2.258728 0.176058,-3.389425 0.01575,-0.294684 -0.01934,-0.60941 0.104703,-0.885275 0.194679,-0.315429 0.65963,-0.329385 0.934602,-0.113761 0.262803,0.180369 0.399931,0.492462 0.408463,0.80508 0.04451,0.754346 0.02359,1.510917 0.01775,2.266137 -0.0079,0.688541 -0.06184,1.382757 -0.267911,2.043535 -0.448268,1.587075 -1.36365,2.984845 -2.308658,4.316629 -0.586717,0.85507 -1.193716,1.70891 -1.607843,2.6648 -0.301583,0.68489 -0.388066,1.44211 -0.360728,2.18427 -0.0022,0.72947 0.206479,1.43503 0.433932,2.12103 0.279808,0.88955 0.560301,1.81714 0.454597,2.76001 -0.108652,0.94616 -0.650163,1.75938 -1.177066,2.52545 -0.354283,0.54371 -0.749255,1.07654 -0.961263,1.69635 -0.223115,0.75789 -0.08502,1.60184 0.329646,2.2701 0.542976,0.88896 1.401491,1.52942 2.284563,2.05296 0.845752,0.50082 1.75716,0.87462 2.669843,1.23321 0.373584,0.16439 0.771656,0.30709 1.080399,0.58255 0.242415,0.21032 0.219463,0.60702 -0.0029,0.82251 -0.145361,0.16399 -0.383771,0.26705 -0.597874,0.18036 -0.456185,-0.12926 -0.902826,-0.29066 -1.34787,-0.4535 z m 17.175101,-3.65264 c -0.244765,-0.11858 -0.367302,-0.3998 -0.322022,-0.66256 0.06796,-0.52514 0.336493,-0.99426 0.477573,-1.49996 0.609531,-1.96294 0.715678,-4.05745 0.488865,-6.09217 -0.137705,-1.15769 -0.373772,-2.30928 -0.766462,-3.40862 -0.295731,-0.77506 -0.623568,-1.54134 -1.031107,-2.26484 -0.07476,-0.20724 -0.248894,-0.30533 -0.455685,-0.20269 -0.57854,0.12737 -1.159468,0.28994 -1.757918,0.2623 -0.445398,-0.0191 -0.946645,-0.10591 -1.245094,-0.47038 -0.185088,-0.24212 -0.203804,-0.62048 -0.01344,-0.864 0.222246,-0.24489 0.608094,-0.22563 0.880779,-0.0812 0.431989,0.18777 0.90081,0.0467 1.329677,-0.0768 0.0508,-0.0316 0.175843,-0.007 0.158363,-0.0902 0.0081,-0.70832 -0.0291,-1.42837 0.168604,-2.11734 0.187136,-0.701863 0.589668,-1.398905 1.252306,-1.74356 0.274693,-0.145019 0.659936,-0.179042 0.890303,0.06557 0.219437,0.203362 0.274256,0.558534 0.09853,0.806969 -0.151287,0.245676 -0.431684,0.369172 -0.587466,0.612272 -0.327364,0.45485 -0.478736,1.01717 -0.523358,1.56975 -0.03588,0.23142 0.236908,0.31514 0.409053,0.22287 0.646129,-0.21581 1.244465,-0.55193 1.832499,-0.89113 0.416176,-0.24337 0.814282,-0.51751 1.180583,-0.83126 0.230235,-0.16656 0.500123,-0.368789 0.801402,-0.308 0.254132,0.0821 0.414786,0.34434 0.474936,0.59254 0.06861,0.39548 -0.225645,0.72868 -0.498322,0.97414 -0.66122,0.56604 -1.447704,0.95597 -2.219325,1.34685 -0.315067,0.15792 -0.630135,0.31585 -0.945202,0.47378 0.461534,0.96528 0.941339,1.92542 1.283517,2.94157 0.550967,1.56781 0.803715,3.22956 0.82686,4.88827 0.02048,1.78405 -0.07191,3.60254 -0.658577,5.30266 -0.181845,0.49645 -0.351048,1.01801 -0.6946,1.43022 -0.159163,0.20018 -0.443528,0.29917 -0.683218,0.18899 -0.05267,-0.0203 -0.103403,-0.0458 -0.15206,-0.074 z"
       id="path854"
       inkscape:export-filename="/Users/ksergi/Desktop/be kind to your mind.png"
       inkscape:export-xdpi="300"
       inkscape:export-ydpi="300" />
    <g
       aria-label="Be Kind to Your Mind "
       id="text1495"
       style="font-size:28.2223px;line-height:0;font-family:'Salmon Queen Extras';-inkscape-font-specification:'Salmon Queen Extras';word-spacing:0px;stroke-width:0.264583"
       inkscape:export-filename="/Users/ksergi/Desktop/be kind to your mind.png"
       inkscape:export-xdpi="300"
       inkscape:export-ydpi="300">
      <path
         id="path2969"
         style="font-family:'Thanks November';-inkscape-font-specification:'Thanks November';stroke-width:0.246908"
         d="m 75.761776,87.652834 c -0.0743,3.49e-4 -0.14921,0.0017 -0.22384,0.0041 -1.29927,0.05267 -2.33496,0.21057 -3.10751,0.473947 l -1.13214,0.394763 c -0.19312,3.142855 -0.31619,6.488126 -0.36888,10.034806 -0.0351,3.54671 0.035,6.01341 0.21051,7.40049 0.1229,0.26336 0.38608,0.46519 0.78991,0.60566 0.40382,0.158 0.8257,0.26287 1.26464,0.31556 0.43895,0.0703 0.78958,0.10585 1.05296,0.10585 0.86032,0.0878 1.80893,0.0965 2.84485,0.0263 1.03591,-0.0703 1.94021,-0.29819 2.71275,-0.68447 0.7901,-0.40382 1.22859,-1.05403 1.31639,-1.94949 0.0175,-0.91301 -0.29824,-1.65029 -0.94789,-2.21215 -0.64964,-0.5794 -1.343,-1.00087 -2.08043,-1.26425 1.00079,-0.40383 1.96603,-1.06236 2.8966,-1.97537 0.93057,-0.93057 1.49293,-2.264635 1.68606,-4.002868 0.12291,-1.86114 -0.16717,-3.327779 -0.86949,-4.398807 -0.68475,-1.071034 -1.60644,-1.825332 -2.76528,-2.264284 -1.06993,-0.411506 -2.16298,-0.614718 -3.27921,-0.609584 z m 57.831334,0.925553 c -0.42139,0 -0.80763,0.05262 -1.15879,0.157978 -0.33358,0.08782 -0.5271,0.219578 -0.57979,0.395152 0,1.632887 0.01,3.414554 0.0266,5.345917 -0.3336,-0.386267 -0.93078,-0.702084 -1.79112,-0.947888 -0.84277,-0.245821 -1.87845,-0.04396 -3.1075,0.605659 -0.77255,0.526742 -1.34322,1.527587 -1.71194,3.002449 -0.35114,1.474866 -0.51815,2.975926 -0.5006,4.503476 0.0175,1.50997 0.20197,2.58127 0.55313,3.21335 0.64964,0.89546 1.38692,1.34305 2.21215,1.34305 0.82522,0 1.43982,-0.24576 1.84365,-0.73738 0.40383,-0.63208 0.85182,-1.56288 1.34343,-2.79194 0.49163,-1.24661 0.90439,-2.36974 1.23799,-3.37055 0.0527,2.8795 0.11402,5.20531 0.18425,6.97867 0.0175,0.33359 0.2281,0.54453 0.63193,0.63232 0.40383,0.10536 0.80749,0.0966 1.21133,-0.0263 0.4214,-0.10536 0.64976,-0.29848 0.68485,-0.57941 0.0175,-0.6672 0.0523,-1.65064 0.10506,-2.94991 0.17556,-3.91543 0.30735,-8.60307 0.39515,-14.063567 0,-0.245815 -0.1579,-0.421523 -0.47395,-0.526869 -0.31604,-0.122908 -0.68449,-0.184246 -1.10588,-0.184246 z m -34.511884,0.01295 c -0.22825,0 -0.4566,0.02242 -0.68485,0.06625 -0.45651,0.07025 -0.74619,0.192521 -0.8691,0.368101 -0.22826,3.26578 -0.3074,6.602323 -0.23717,10.008552 0.0878,3.38868 0.21918,5.76752 0.39476,7.13704 0.0351,0.26338 0.21952,0.44779 0.55313,0.55314 0.35116,0.10538 0.73741,0.14061 1.1588,0.10545 0.43895,-0.0175 0.807784,-0.0963 1.106274,-0.23678 0.31602,-0.14046 0.46523,-0.33398 0.44768,-0.57979 -0.0175,-0.17558 -0.0259,-0.3774 -0.0259,-0.60566 -0.035,-0.82521 -0.0707,-1.93135 -0.10584,-3.31842 0.21069,-0.0527 0.43903,-0.12271 0.68485,-0.21051 0.1229,0.29849 0.34254,0.71086 0.65859,1.23759 0.31604,0.52673 0.65797,1.04478 1.02669,1.55396 0.36871,0.49162 0.70272,0.84264 1.0012,1.05334 0.57942,0.35114 1.04441,0.51776 1.39557,0.50021 0.36872,-0.035 0.6323,-0.14909 0.79031,-0.34222 0.17559,-0.19315 0.26343,-0.37757 0.26343,-0.55314 -0.0175,-0.0351 -0.16714,-0.23695 -0.44807,-0.60567 -0.40383,-0.47406 -0.87754,-1.07955 -1.42184,-1.81699 -0.52673,-0.73743 -0.9308,-1.43988 -1.21172,-2.10708 1.01836,-0.73744 1.91432,-1.95791 2.68688,-3.661039 0.77252,-1.70311 1.18451,-4.099762 1.2372,-7.189961 -0.0175,-0.158013 -0.17546,-0.306827 -0.47395,-0.447285 -0.28091,-0.140463 -0.61454,-0.237023 -1.00082,-0.289702 -0.38627,-0.05267 -0.73691,-0.01789 -1.05295,0.105062 -0.31605,0.105334 -0.51865,0.324976 -0.60645,0.658587 0.0878,2.949718 -0.22802,5.319859 -0.94789,7.110771 -0.70232,1.773337 -1.5801,2.958607 -2.63356,3.555577 -0.0177,-0.82522 -0.0441,-1.71209 -0.0792,-2.66021 -0.14048,-2.66881 -0.14048,-5.61832 0,-8.848976 -0.14048,-0.245804 -0.44718,-0.403712 -0.921244,-0.473947 -0.22825,-0.04385 -0.45659,-0.06625 -0.68485,-0.06625 z m -24.51745,0.171313 c 1.43975,0.122907 2.58978,0.676154 3.45013,1.659403 0.86033,0.983243 1.24659,2.361238 1.1588,4.134588 -0.15801,1.878697 -0.71959,3.301008 -1.68527,4.266699 -0.9657,0.96569 -2.03699,1.58029 -3.21336,1.84365 V 99.4294 c -0.0702,-3.336007 0.0263,-6.891808 0.2897,-10.66675 z m 46.696914,1.420661 c -0.0293,1.4e-4 -0.0589,4.01e-4 -0.0886,0.0017 -0.82522,0.03513 -1.4133,0.289586 -1.76446,0.763649 -0.42139,0.684755 -0.94852,2.098378 -1.58061,4.240434 -0.61452,2.124511 -1.15869,4.126206 -1.63275,6.004896 0.0527,-2.26496 0.14924,-5.021757 0.2897,-8.269964 -0.0175,-0.456513 -0.29852,-0.763602 -0.84283,-0.921627 -0.54429,-0.158025 -1.09716,-0.17543 -1.65901,-0.0525 -0.54428,0.122908 -0.84268,0.368653 -0.89537,0.737382 -0.12291,2.440538 -0.12291,4.801974 0,7.084509 0.12291,2.26496 0.28082,4.43327 0.47395,6.50511 0.0175,0.35116 0.21107,0.5795 0.57979,0.68485 0.38628,0.10538 0.78084,0.0876 1.18468,-0.0529 0.40382,-0.1229 0.65869,-0.34214 0.76403,-0.65819 0.10535,-0.40383 0.36021,-1.35205 0.76404,-2.84446 0.40383,-1.49243 0.85142,-3.12528 1.34305,-4.89864 0.50917,-1.773343 0.96547,-3.283137 1.36931,-4.529739 0.40383,-1.246615 0.65869,-1.826372 0.76404,-1.738588 0.0878,0.228242 0.16654,1.088613 0.23678,2.581031 0.0702,1.474862 0.10545,3.230796 0.10545,5.267516 0,2.01916 -0.0617,3.97693 -0.18464,5.87318 0.0526,0.36872 0.29882,0.61447 0.73777,0.73738 0.45651,0.1229 0.9041,0.13167 1.34304,0.0262 0.45652,-0.10535 0.71969,-0.30718 0.78992,-0.60566 0.2107,-1.72068 0.38679,-3.60801 0.52726,-5.66228 0.158,-2.07184 0.22766,-3.933038 0.21012,-5.583481 -0.0175,-1.66801 -0.16675,-2.774503 -0.44768,-3.318807 -0.68037,-0.918491 -1.47592,-1.375132 -2.38699,-1.370881 z m -11.09522,0.896934 c -0.43894,0 -0.81649,0.157903 -1.13253,0.473947 -0.31605,0.298488 -0.47394,0.667321 -0.47394,1.106267 0,0.438952 0.15789,0.816896 0.47394,1.132929 0.31604,0.298482 0.69359,0.447291 1.13253,0.447291 0.43895,0 0.80778,-0.148809 1.10627,-0.447291 0.31604,-0.316033 0.47395,-0.693977 0.47395,-1.132929 0,-0.438946 -0.15791,-0.807779 -0.47395,-1.106267 -0.29849,-0.316044 -0.66732,-0.473947 -1.10627,-0.473947 z m -21.984634,0.157984 c -1.01836,0.03502 -1.90484,0.4744 -2.65983,1.317174 -0.73743,0.825225 -1.21985,1.799548 -1.44811,2.92326 -0.31603,1.650437 -0.35164,3.265877 -0.10583,4.846097 0.24581,1.56266 0.7116,2.86151 1.39635,3.89742 0.50919,0.71988 1.06165,1.15916 1.65862,1.31717 0.61452,0.14045 1.17689,0.11401 1.68606,-0.0792 0.50918,-0.21069 0.88633,-0.48296 1.13214,-0.81658 0.52673,-0.82521 0.86946,-1.59771 1.02748,-2.31759 0.17555,-0.73743 0.24559,-1.21986 0.21051,-1.4481 -0.0175,-0.14044 -0.10503,-0.2374 -0.26304,-0.2901 -0.14047,-0.0526 -0.29005,-0.0614 -0.44808,-0.0262 -0.14046,0.0351 -0.2109,0.10556 -0.2109,0.2109 l -0.10506,0.44768 c -0.0703,0.29849 -0.1668,0.64042 -0.2897,1.0267 -0.12289,0.38627 -0.27211,0.73769 -0.44768,1.05374 -0.15803,0.29851 -0.33335,0.46551 -0.52648,0.5006 -0.38628,0 -0.72898,-0.43018 -1.02748,-1.29052 -0.28092,-0.8779 -0.46534,-1.93138 -0.55313,-3.16043 0.8779,-0.28093 1.6508,-0.69368 2.31799,-1.23798 0.68475,-0.544305 1.185,-1.308098 1.50103,-2.291336 0.33361,-1.24662 0.21962,-2.308408 -0.34223,-3.186305 -0.5443,-0.877892 -1.37892,-1.343685 -2.50263,-1.396358 z m 0.84322,1.580609 c 0.59698,0.05273 0.9302,0.465044 1.00043,1.23759 0.0878,0.754989 -0.10494,1.55361 -0.57901,2.396396 -0.47408,0.842774 -1.22915,1.422549 -2.26506,1.738586 -0.0351,-0.667193 0.0175,-1.413576 0.15798,-2.2388 0.15801,-0.825218 0.37725,-1.54469 0.65819,-2.159222 0.29849,-0.614527 0.64121,-0.939438 1.02747,-0.97455 z m 21.167684,1.816993 c -0.42139,0 -0.80765,0.05262 -1.1588,0.157978 -0.33359,0.08781 -0.52671,0.219572 -0.5794,0.395153 -0.0175,2.036709 -0.0175,3.722208 0,5.056608 0.0351,1.31684 0.079,2.57255 0.13172,3.76649 0.0352,0.71986 0.0613,1.49237 0.0788,2.31759 0.035,0.33361 0.27257,0.54376 0.71151,0.63155 0.43895,0.10535 0.87743,0.097 1.31639,-0.0259 0.43897,-0.10535 0.67603,-0.29886 0.71112,-0.57979 0.035,-0.73743 0.0703,-1.48343 0.10545,-2.23841 0.035,-0.84278 0.079,-1.93148 0.13171,-3.26589 0.0527,-1.3344 0.0879,-3.16909 0.10546,-5.504287 0.0175,-0.24581 -0.13164,-0.421524 -0.44769,-0.52687 -0.31604,-0.122902 -0.68487,-0.184245 -1.10626,-0.184245 z m 19.92145,0.342229 c 0.28312,0 0.55672,0.07913 0.8201,0.237168 0.36872,0.193131 0.66672,0.430194 0.89497,0.711115 -0.14047,0.421396 -0.37752,1.096946 -0.71112,2.027505 -0.33359,0.913022 -0.69333,1.879012 -1.07961,2.897392 -0.36871,1.00079 -0.71105,1.83464 -1.02708,2.50184 -0.29849,0.64964 -0.492,0.92192 -0.57979,0.81657 -0.0878,-0.21069 -0.13171,-0.76357 -0.13171,-1.65901 0.0175,-0.91301 0.0796,-1.93165 0.18503,-3.05537 0.1229,-1.1237 0.28913,-2.115455 0.49981,-2.97579 0.22827,-0.860342 0.50962,-1.35185 0.84323,-1.474764 0.0966,-0.01754 0.1918,-0.02666 0.28617,-0.02666 z m -55.135444,6.8885 c 0.49868,0.002 1.00149,0.11046 1.50848,0.32772 0.75499,0.2985 1.17647,0.88656 1.26425,1.76447 0,0.56184 -0.20183,0.99203 -0.60567,1.29051 -0.40383,0.28093 -0.86923,0.48355 -1.39596,0.60645 -0.52674,0.10536 -0.98344,0.1667 -1.36971,0.18425 -0.0527,-1.52754 -0.0784,-2.89722 -0.0784,-4.10872 0.22496,-0.0438 0.45033,-0.0654 0.67701,-0.0647 z m 27.118474,7.91048 v 4e-4 3.9e-4 c -0.59468,0 -1.13797,0.0773 -1.62922,0.23247 -0.46537,0.15512 -0.736624,0.362 -0.814214,0.62055 0,0.12931 -0.0125,0.34872 -0.0384,0.65898 -0.0258,0.28441 -0.0513,0.59491 -0.0772,0.93104 -0.026,0.38783 -0.0526,0.76271 -0.0784,1.12469 -0.0258,0.33614 -0.0513,0.58227 -0.0772,0.73738 -0.51711,0 -0.95676,0.0121 -1.31874,0.038 -0.28441,0.0258 -0.56823,0.0392 -0.85264,0.0392 -0.20681,0.0259 -0.34931,0.20643 -0.4269,0.54255 -0.0776,0.31027 -0.0776,0.62078 0,0.93104 0.0516,0.31027 0.19421,0.47828 0.4269,0.50413 h 0.73621 1.31874 c -0.49129,6.85171 -0.4657,12.01018 0.0772,15.47482 0.54297,3.46463 2.016974,5.26132 4.421544,5.39061 0.54295,0 0.93121,-0.16801 1.1639,-0.50413 0.23271,-0.36198 0.29748,-0.7239 0.19405,-1.08588 -0.0775,-0.362 -0.33625,-0.55591 -0.7758,-0.58176 -0.67224,-0.0517 -1.09935,-0.80186 -1.28033,-2.24978 -0.15511,-1.4479 -0.16773,-3.23124 -0.0384,-5.3514 0.1293,-2.14601 0.28433,-4.29206 0.46532,-6.43808 0.18095,-1.75817 0.3101,-3.30992 0.3877,-4.6544 0.54297,0.0258 1.06035,0.0258 1.5516,0 0.18099,0.0258 0.33604,-0.0645 0.46532,-0.27128 0.12932,-0.20684 0.20703,-0.43961 0.23286,-0.69817 0.0259,-0.28442 -0.0123,-0.53016 -0.11643,-0.73699 -0.10348,-0.20685 -0.31067,-0.29713 -0.62095,-0.27128 h -1.39597 v -0.54333 c 0.0258,-0.25856 0.0514,-0.54236 0.0772,-0.85264 0.0258,-0.41368 0.0517,-0.80193 0.0776,-1.16389 0.0258,-0.36198 0.0388,-0.60731 0.0388,-0.7366 0.0517,-0.38783 -0.14181,-0.65947 -0.58136,-0.81461 -0.41369,-0.18098 -0.91813,-0.27206 -1.51279,-0.27206 z m 11.87415,6.12799 c -2.22355,0.0517 -3.9555,0.77597 -5.19655,2.17216 -1.21522,1.37035 -2.0168,3.18038 -2.40463,5.42981 -0.64638,3.9559 -0.41359,7.14887 0.69818,9.5793 1.11179,2.40455 2.94735,3.85266 5.50704,4.34392 1.75818,0.23269 3.20629,-0.38831 4.34392,-1.86207 1.13764,-1.47378 1.92589,-3.36074 2.36543,-5.66188 0.46541,-2.327 0.54312,-4.62811 0.23286,-6.9034 0.31026,0.0259 0.71105,-0.0124 1.20231,-0.11643 0.49127,-0.10348 0.95682,-0.23257 1.39636,-0.3877 0.43955,-0.18099 0.76223,-0.349 0.96906,-0.50413 0.46541,-0.49127 0.63342,-0.89204 0.50414,-1.20232 -0.10349,-0.31027 -0.38722,-0.36247 -0.85264,-0.15563 -0.95664,0.54298 -2.10761,0.84052 -3.45209,0.89223 -0.38783,-1.62889 -1.03436,-2.96042 -1.9393,-3.99464 -0.87908,-1.06007 -2.00374,-1.60335 -3.37409,-1.62922 z m 0.0385,1.74565 c 1.31862,0.15513 2.2368,1.33159 2.75391,3.52932 -1.49962,-0.28443 -2.89551,-1.02123 -4.1883,-2.21058 0.43956,-0.87909 0.91728,-1.31874 1.43439,-1.31874 z m -2.09415,2.90876 c 1.37034,1.24107 3.09009,2.0034 5.15853,2.2878 0.25856,1.91331 0.25856,3.89137 0,5.93394 -0.23269,2.01674 -0.69825,3.68428 -1.39635,5.00291 -0.69811,1.31862 -1.64179,1.87526 -2.83114,1.66841 -0.74982,-0.31027 -1.2672,-1.64257 -1.5516,-3.99542 -0.28439,-2.35284 -0.29702,-4.87341 -0.0385,-7.56237 0.15514,-1.26692 0.37457,-2.37862 0.65898,-3.33527 z m 23.08424,19.63489 c -0.3176,-0.006 -0.63503,0.0541 -0.9526,0.1811 -0.42344,0.16939 -0.68633,0.42372 -0.78795,0.76248 -1.37196,3.64159 -2.47278,6.57173 -3.30273,8.79056 -0.27101,-0.72832 -0.60146,-1.58375 -0.99102,-2.56614 -0.37264,-0.99933 -0.745,-1.98172 -1.11764,-2.94717 -0.35568,-0.96545 -0.6605,-1.77855 -0.91457,-2.43912 l -0.35595,-0.99102 c -0.23711,-0.271 -0.55902,-0.42323 -0.96554,-0.45709 -0.40651,-0.0339 -0.77887,0.0251 -1.11763,0.17758 -0.33873,0.15245 -0.53367,0.3726 -0.58449,0.66055 l -0.0255,0.0259 c 0.0677,4.35298 0.10193,7.74868 0.10193,10.1877 -0.0169,2.42208 0.009,4.15858 0.0764,5.20871 0.0508,0.33876 0.22865,0.55 0.53353,0.63468 0.32181,0.0678 0.62664,0.0344 0.91457,-0.10114 0.28792,-0.13551 0.41489,-0.35567 0.38104,-0.66055 0,-1.88007 -0.0171,-4.87816 -0.0509,-8.99402 l 2.51517,6.32596 c 0.017,0.0339 0.0422,0.0681 0.0761,0.10192 0,0.0508 0.0423,0.11838 0.12702,0.20307 0.0847,0.0678 0.1868,0.13571 0.30538,0.20346 0.1355,0.0507 0.27918,0.0589 0.43161,0.0251 0.15243,-0.0339 0.29691,-0.1523 0.43239,-0.35555 1.10096,-2.4221 2.05771,-4.86102 2.87073,-7.31698 0.22018,-0.66056 0.44037,-1.27914 0.66054,-1.85502 0.017,3.08265 0.0422,5.6575 0.0761,7.72389 0.0339,1.86315 0.051,3.41286 0.051,4.64931 0.0339,0.25406 0.21169,0.43191 0.53353,0.53353 0.33874,0.10166 0.71112,0.13545 1.11764,0.10154 0.42344,-0.0169 0.77952,-0.0931 1.06745,-0.22855 0.30486,-0.13551 0.44853,-0.3219 0.43161,-0.55902 -0.0339,-0.91463 -0.0677,-2.4558 -0.10153,-4.62382 -0.0507,-3.21816 -0.13546,-7.13108 -0.25402,-11.73813 -0.13551,-0.35568 -0.42324,-0.56692 -0.86362,-0.63467 -0.10585,-0.0169 -0.21208,-0.0269 -0.31792,-0.029 z m -48.929444,0.004 c -0.78006,0.0149 -1.21759,0.26022 -1.31287,0.7366 -0.0508,0.542 -0.0932,1.17727 -0.127,1.90559 -0.0508,1.03319 -0.14402,2.0921 -0.27951,3.17611 -0.11857,1.06707 -0.32166,1.97298 -0.60959,2.71824 -0.28795,0.74525 -0.71118,1.14326 -1.27013,1.19407 -0.40649,0 -0.77113,-0.13551 -1.09294,-0.40651 -0.30487,-0.28794 -0.55881,-0.81293 -0.76208,-1.57513 -0.1863,-0.76219 -0.27951,-1.87158 -0.27951,-3.32821 0,-0.74526 0.0253,-1.57506 0.0761,-2.48969 -0.0339,-0.35569 -0.21985,-0.61818 -0.55863,-0.78756 -0.32181,-0.16938 -0.69418,-0.25403 -1.11763,-0.25403 -0.40651,0 -0.77112,0.0757 -1.09294,0.22816 -0.30485,0.15244 -0.4827,0.40677 -0.53353,0.76247 l -0.0251,1.42262 c 0,1.67683 0.14367,3.09957 0.4316,4.26827 0.28795,1.15176 0.78808,2.04098 1.49946,2.66767 0.72833,0.60974 1.73596,0.93978 3.02323,0.99062 1.11787,0 1.98145,-0.36383 2.59123,-1.09215 v 0.63506 c 0,1.79539 -0.12698,3.26045 -0.38104,4.39528 -0.25405,1.1348 -0.7876,1.72774 -1.60061,1.77858 -0.6775,0.0678 -1.24481,-0.20329 -1.70213,-0.81304 -0.44038,-0.6267 -0.65198,-1.3637 -0.63506,-2.21058 0.0339,-0.84688 -0.0341,-1.41419 -0.20346,-1.70213 -0.15244,-0.28795 -0.33028,-0.43161 -0.53353,-0.43161 -0.28794,0 -0.49957,0.15221 -0.63507,0.45709 -0.11857,0.28793 -0.17797,0.6607 -0.17797,1.11802 0,0.27101 0.0342,0.68611 0.10192,1.24505 0.0847,0.542 0.27068,1.10077 0.55862,1.67665 0.28794,0.55895 0.72827,1.02452 1.3211,1.39714 0.60978,0.38955 1.4314,0.56778 2.4646,0.53393 1.40581,-0.16938 2.43057,-0.70329 3.07419,-1.60099 0.66058,-0.91463 1.07567,-1.97275 1.24504,-3.17533 0.16934,-1.21951 0.2369,-2.36307 0.20306,-3.43014 l -0.22893,-8.89248 c -0.0678,-0.37263 -0.19474,-0.65182 -0.38104,-0.83813 -0.16938,-0.18633 -0.46529,-0.27951 -0.88871,-0.27951 -0.0551,-5.8e-4 -0.10911,-5.8e-4 -0.16111,0 z m 75.758604,0.20307 c -0.4065,0 -0.77887,0.0513 -1.11764,0.15288 -0.3218,0.0847 -0.50858,0.21127 -0.5594,0.38065 0,1.57519 0.009,3.29422 0.0258,5.15736 -0.32181,-0.37264 -0.89807,-0.67744 -1.728,-0.91458 -0.81302,-0.23712 -1.81212,-0.0422 -2.99775,0.5845 -0.74524,0.50812 -1.29588,1.47345 -1.65156,2.89621 -0.33875,1.42276 -0.49988,2.87114 -0.48296,4.34471 0.0169,1.45664 0.19516,2.48992 0.53392,3.09967 0.62671,0.86382 1.33807,1.29561 2.13413,1.29561 0.79606,0 1.389,-0.23725 1.77858,-0.71151 0.38955,-0.60976 0.82136,-1.5075 1.29561,-2.69314 0.47428,-1.20257 0.87227,-2.28632 1.19408,-3.25178 0.0508,2.77778 0.10982,5.02178 0.17759,6.73249 0.0169,0.32182 0.22042,0.52529 0.60997,0.60997 0.38959,0.10163 0.77903,0.0931 1.1686,-0.0255 0.40653,-0.10164 0.62671,-0.28762 0.66055,-0.55862 0.0169,-0.64363 0.0511,-1.59265 0.10192,-2.84604 0.16938,-3.77711 0.29634,-8.29888 0.38104,-13.56649 0,-0.23713 -0.15222,-0.40681 -0.45709,-0.50844 -0.30488,-0.11856 -0.66094,-0.17797 -1.06746,-0.17797 z m -11.8965,1.54846 c -0.0284,1.4e-4 -0.0565,0 -0.0851,0.001 -0.79606,0.0339 -1.36378,0.27968 -1.70253,0.73698 -0.4065,0.66058 -0.91439,2.0243 -1.52415,4.09069 -0.59282,2.04946 -1.11819,3.98048 -1.57551,5.79282 0.0508,-2.18497 0.14362,-4.84445 0.27911,-7.97791 -0.0169,-0.44038 -0.28756,-0.73667 -0.81264,-0.8891 -0.52505,-0.15243 -1.05859,-0.16917 -1.6006,-0.0506 -0.52506,0.11856 -0.81317,0.35543 -0.864,0.71112 -0.11856,2.35433 -0.11856,4.6325 0,6.8344 0.11856,2.18496 0.27114,4.27675 0.45748,6.27539 0.0169,0.33875 0.20333,0.55892 0.55901,0.66055 0.37264,0.10165 0.75355,0.0845 1.14312,-0.051 0.38955,-0.11857 0.63535,-0.3298 0.73699,-0.63467 0.10163,-0.38958 0.34703,-1.3048 0.7366,-2.74451 0.38956,-1.4397 0.82135,-3.01465 1.29561,-4.72535 0.49119,-1.71071 0.9319,-3.16723 1.32148,-4.3698 0.38957,-1.20257 0.63499,-1.76174 0.7366,-1.67705 0.0847,0.22019 0.16117,1.04999 0.22894,2.48969 0.0677,1.42277 0.10153,3.11694 0.10153,5.08171 0,1.94782 -0.059,3.83613 -0.17759,5.66541 0.0508,0.35569 0.28767,0.59294 0.71112,0.7115 0.44037,0.11856 0.8722,0.12714 1.29562,0.0255 0.44038,-0.10161 0.69472,-0.29615 0.76247,-0.5841 0.20325,-1.65988 0.37255,-3.48103 0.50805,-5.46273 0.15244,-1.99865 0.21999,-3.79378 0.20306,-5.38591 -0.0169,-1.60908 -0.16099,-2.67652 -0.432,-3.20159 -0.65635,-0.88605 -1.42381,-1.32676 -2.3027,-1.32266 z m -39.44109,0.68602 c -0.0807,-0.005 -0.15798,0.0286 -0.23208,0.10271 -0.11855,0.11856 -0.20358,0.27972 -0.25442,0.48297 -0.0339,0.18631 -0.008,0.35561 0.0761,0.50805 0.42342,1.89702 0.66067,3.9892 0.7115,6.27578 0.0678,2.26965 -0.26268,4.32726 -0.99101,6.17346 -0.10161,0.2202 -0.10981,0.3895 -0.0251,0.50805 0.0847,0.11859 0.21166,0.19509 0.38104,0.22894 0.1863,0.0169 0.35561,-0.0172 0.50805,-0.10192 0.91463,-1.50746 1.43146,-3.32821 1.55003,-5.46235 0.11855,-2.15108 -0.0682,-4.36945 -0.5594,-6.65603 0.93156,0.27099 1.81264,0.20304 2.64257,-0.20346 -0.16938,2.48983 -0.21168,4.90352 -0.12701,7.24092 0.10164,2.32047 0.44877,4.55631 1.04159,6.70739 0.1355,0.28794 0.35567,0.4654 0.66054,0.53314 0.30487,0.0678 0.60154,0.0507 0.88948,-0.051 0.28792,-0.10162 0.45723,-0.27053 0.50806,-0.50765 -0.0678,-2.91328 -0.0422,-5.58092 0.0764,-8.003 0.13551,-2.91328 0.0932,-5.01361 -0.12701,-6.30087 -0.10161,-0.42344 -0.33075,-0.69447 -0.68642,-0.81304 -0.33877,-0.13549 -0.7624,-0.22869 -1.27052,-0.27951 -0.57589,0.0169 -1.10903,0.0678 -1.60021,0.15249 -0.50812,0.10162 -1.00748,0.14396 -1.49868,0.12702 -0.49121,-0.0339 -0.99949,-0.23736 -1.52455,-0.60998 -0.0508,-0.0318 -0.10054,-0.0489 -0.14896,-0.0522 z m 28.73789,0.17916 c -0.42344,0 -0.78767,0.15222 -1.09255,0.45708 -0.30487,0.28795 -0.45749,0.64403 -0.45749,1.06747 0,0.42344 0.15262,0.78766 0.45749,1.09254 0.30488,0.28794 0.66911,0.43201 1.09255,0.43201 0.42342,0 0.77913,-0.14407 1.06706,-0.43201 0.30488,-0.30488 0.45709,-0.6691 0.45709,-1.09254 0,-0.42344 -0.15221,-0.77952 -0.45709,-1.06747 -0.28793,-0.30486 -0.64364,-0.45708 -1.06706,-0.45708 z m -31.64469,0.50844 c -0.42344,0 -0.79583,0.0761 -1.11764,0.22855 -0.30485,0.1355 -0.4827,0.33004 -0.53353,0.5841 -0.0169,0.15244 -0.18663,0.78771 -0.50844,1.90559 -0.32181,1.11789 -0.70274,2.37987 -1.14312,3.78569 -0.42344,1.40583 -0.81293,2.6084 -1.1686,3.60773 -0.35569,0.99931 -0.5848,1.4478 -0.68642,1.34618 -0.0847,-0.22019 -0.15223,-0.86322 -0.20306,-1.93029 -0.0508,-1.08401 -0.0675,-2.27843 -0.0506,-3.58263 0.0169,-1.3042 0.0845,-2.39689 0.20307,-3.27765 0.0678,-0.6775 -0.12679,-1.15122 -0.58411,-1.42223 -0.45732,-0.28794 -0.95708,-0.38152 -1.49906,-0.27989 -0.525084,0.0847 -0.864074,0.33048 -1.016504,0.73698 -0.14741,0.57908 -0.26551,1.25602 -0.35399,2.03143 -0.52285,0.21185 -1.11902,0.33058 -1.78877,0.35634 -0.25407,-1.06708 -0.6777,-1.9392 -1.27052,-2.61671 -0.57589,-0.69444 -1.31248,-1.05011 -2.21018,-1.06706 -1.45665,0.0339 -2.59124,0.50839 -3.40427,1.42302 -0.79606,0.8977 -1.32143,2.08357 -1.57551,3.55714 -0.42344,2.59146 -0.27084,4.68286 0.45748,6.275 0.72833,1.5752 1.93087,2.52383 3.60772,2.84564 1.15175,0.15244 2.09999,-0.25411 2.84526,-1.21955 0.74525,-0.96547 1.26207,-2.20181 1.55002,-3.70926 0.30488,-1.52439 0.35535,-3.03178 0.1521,-4.52229 0.20325,0.0169 0.46575,-0.008 0.78756,-0.076 0.26203,-0.0552 0.51273,-0.12232 0.75228,-0.19993 -0.0116,0.15677 -0.0225,0.31612 -0.0322,0.47944 -0.0678,1.43969 -0.0503,2.81118 0.0513,4.11537 0.11857,1.30422 0.31311,2.2109 0.58411,2.71902 0.626684,0.88076 1.338074,1.32071 2.134124,1.32071 0.79607,0 1.389,-0.24541 1.77858,-0.7366 0.38956,-0.62669 0.83846,-1.71897 1.34658,-3.27725 0.50811,-1.57521 0.93138,-3.03212 1.27013,-4.37019 0.0678,2.16801 0.14424,4.17476 0.22894,6.02097 0.0509,1.10095 0.0932,2.13421 0.12701,3.09967 0.0169,0.32181 0.22003,0.52528 0.60958,0.60997 0.38958,0.10163 0.77902,0.0931 1.1686,-0.0255 0.38953,-0.10164 0.60972,-0.28762 0.66055,-0.55862 0.017,-0.66058 0.0426,-1.46514 0.0764,-2.41365 0.11857,-2.43902 0.21992,-6.0382 0.3046,-10.79768 0,-0.33875 -0.16076,-0.58455 -0.48258,-0.73698 -0.30487,-0.15244 -0.66019,-0.22855 -1.06667,-0.22855 z m -13.906364,1.54964 c 0.86382,0.10163 1.4653,0.87241 1.80405,2.31211 -0.98239,-0.18632 -1.89686,-0.66898 -2.74372,-1.44811 0.28794,-0.57589 0.60092,-0.864 0.93967,-0.864 z m 45.576134,1.37166 c -0.40648,0 -0.77889,0.0513 -1.11763,0.15289 -0.32179,0.0847 -0.5078,0.21166 -0.55862,0.38104 -0.0169,1.96477 -0.0169,3.59058 0,4.87785 0.0339,1.27031 0.0762,2.48143 0.127,3.6332 0.0339,0.69444 0.0588,1.43997 0.0757,2.23606 0.0339,0.3218 0.26258,0.5245 0.68604,0.60919 0.42344,0.10163 0.84707,0.0935 1.27052,-0.0251 0.42346,-0.10163 0.65179,-0.28801 0.68563,-0.55901 0.0339,-0.71139 0.0681,-1.4313 0.10193,-2.15962 0.0339,-0.813 0.0762,-1.86297 0.12701,-3.15023 0.0508,-1.28727 0.0847,-3.05715 0.10153,-5.30986 0.0169,-0.23712 -0.12673,-0.40682 -0.43161,-0.50845 -0.30488,-0.11855 -0.66094,-0.17797 -1.06746,-0.17797 z m 19.21779,0.33047 c 0.27313,0 0.53665,0.0765 0.7907,0.22894 0.3557,0.18631 0.64382,0.41462 0.864,0.68563 -0.1355,0.40651 -0.36422,1.05846 -0.68603,1.95616 -0.32181,0.88076 -0.66897,1.81269 -1.04158,2.79508 -0.35569,0.96545 -0.68612,1.76961 -0.99102,2.41325 -0.28795,0.62668 -0.47392,0.88956 -0.55862,0.78794 -0.0847,-0.20326 -0.12702,-0.73678 -0.12702,-1.6006 0.0169,-0.88076 0.076,-1.86355 0.17759,-2.94756 0.11857,-1.08401 0.27969,-2.04078 0.48296,-2.87073 0.22017,-0.82995 0.49085,-1.30406 0.81265,-1.42263 0.0932,-0.0169 0.18533,-0.0255 0.27637,-0.0255 z m -66.165594,0.20346 c 0.8977,0.81301 2.02417,1.31236 3.37918,1.49867 0.16936,1.25338 0.16936,2.54916 0,3.88723 -0.15245,1.32114 -0.45726,2.41382 -0.91457,3.27764 -0.45732,0.86383 -1.0755,1.22806 -1.85463,1.09255 -0.49118,-0.20325 -0.83019,-1.07577 -1.0165,-2.61709 -0.18631,-1.54133 -0.19448,-3.19239 -0.0251,-4.95391 0.10164,-0.82994 0.24529,-1.5584 0.43161,-2.18509 z" />
    </g>
  </g>
</svg>
